<svg width="162" height="206" viewBox="0 0 162 206" fill="none" xmlns="http://www.w3.org/2000/svg">
<g filter="url(#filter0_d)">
<path d="M80.6123 35.562C58.3304 35.562 40.3022 52.8072 40.3022 74.0582C40.3022 95.3092 80.6123 156.211 80.6123 156.211C80.6123 156.211 120.922 95.3092 120.922 74.0582C120.922 52.8072 102.894 35.562 80.6123 35.562Z" fill="white"/>
<path d="M71.0622 89.6874C71.2864 90.1792 71.6308 89.9454 71.9912 89.9374C72.5678 89.9212 72.9201 89.5342 73.4407 89.3085C72.9842 89.1714 72.5998 89.0505 72.1914 88.9215C72.0632 89.1875 71.9271 89.4778 71.7829 89.7761C71.7429 89.7761 71.6949 89.7761 71.6548 89.7761C71.6068 89.5584 71.5427 89.3407 71.5267 89.123C71.5107 88.865 71.4226 88.736 71.1503 88.728C70.9981 88.7199 70.846 88.6231 70.6378 88.5425C70.4856 88.9457 70.3094 89.3972 70.1012 89.9535C69.7488 89.3407 69.8129 88.7683 69.8449 88.2119C69.3804 87.9459 69.3804 87.9459 69.0921 88.8247C69.0361 88.6876 68.94 88.5506 68.932 88.4135C68.8999 88.0749 68.7638 87.8652 68.4034 87.7685C68.1151 87.6798 68.019 87.7121 68.011 88.0265C68.003 88.3974 67.963 88.7763 67.8989 89.1472C67.8749 89.3165 67.7708 89.4778 67.7067 89.6471C67.6666 89.6471 67.6266 89.6471 67.5946 89.6471C67.5465 89.4939 67.4905 89.3407 67.4424 89.1875C67.3063 88.728 67.1861 88.2603 67.042 87.8007C66.9859 87.6153 66.8978 87.5105 66.6576 87.5911C66.4974 87.6476 66.3052 87.5992 66.0409 87.5992C65.9769 87.7927 65.8808 88.0588 65.7847 88.3248C65.7446 88.3329 65.6966 88.3409 65.6565 88.349C65.5765 88.1152 65.5044 87.8814 65.4083 87.6476C65.3522 87.5105 65.2721 87.3895 65.2001 87.2605C65.112 87.3895 65.0319 87.5266 64.9438 87.6556C64.9118 87.7121 64.8797 87.7685 64.7996 87.9217C64.6395 87.6072 64.5193 87.3573 64.3832 87.0912C63.2941 87.0509 63.6544 88.0265 63.4062 88.5748C63.3661 88.5828 63.3261 88.5909 63.2781 88.599C63.19 88.349 63.0618 88.1152 63.0298 87.8572C62.9897 87.5508 63.0538 87.2444 63.0458 86.93C63.0458 86.8252 62.9737 86.7284 62.9337 86.6236C62.8216 86.68 62.6534 86.7042 62.6134 86.7848C62.5173 87.0267 62.4692 87.2928 62.317 87.575C62.261 87.3492 62.1809 87.1235 62.1649 86.8977C62.1168 86.2043 62.0768 85.519 62.0528 84.8256C62.0207 84.0838 62.277 83.7291 62.9817 83.463C63.246 83.3582 63.4863 83.1728 63.7586 83.0679C63.9828 82.9793 64.2631 82.8664 64.4793 82.9228C65.0559 83.0599 65.6245 83.2453 66.1691 83.4791C66.6175 83.6726 67.05 83.7855 67.5465 83.7936C68.011 83.8016 68.4755 83.971 68.924 84.1322C69.2523 84.2532 69.5246 84.3419 69.8689 84.1564C70.0451 84.0677 70.3494 84.1 70.5497 84.1887C71.0302 84.3902 71.5027 84.3499 71.9992 84.2773C72.776 84.1725 73.5528 84.1322 74.3376 84.0435C74.5699 84.0193 74.8101 83.9629 75.0183 83.8662C75.3627 83.7049 75.699 83.5114 76.0194 83.3018C76.2196 83.1647 76.3798 82.9551 76.572 82.8019C77.0204 82.431 77.525 82.3907 78.0775 82.5439C78.2697 82.6003 78.502 82.5116 78.7182 82.4955C78.8463 82.4874 78.9825 82.4713 79.1106 82.4632C79.511 82.431 79.9115 82.3987 80.3199 82.3746C80.6642 82.3504 81.0166 82.2617 81.3369 82.3342C82.0337 82.4955 82.5142 82.1004 83.0027 81.7537C83.0988 81.6892 83.1228 81.3022 83.0267 81.2055C82.5462 80.7136 82.5863 80.1815 82.7704 79.601C82.9787 78.9398 83.339 78.4158 84.0037 78.1658C84.5723 77.9481 84.7485 77.6176 84.6124 77.029C84.5964 76.9725 84.5563 76.9161 84.5083 76.8758C84.26 76.65 84.0198 76.4082 83.7475 76.2147C83.6514 76.1502 83.4672 76.1663 83.339 76.2147C83.259 76.2388 83.1548 76.392 83.1709 76.4727C83.267 77.0612 82.8025 77.4321 82.6263 77.9239C82.4501 77.545 82.1858 77.1902 82.2819 76.7549C82.346 76.4565 82.2099 76.2953 81.9696 76.2711C81.8174 76.255 81.6333 76.392 81.4891 76.4888C81.3369 76.5936 81.1848 76.7145 81.0647 76.8597C80.9445 77.0048 80.8564 77.1822 80.7203 77.3999C80.5361 77.037 80.6722 76.6904 80.7043 76.3678C80.7283 76.1502 80.8725 75.9405 80.9125 75.7228C80.9365 75.5858 80.9045 75.4084 80.8244 75.2955C80.7844 75.2391 80.5842 75.2794 80.464 75.3116C80.2078 75.3842 79.9595 75.4729 79.6792 75.5696C79.5271 75.0939 79.8634 74.8037 80.1357 74.5215C80.416 74.2312 80.7603 73.9974 81.1608 73.6749C81.0086 73.5943 80.8885 73.5378 80.6883 73.433C81.0967 73.3201 81.361 73.2073 81.6413 73.1831C82.0177 73.1589 82.1057 72.9089 82.1538 72.6348C82.346 71.4496 82.8425 70.4095 83.5393 69.4581C83.7875 69.1195 84.1399 68.8615 84.4282 68.5551C84.5643 68.418 84.7245 68.2568 84.7725 68.0875C85.1249 66.7571 86.0459 65.9589 87.2071 65.3623C87.2391 65.3461 87.2792 65.33 87.2952 65.3219C87.1831 64.2819 87.079 63.2498 86.9668 62.2017C86.3021 61.8469 85.9898 61.1213 85.5413 60.5085C85.5013 60.4521 85.4613 60.3795 85.4052 60.3473C84.8446 59.9925 84.1959 59.7184 83.7314 59.2669C83.283 58.8315 82.7464 58.6944 82.2259 58.4687C81.7854 58.2752 81.345 58.0816 80.9205 57.8559C80.7363 57.7591 80.5922 57.5818 80.392 57.4044C80.1197 57.3238 79.7673 57.2431 79.439 57.1141C78.8223 56.8722 78.2377 56.5659 77.6131 56.3643C77.1406 56.2111 76.62 56.195 76.1315 56.0821C75.9313 56.0337 75.7471 55.9128 75.5629 55.816C75.4988 55.7838 75.4348 55.7273 75.3707 55.7273C74.698 55.7032 73.9692 55.8322 73.3526 55.6306C72.5518 55.3645 71.7029 55.6145 70.9581 55.2597C70.0531 54.8243 69.1162 55.0662 68.1952 55.0017C68.0911 54.9936 67.971 55.0339 67.8749 55.0017C66.7857 54.6228 65.7606 55.0985 64.7035 55.2033C64.4313 55.2275 64.151 55.2113 63.8707 55.2194C63.7666 55.2194 63.6625 55.2355 63.5583 55.2516C62.6854 55.4048 61.8045 55.558 60.9396 55.7273C60.6593 55.7838 60.379 55.8886 60.1067 55.9853C59.45 56.2111 58.7613 56.3401 58.1207 56.6546C57.0315 57.1948 55.8463 57.5414 54.7892 58.1623C54.1004 58.5654 53.3637 58.8799 52.6269 59.1943C52.4267 59.283 52.1624 59.2185 51.9302 59.2185C52.0183 59.0089 52.0663 58.7509 52.2185 58.6057C52.4027 58.4203 52.683 58.3235 52.9072 58.1703C53.0113 58.0978 53.1314 57.993 53.1715 57.8801C53.2836 57.5737 53.4598 57.3802 53.8041 57.3479C53.9163 57.3399 54.0444 57.227 54.1085 57.1302C54.3167 56.7836 54.5569 56.5255 54.9093 56.582C55.1335 56.3804 55.3177 56.2272 55.4939 56.066C55.582 55.9853 55.6541 55.8967 55.7342 55.808C55.7822 55.7515 55.8142 55.6467 55.8783 55.6225C56.4069 55.3806 56.9354 55.1549 57.464 54.913C57.5761 54.8566 57.6962 54.7921 57.7923 54.7195C58.2328 54.3889 58.7773 54.2196 59.1377 53.7359C59.2338 53.5988 59.6102 53.6472 59.8585 53.6552C60.1067 53.6552 60.2509 53.5746 60.4191 53.373C60.5872 53.1715 60.8755 53.0102 61.1318 52.9538C61.4922 52.8812 61.8606 53.0183 62.1489 52.5829C62.269 52.3974 62.7095 52.4378 63.0058 52.3491C63.1579 52.3088 63.3902 52.2604 63.4382 52.1475C63.6544 51.6799 64.0388 51.7444 64.4232 51.7282C64.6555 51.7202 64.8957 51.6396 65.128 51.5912C65.4083 51.5347 65.6966 51.4057 65.9689 51.4219C66.2411 51.446 66.4334 51.4219 66.6015 51.2042C66.6416 51.1558 66.7056 51.0913 66.7617 51.0913C67.4344 51.0671 67.995 50.4624 68.7318 50.7043C68.8118 50.7285 68.924 50.6559 69.012 50.6237C69.6287 50.3979 70.2373 50.156 70.854 49.9544C71.0222 49.898 71.2384 49.9141 71.4066 49.9706C71.831 50.1076 72.1754 49.9706 72.5598 49.8013C72.776 49.7045 73.0563 49.7448 73.3045 49.7287C73.5448 49.7126 73.785 49.7126 74.0253 49.6964C74.0733 49.6964 74.1294 49.64 74.1775 49.6481C75.0343 49.8819 75.9633 49.2127 76.7962 49.8738C76.8923 49.9544 77.1325 49.9141 77.2767 49.8496C77.613 49.7045 77.9014 49.5916 78.2377 49.8819C78.3338 49.9625 78.558 49.8899 78.7262 49.898C78.9745 49.9141 79.2147 49.9303 79.463 49.9625C79.7833 50.0028 80.1037 50.1076 80.424 50.0996C80.7844 50.0915 81.0887 50.1238 81.377 50.3818C81.5452 50.5269 81.8335 50.5833 82.0737 50.5914C82.4821 50.5995 82.8665 50.5753 83.1629 50.9381C83.1949 50.9784 83.283 50.9865 83.347 50.9784C83.4111 50.9784 83.5072 50.9139 83.5393 50.9381C83.9317 51.2687 84.4442 51.188 84.8847 51.3574C85.173 51.4702 85.4212 51.6718 85.6935 51.8169C85.7656 51.8572 85.8777 51.8492 85.9578 51.8169C86.3102 51.696 86.5264 51.8572 86.6625 52.1636C86.7907 52.4539 86.9748 52.591 87.3032 52.599C87.4634 52.6071 87.7196 52.7119 87.7677 52.8409C87.9038 53.1876 88.1361 53.2521 88.4564 53.2521C88.5525 53.2521 88.6566 53.3166 88.7527 53.365C90.0981 54.0987 91.4435 54.8404 92.7969 55.558C94.2705 56.3401 95.3917 57.5173 96.4808 58.7428C97.0974 59.4442 97.6901 60.1618 98.3708 60.831C98.2346 60.5891 98.0664 60.3634 97.9623 60.1054C97.8823 59.9199 97.7942 59.6458 97.8742 59.5087C98.1786 58.9847 98.5149 58.4687 98.8993 58.001C99.1155 57.743 99.4439 57.6946 99.7722 57.9285C99.8924 58.0171 100.069 58.0413 100.229 58.0655C100.565 58.122 100.877 58.1542 101.014 58.5654C101.054 58.6864 101.35 58.7428 101.534 58.7831C102.071 58.8879 102.239 58.9766 102.399 59.3072C101.766 59.5894 101.798 59.5974 102.271 60.1779C103.16 61.2664 103.736 62.4839 103.496 63.9513C103.48 64.0642 103.544 64.2093 103.6 64.3222C103.993 65.0559 103.985 65.7896 103.568 66.5072C103.24 67.0716 102.968 67.6924 102.239 67.8939C103.544 71.4818 103.536 75.0456 102.271 78.6415C103.208 78.8028 103.921 79.2946 104.529 79.9638C104.545 79.9799 104.569 80.0041 104.585 80.0202C105.074 80.754 105.594 81.4473 106.195 82.1004C106.491 82.4229 106.587 83.0034 106.643 83.4791C106.715 84.1403 106.667 84.8176 106.659 85.4948C106.651 86.0834 106.868 86.4059 107.396 86.6155C107.701 86.7365 107.997 86.8897 108.277 87.059C108.429 87.1557 108.541 87.3331 108.67 87.4702C108.646 87.4944 108.63 87.5266 108.605 87.5508C108.445 87.5186 108.293 87.4944 108.085 87.4541C108.117 87.5427 108.117 87.6072 108.149 87.6234C108.493 87.8814 108.838 88.1394 109.198 88.3813C109.687 88.7199 109.566 89.2682 109.695 89.76C109.278 89.3891 108.605 89.7277 108.285 89.1633C108.245 89.0908 107.981 89.1553 107.917 89.1553C107.869 89.8729 107.829 90.5421 107.789 91.2032C107.757 91.2193 107.717 91.2274 107.685 91.2435C107.428 90.9371 107.172 90.6308 106.908 90.3324C106.828 90.2437 106.651 90.1228 106.627 90.147C106.515 90.2357 106.371 90.3889 106.387 90.4937C106.427 90.7678 106.307 90.8726 106.091 90.9855C105.963 91.05 105.875 91.2032 105.771 91.3241C105.674 91.437 105.586 91.566 105.498 91.687C105.458 91.6789 105.418 91.6708 105.378 91.6628C105.362 91.4612 105.33 91.2596 105.322 91.0581C105.306 90.7678 105.322 90.4776 105.306 90.1873C105.282 89.8648 105.09 89.7842 104.826 89.9696C104.761 90.018 104.697 90.0825 104.625 90.0906C104.177 90.1712 104.169 90.1712 104.017 90.6308C103.937 90.4856 103.873 90.405 103.84 90.3002C103.712 89.8245 103.953 89.1633 104.369 88.9053C104.81 88.6393 104.874 87.8652 104.649 87.5024C104.393 87.0912 104.121 86.6962 103.873 86.285C103.664 85.9383 103.568 85.5916 103.704 85.1723C103.848 84.7208 103.6 84.3741 103.144 84.2532C102.423 84.0677 101.71 83.8742 100.957 83.6646C100.661 84.0919 100.341 84.5676 100.004 85.0352C99.1476 86.2205 98.0825 87.1154 96.6249 87.4621C96.4407 87.5024 96.2726 87.6476 96.1124 87.7524C95.8561 87.9217 95.6159 88.1313 95.2715 87.9943C95.2155 87.9701 95.0953 88.0346 95.0473 88.0991C93.0372 90.792 90.5065 92.8238 87.3432 93.9606C86.0138 94.4363 84.6444 94.783 83.267 95.0975C82.7865 95.2023 82.2419 95.0572 81.7374 94.9685C81.5291 94.9282 81.377 94.8879 81.1928 95.033C79.5831 96.2666 77.8133 96.5085 75.8912 95.9602C74.69 95.6216 73.4887 95.5571 72.2635 95.9118C71.8951 96.0166 71.4706 95.9199 71.0782 95.9199C70.3174 95.9118 69.5646 95.9038 68.8038 95.9038C68.7398 95.9038 68.6677 95.9199 68.6116 95.9521C67.6746 96.5165 66.6576 96.1618 65.6726 96.2021C64.5674 96.2505 63.7025 95.6458 62.9177 94.9282C62.6214 94.654 62.6614 94.267 63.0058 93.9042C63.0858 93.8155 63.1419 93.6785 63.1579 93.5575C63.214 93.1705 63.246 92.7754 63.2861 92.3804C63.3421 92.3723 63.3982 92.3642 63.4462 92.3562C63.5023 92.5255 63.5423 92.7109 63.6224 92.8722C63.7105 93.0415 63.8386 93.3237 63.9588 93.3318C64.191 93.3398 64.4953 93.2673 64.4953 92.8883C64.4953 92.7432 64.5914 92.5981 64.7436 92.4287C64.8237 92.6061 64.8957 92.7835 64.9758 92.977C65.3122 92.719 65.6726 92.4932 65.9609 92.1949C66.097 92.0498 66.089 91.7676 66.145 91.5499C66.2331 91.2274 66.2412 90.8646 66.6416 90.5904C66.6816 91.1629 66.7136 91.6708 66.7537 92.1707C66.8097 92.1869 66.8578 92.203 66.9139 92.211C67.034 91.9853 67.1461 91.7515 67.3063 91.4451C67.4104 91.695 67.4824 91.8724 67.5625 92.0578C67.7067 92.0578 67.8428 92.0578 67.979 92.0578C68.0671 91.7998 68.1471 91.558 68.2673 91.1871C68.3794 91.4128 68.4114 91.5499 68.4915 91.6386C68.5796 91.7353 68.7157 91.8482 68.8359 91.8482C69.0361 91.8563 69.1882 91.7515 69.1802 91.5015C69.1722 91.3403 69.2123 91.171 69.2283 90.9452C69.4525 91.0823 69.6047 91.179 69.7648 91.2838C69.8529 91.1226 69.941 90.9694 70.0451 90.7839C70.7659 91.1629 70.3334 90.405 70.4616 90.2518C70.7178 90.2679 70.918 90.2841 71.1102 90.2921C71.0302 90.1228 71.0462 89.9051 71.0622 89.6874ZM85.3572 73.2234C85.3251 73.2153 85.2931 73.2073 85.2691 73.1911C84.8046 73.5217 84.3401 73.8603 83.8276 74.2232C83.9397 74.5457 84.0278 74.9004 84.1959 75.2149C84.3801 75.5696 84.6364 75.8841 84.5003 76.3275C84.4762 76.4162 84.5323 76.5372 84.5563 76.642C84.8206 75.489 85.0849 74.3602 85.3572 73.2234Z" fill="#20113D"/>
<g filter="url(#filter1_d)">
<path d="M81.0001 29.335C54.6474 29.335 33.3257 49.2504 33.3257 73.7919C33.3257 98.3334 81.0001 168.665 81.0001 168.665C81.0001 168.665 128.675 98.3334 128.675 73.7919C128.675 49.2504 107.353 29.335 81.0001 29.335Z" stroke="white" stroke-width="6" stroke-miterlimit="10" stroke-linejoin="round"/>
</g>
</g>
<defs>
<filter id="filter0_d" x="0.325684" y="0.334961" width="161.349" height="205.33" filterUnits="userSpaceOnUse" color-interpolation-filters="sRGB">
<feFlood flood-opacity="0" result="BackgroundImageFix"/>
<feColorMatrix in="SourceAlpha" type="matrix" values="0 0 0 0 0 0 0 0 0 0 0 0 0 0 0 0 0 0 127 0"/>
<feOffset dy="4"/>
<feGaussianBlur stdDeviation="15"/>
<feColorMatrix type="matrix" values="0 0 0 0 0.960784 0 0 0 0 0.501961 0 0 0 0 0.129412 0 0 0 0.7 0"/>
<feBlend mode="normal" in2="BackgroundImageFix" result="effect1_dropShadow"/>
<feBlend mode="normal" in="SourceGraphic" in2="effect1_dropShadow" result="shape"/>
</filter>
<filter id="filter1_d" x="0.325684" y="0.334961" width="161.349" height="205.33" filterUnits="userSpaceOnUse" color-interpolation-filters="sRGB">
<feFlood flood-opacity="0" result="BackgroundImageFix"/>
<feColorMatrix in="SourceAlpha" type="matrix" values="0 0 0 0 0 0 0 0 0 0 0 0 0 0 0 0 0 0 127 0"/>
<feOffset dy="4"/>
<feGaussianBlur stdDeviation="15"/>
<feColorMatrix type="matrix" values="0 0 0 0 0 0 0 0 0 0 0 0 0 0 0 0 0 0 0.5 0"/>
<feBlend mode="normal" in2="BackgroundImageFix" result="effect1_dropShadow"/>
<feBlend mode="normal" in="SourceGraphic" in2="effect1_dropShadow" result="shape"/>
</filter>
</defs>
</svg>
