<svg width="65" height="61" viewBox="0 0 65 61" fill="none" xmlns="http://www.w3.org/2000/svg">
<path d="M0 5.06006C0 2.29863 2.23858 0.0600586 5 0.0600586H59.8649C62.6263 0.0600586 64.8649 2.29864 64.8649 5.06006V55.0601C64.8649 57.8215 62.6263 60.0601 59.8649 60.0601H5C2.23858 60.0601 0 57.8215 0 55.0601V5.06006Z" fill="white"/>
<path fill-rule="evenodd" clip-rule="evenodd" d="M33.5008 19.18C33.3187 19.2592 33.1532 19.3753 33.014 19.5216C32.8743 19.6676 32.7636 19.8409 32.688 20.0318C32.6124 20.2227 32.5735 20.4273 32.5735 20.634C32.5735 20.8406 32.6124 21.0452 32.688 21.2361C32.7636 21.427 32.8743 21.6003 33.014 21.7463L39.0417 28.0601H21.891C21.4667 28.0601 21.0597 28.2708 20.7596 28.6458C20.4596 29.0209 20.291 29.5296 20.291 30.0601C20.291 30.5905 20.4596 31.0992 20.7596 31.4743C21.0597 31.8493 21.4667 32.0601 21.891 32.0601H39.0424L33.014 38.3747C32.7324 38.6697 32.5743 39.0698 32.5743 39.487C32.5743 39.9042 32.7324 40.3043 33.014 40.5993C33.2955 40.8943 33.6773 41.0601 34.0755 41.0601C34.4736 41.0601 34.8555 40.8943 35.137 40.5993L44.133 31.1728C44.2726 31.0269 44.3834 30.8535 44.459 30.6626C44.5346 30.4717 44.5735 30.2671 44.5735 30.0605C44.5735 29.8538 44.5346 29.6492 44.459 29.4583C44.3834 29.2675 44.2726 29.0941 44.133 28.9481L35.137 19.5216C34.9977 19.3753 34.8323 19.2592 34.6501 19.18C34.468 19.1008 34.2727 19.0601 34.0755 19.0601C33.8783 19.0601 33.683 19.1008 33.5008 19.18Z" fill="#20113D"/>
<path d="M5 1.06006H59.8649V-0.939941H5V1.06006ZM63.8649 5.06006V55.0601H65.8649V5.06006H63.8649ZM59.8649 59.0601H5V61.0601H59.8649V59.0601ZM1 55.0601V5.06006H-1V55.0601H1ZM5 59.0601C2.79086 59.0601 1 57.2692 1 55.0601H-1C-1 58.3738 1.68629 61.0601 5 61.0601V59.0601ZM63.8649 55.0601C63.8649 57.2692 62.074 59.0601 59.8649 59.0601V61.0601C63.1786 61.0601 65.8649 58.3738 65.8649 55.0601H63.8649ZM59.8649 1.06006C62.074 1.06006 63.8649 2.85092 63.8649 5.06006H65.8649C65.8649 1.74635 63.1786 -0.939941 59.8649 -0.939941V1.06006ZM5 -0.939941C1.68629 -0.939941 -1 1.74635 -1 5.06006H1C1 2.85092 2.79086 1.06006 5 1.06006V-0.939941Z" fill="white"/>
</svg>
