<svg width="160" height="204" viewBox="0 0 160 204" fill="none" xmlns="http://www.w3.org/2000/svg">
<g filter="url(#filter0_d)">
<g filter="url(#filter1_d)">
<path d="M79.6123 34.562C57.3304 34.562 39.3022 51.8072 39.3022 73.0582C39.3022 94.3092 79.6123 155.211 79.6123 155.211C79.6123 155.211 119.922 94.3092 119.922 73.0582C119.922 51.8072 101.894 34.562 79.6123 34.562Z" fill="white"/>
</g>
<path d="M70.0228 94.5528C73.2844 93.7814 75.3465 91.6161 77.4355 89.3154C77.1525 89.2343 76.9368 89.1666 76.7212 89.1125C73.8505 88.3817 71.2088 87.1366 68.7828 85.445C67.2868 84.4029 66.0603 83.0902 65.1304 81.4933C65.0091 81.2903 64.9147 81.0738 64.8204 80.8573C64.7934 80.8031 64.7934 80.7355 64.7665 80.546C65.683 80.8302 66.5455 81.1009 67.3946 81.3715C67.4216 81.3445 67.4351 81.3309 67.462 81.3039C67.3677 81.2227 67.2868 81.1415 67.1925 81.0738C66.0873 80.3565 65.0091 79.6122 63.8904 78.9356C62.61 78.1507 61.2623 77.474 60.0223 76.662C58.3645 75.5658 57.192 74.0231 56.3429 72.2367C56.3025 72.1555 56.289 72.0743 56.2755 71.9931C56.262 71.9525 56.2755 71.8984 56.2755 71.7766C57.6502 72.372 58.9306 73.2111 60.521 73.0622C57.3942 71.2623 55.4534 68.7452 55.5881 64.9559C56.9224 66.431 58.2298 67.8926 59.5371 69.3541C59.5641 69.3271 59.6045 69.2865 59.6315 69.2594C59.0923 68.2038 58.4589 67.1753 58.0546 66.0656C57.6502 64.9559 57.3807 63.7514 57.2459 62.5741C57.1111 61.3967 57.2189 60.1922 57.2189 59.0013C57.2863 58.9878 57.3537 58.9878 57.4076 58.9743C58.0411 60.4088 58.6745 61.8433 59.308 63.2913C59.3754 63.2913 59.4428 63.2778 59.5102 63.2778C59.4832 60.6659 59.7662 58.1081 60.9657 55.7669C61.0197 55.7669 61.0736 55.7669 61.1275 55.7805C61.1275 56.3624 61.1544 56.9308 61.1275 57.5127C60.9792 60.3682 62.0709 62.8041 63.7017 65.0236C64.7934 66.4987 66.1412 67.7302 67.5968 68.8399C69.5106 70.3015 71.6536 71.3706 73.7965 72.4262C75.7912 73.4005 77.5433 74.7268 79.1876 76.2154C80.185 77.1221 81.2228 77.9747 82.2471 78.8544C82.5301 79.098 82.8131 79.3686 83.1366 79.6664C83.6622 78.4484 84.1474 77.3116 84.6326 76.1613C85.8052 73.4276 87.5708 71.127 89.7542 69.1376C91.4928 67.5542 93.2584 66.025 94.997 64.4552C97.3556 62.3169 98.8247 59.6644 99.2964 56.4977C99.4716 55.3745 99.3907 54.1971 99.4312 53.0603C99.4312 52.8708 99.4312 52.6678 99.4986 52.4648C100.348 54.4136 100.59 56.4706 100.792 58.6089C101.628 56.9037 102.45 55.1985 103.286 53.4798C103.353 53.4934 103.421 53.5069 103.474 53.5204C103.38 55.2662 103.367 57.012 103.164 58.7442C102.962 60.4629 102.571 62.1545 102.261 63.792C102.679 63.1425 103.164 62.3981 103.731 61.5455C103.771 63.2101 103.717 64.7123 103.016 66.1333C102.329 67.5407 101.224 68.5963 100.024 69.6383C100.685 69.7737 101.21 69.5436 101.722 69.2865C102.221 69.0429 102.679 68.7452 103.259 68.4068C103.205 68.664 103.178 68.8399 103.124 69.0023C102.396 70.9781 101.264 72.6833 99.5659 73.9419C98.5282 74.7268 97.423 75.417 96.3987 76.2019C95.7518 76.7026 95.2935 77.0139 95.2666 77.7041C95.6978 77.5552 96.1157 77.4199 96.6143 77.2575C95.7787 80.1265 93.5684 81.8858 91.641 83.9428C91.8297 84.024 91.978 84.0781 92.1262 84.1458C93.0832 84.5383 93.8918 85.1337 94.4444 86.0269C94.8622 86.69 94.9566 87.3938 94.7814 88.1651C94.7274 88.3952 94.8622 88.7065 95.0105 88.9095C95.4687 89.6132 95.5361 90.3304 95.1318 91.0612C94.7409 91.7785 94.094 92.1303 93.2449 92.1845C93.9188 90.9665 93.8918 90.6958 92.9753 90.0462C92.881 90.547 92.7867 91.0206 92.6923 91.5213C92.0858 91.0206 91.5602 90.4252 90.8998 90.0733C90.2259 89.7214 89.4307 89.6267 88.622 89.3966C88.6625 89.5726 88.6625 89.6808 88.7029 89.7756C89.2959 91.2777 89.8485 92.807 90.5224 94.2821C90.765 94.8234 91.2502 95.2835 91.695 95.6895C92.1128 96.0685 92.4093 95.9331 92.571 95.3783C92.6788 94.9858 92.7193 94.5798 92.7866 94.1874C92.854 93.8355 93.0427 93.6866 93.2853 93.7949C93.3392 94.1197 93.4066 94.3768 93.4201 94.634C93.4336 94.9046 93.4336 95.1888 93.3797 95.4459C93.3258 95.676 93.1775 95.8925 93.0697 96.1091C93.0966 96.1497 93.1371 96.1767 93.164 96.2173C93.5279 95.9737 93.9053 95.7301 94.2557 95.473C94.4309 95.3377 94.5657 95.1617 94.7274 95.0129C95.3609 94.431 95.6709 94.4716 96.1156 95.2429C95.873 95.2159 95.6574 95.1753 95.4283 95.1482C95.3878 96.1497 94.3366 96.1361 93.9053 96.8128C94.4175 96.7857 94.8757 96.7451 95.3339 96.7451C96.0348 96.7451 96.3178 97.0699 96.183 97.7872C95.9809 97.3 95.6439 97.3676 95.3205 97.503C94.6331 97.7872 93.9323 97.6924 93.2314 97.5977C92.4632 97.4894 91.7758 97.5977 91.1154 98.0578C90.6841 98.3691 90.2394 98.6668 89.6194 98.5315C89.4846 98.5044 89.242 98.951 89.0668 99.1675C88.7838 98.7886 88.7972 98.4232 89.269 98.1255C89.5655 97.936 89.9159 97.8413 90.2394 97.706C90.4415 97.6248 90.6572 97.5571 90.8324 97.4218C91.2232 97.124 91.2232 96.9346 90.8459 96.6369C89.9159 95.879 88.9859 95.1347 88.056 94.3768C87.9751 94.3092 87.8808 94.255 87.7999 94.2415C86.5734 94.1332 85.8995 93.3212 85.3874 92.3333C85.2796 92.1168 85.1987 91.8191 84.9022 92.0085C84.7404 92.1168 84.5652 92.4416 84.6192 92.604C84.9022 93.6731 85.5222 94.5122 86.4791 95.0535C86.8969 94.9858 86.9778 93.9573 87.5708 94.5798C87.5169 94.8099 87.4764 94.9452 87.4495 95.0805C87.6112 95.1076 87.7864 95.1753 87.9481 95.1617C88.2177 95.1617 88.4873 95.1076 88.7568 95.0805C88.7703 95.1347 88.7838 95.2023 88.7972 95.2565C88.6086 95.3512 88.4199 95.4459 88.1638 95.5813C89.4577 95.6489 89.4577 95.6489 89.5116 96.3391C89.0938 95.9331 88.6894 96.2579 88.2851 96.3121C87.3686 96.4203 86.7352 96.8534 86.3982 97.7601C86.2904 98.0443 85.9939 98.2473 85.7243 98.5586C85.7378 98.5992 85.7782 98.7345 85.8052 98.8833C85.2256 98.6803 85.0909 98.3962 85.3739 97.8819C85.5895 97.4894 85.8726 97.124 86.1287 96.7451C86.3578 96.4068 86.3578 96.1226 85.9265 95.9331C85.2256 95.6219 84.6326 95.1212 83.8105 95.04C83.5005 95.0129 83.2309 94.5934 82.921 94.3227C82.7727 94.5663 82.5705 94.8505 82.4088 95.1753C81.9371 96.1361 81.1419 96.718 80.1445 96.9887C77.0042 97.8548 74.0391 97.3676 71.2762 95.6489C70.818 95.3783 70.481 94.9587 70.0228 94.5528Z" fill="#20113D"/>
<g filter="url(#filter2_d)">
<path d="M80.0001 28.335C53.6474 28.335 32.3257 48.2504 32.3257 72.7919C32.3257 97.3334 80.0001 167.665 80.0001 167.665C80.0001 167.665 127.675 97.3334 127.675 72.7919C127.675 48.2504 106.353 28.335 80.0001 28.335Z" stroke="white" stroke-width="3" stroke-miterlimit="10" stroke-linejoin="round"/>
</g>
</g>
<defs>
<filter id="filter0_d" x="0" y="0" width="160" height="204" filterUnits="userSpaceOnUse" color-interpolation-filters="sRGB">
<feFlood flood-opacity="0" result="BackgroundImageFix"/>
<feColorMatrix in="SourceAlpha" type="matrix" values="0 0 0 0 0 0 0 0 0 0 0 0 0 0 0 0 0 0 127 0"/>
<feOffset dy="4"/>
<feGaussianBlur stdDeviation="15"/>
<feColorMatrix type="matrix" values="0 0 0 0 0.960784 0 0 0 0 0.501961 0 0 0 0 0.129412 0 0 0 0.7 0"/>
<feBlend mode="normal" in2="BackgroundImageFix" result="effect1_dropShadow"/>
<feBlend mode="normal" in="SourceGraphic" in2="effect1_dropShadow" result="shape"/>
</filter>
<filter id="filter1_d" x="9.30225" y="8.56201" width="140.62" height="180.649" filterUnits="userSpaceOnUse" color-interpolation-filters="sRGB">
<feFlood flood-opacity="0" result="BackgroundImageFix"/>
<feColorMatrix in="SourceAlpha" type="matrix" values="0 0 0 0 0 0 0 0 0 0 0 0 0 0 0 0 0 0 127 0"/>
<feOffset dy="4"/>
<feGaussianBlur stdDeviation="15"/>
<feColorMatrix type="matrix" values="0 0 0 0 1 0 0 0 0 1 0 0 0 0 1 0 0 0 0.5 0"/>
<feBlend mode="normal" in2="BackgroundImageFix" result="effect1_dropShadow"/>
<feBlend mode="normal" in="SourceGraphic" in2="effect1_dropShadow" result="shape"/>
</filter>
<filter id="filter2_d" x="0.825684" y="0.834961" width="158.349" height="202.33" filterUnits="userSpaceOnUse" color-interpolation-filters="sRGB">
<feFlood flood-opacity="0" result="BackgroundImageFix"/>
<feColorMatrix in="SourceAlpha" type="matrix" values="0 0 0 0 0 0 0 0 0 0 0 0 0 0 0 0 0 0 127 0"/>
<feOffset dy="4"/>
<feGaussianBlur stdDeviation="15"/>
<feColorMatrix type="matrix" values="0 0 0 0 0 0 0 0 0 0 0 0 0 0 0 0 0 0 0.5 0"/>
<feBlend mode="normal" in2="BackgroundImageFix" result="effect1_dropShadow"/>
<feBlend mode="normal" in="SourceGraphic" in2="effect1_dropShadow" result="shape"/>
</filter>
</defs>
</svg>
