<svg width="127" height="127" viewBox="0 0 127 127" fill="none" xmlns="http://www.w3.org/2000/svg">
<g filter="url(#filter0_d)">
<circle cx="63.6665" cy="63.501" r="52" fill="#F58021"/>
</g>
<path d="M50.5244 87.0732C54.8589 86.0822 57.5993 83.3004 60.3755 80.3447C59.9993 80.2404 59.7128 80.1535 59.4262 80.084C55.6111 79.1451 52.1006 77.5456 48.8766 75.3723C46.8885 74.0335 45.2586 72.3471 44.0227 70.2955C43.8615 70.0347 43.7362 69.7565 43.6108 69.4783C43.575 69.4088 43.575 69.3219 43.5391 69.0785C44.7571 69.4436 45.9034 69.7913 47.0318 70.139C47.0676 70.1042 47.0855 70.0869 47.1213 70.0521C46.996 69.9478 46.8885 69.8434 46.7631 69.7565C45.2944 68.835 43.8615 67.8788 42.3749 67.0095C40.6734 66.0011 38.8823 65.1318 37.2345 64.0886C35.0314 62.6803 33.4732 60.6983 32.3448 58.4033C32.2911 58.299 32.2731 58.1946 32.2552 58.0903C32.2373 58.0382 32.2552 57.9686 32.2552 57.8122C34.0821 58.5771 35.7837 59.6551 37.8972 59.4638C33.7418 57.1515 31.1627 53.9176 31.3418 49.0495C33.115 50.9446 34.8523 52.8223 36.5897 54.7C36.6255 54.6652 36.6792 54.6131 36.7151 54.5783C35.9986 53.2222 35.1568 51.9008 34.6195 50.4751C34.0822 49.0495 33.7239 47.5021 33.5448 45.9895C33.3657 44.4769 33.509 42.9295 33.509 41.3995C33.5986 41.3821 33.6881 41.3821 33.7598 41.3647C34.6016 43.2077 35.4434 45.0506 36.2852 46.911C36.3748 46.911 36.4643 46.8936 36.5539 46.8936C36.518 43.538 36.8942 40.252 38.4882 37.2442C38.5599 37.2442 38.6315 37.2442 38.7032 37.2616C38.7032 38.0092 38.739 38.7394 38.7032 39.487C38.5062 43.1555 39.9569 46.2851 42.1242 49.1364C43.575 51.0315 45.3661 52.6137 47.3004 54.0393C49.8438 55.9171 52.6917 57.2906 55.5395 58.6467C58.1903 59.8985 60.5187 61.6024 62.7039 63.5148C64.0293 64.6797 65.4084 65.7751 66.7697 66.9052C67.1458 67.2181 67.5219 67.5658 67.9518 67.9483C68.6503 66.3836 69.2951 64.9231 69.9399 63.4453C71.4982 59.9333 73.8445 56.9776 76.7461 54.4218C79.0566 52.3876 81.4029 50.423 83.7135 48.4062C86.8479 45.6592 88.8002 42.2514 89.4271 38.1831C89.6599 36.74 89.5524 35.2274 89.6062 33.7669C89.6062 33.5235 89.6062 33.2627 89.6957 33.002C90.8241 35.5056 91.1465 38.1483 91.4152 40.8953C92.5257 38.7046 93.6182 36.514 94.7287 34.3059C94.8183 34.3233 94.9078 34.3407 94.9795 34.3581C94.8541 36.6009 94.8362 38.8437 94.5675 41.0692C94.2988 43.2772 93.7794 45.4505 93.3675 47.5543C93.9227 46.7197 94.5675 45.7635 95.3198 44.6681C95.3735 46.8066 95.3019 48.7365 94.3705 50.5621C93.457 52.3703 91.9883 53.7264 90.3943 55.0651C91.2719 55.239 91.9704 54.9434 92.651 54.6131C93.3137 54.3001 93.9227 53.9176 94.6929 53.483C94.6212 53.8133 94.5854 54.0393 94.5138 54.248C93.5466 56.7864 92.0421 58.977 89.7853 60.594C88.4061 61.6024 86.9374 62.4891 85.5762 63.4975C84.7165 64.1408 84.1075 64.5406 84.0717 65.4273C84.6448 65.2361 85.2001 65.0622 85.8628 64.8536C84.7523 68.5395 81.8149 70.7997 79.2536 73.4424C79.5044 73.5467 79.7014 73.6163 79.8984 73.7032C81.1701 74.2074 82.2448 74.9724 82.9791 76.1199C83.5344 76.9718 83.6597 77.8759 83.4269 78.8669C83.3552 79.1625 83.5343 79.5624 83.7314 79.8232C84.3403 80.7272 84.4299 81.6487 83.8926 82.5876C83.3732 83.509 82.5134 83.9611 81.385 84.0306C82.2806 82.4659 82.2448 82.1181 81.0268 81.2836C80.9014 81.9269 80.7761 82.5354 80.6507 83.1787C79.8447 82.5354 79.1462 81.7704 78.2685 81.3184C77.373 80.8663 76.3162 80.7446 75.2416 80.4491C75.2953 80.6751 75.2953 80.8142 75.349 80.9359C76.1371 82.8658 76.8715 84.8304 77.767 86.7255C78.0894 87.421 78.7342 88.0121 79.3253 88.5337C79.8805 89.0205 80.2746 88.8466 80.4895 88.1338C80.6328 87.6296 80.6865 87.108 80.7761 86.6038C80.8656 86.1518 81.1164 85.9605 81.4388 86.0996C81.5104 86.5169 81.6 86.8472 81.6179 87.1776C81.6358 87.5253 81.6358 87.8904 81.5641 88.2207C81.4925 88.5163 81.2955 88.7945 81.1522 89.0727C81.188 89.1248 81.2417 89.1596 81.2776 89.2118C81.7612 88.8988 82.2627 88.5858 82.7284 88.2555C82.9612 88.0816 83.1403 87.8556 83.3552 87.6644C84.1971 86.9168 84.609 86.9689 85.2001 87.9599C84.8777 87.9252 84.5911 87.873 84.2866 87.8382C84.2329 89.1248 82.8358 89.1074 82.2627 89.9767C82.9433 89.942 83.5523 89.8898 84.1612 89.8898C85.0926 89.8898 85.4687 90.3071 85.2896 91.2286C85.021 90.6026 84.5732 90.6896 84.1433 90.8634C83.2299 91.2286 82.2985 91.1068 81.3671 90.9851C80.3462 90.8461 79.4327 90.9851 78.5551 91.5763C77.9819 91.9762 77.3909 92.3587 76.567 92.1848C76.3879 92.15 76.0655 92.7238 75.8326 93.002C75.4565 92.5151 75.4744 92.0457 76.1013 91.6632C76.4953 91.4198 76.961 91.2981 77.3909 91.1242C77.6595 91.0199 77.9461 90.933 78.179 90.7591C78.6984 90.3766 78.6984 90.1332 78.1969 89.7507C76.961 88.7771 75.7252 87.8208 74.4893 86.8472C74.3818 86.7603 74.2565 86.6907 74.149 86.6734C72.5191 86.5343 71.6236 85.4911 70.9429 84.2219C70.7996 83.9437 70.6922 83.5612 70.2981 83.8046C70.0832 83.9437 69.8504 84.361 69.922 84.5696C70.2981 85.9431 71.122 87.0211 72.3937 87.7165C72.949 87.6296 73.0564 86.3082 73.8445 87.108C73.7729 87.4036 73.7191 87.5774 73.6833 87.7513C73.8982 87.7861 74.1311 87.873 74.346 87.8556C74.7042 87.8556 75.0625 87.7861 75.4207 87.7513C75.4386 87.8208 75.4565 87.9078 75.4744 87.9773C75.2237 88.099 74.9729 88.2207 74.6326 88.3946C76.3521 88.4815 76.3521 88.4815 76.4237 89.3682C75.8685 88.8466 75.3311 89.2639 74.7938 89.3334C73.5758 89.4725 72.734 90.0289 72.2863 91.1938C72.143 91.5589 71.7489 91.8197 71.3907 92.2196C71.4086 92.2717 71.4624 92.4456 71.4982 92.6368C70.728 92.376 70.5489 92.0109 70.925 91.3503C71.2116 90.8461 71.5877 90.3766 71.928 89.8898C72.2325 89.4552 72.2325 89.09 71.6594 88.8466C70.728 88.4468 69.9399 87.8035 68.8474 87.6991C68.4354 87.6644 68.0772 87.1254 67.6652 86.7777C67.4682 87.0906 67.1995 87.4557 66.9846 87.873C66.3577 89.1074 65.301 89.855 63.9756 90.2028C59.8023 91.3155 55.8619 90.6896 52.1901 88.4815C51.5812 88.1338 51.1334 87.5948 50.5244 87.0732Z" fill="#20113D"/>
<defs>
<filter id="filter0_d" x="7.6665" y="11.501" width="112" height="112" filterUnits="userSpaceOnUse" color-interpolation-filters="sRGB">
<feFlood flood-opacity="0" result="BackgroundImageFix"/>
<feColorMatrix in="SourceAlpha" type="matrix" values="0 0 0 0 0 0 0 0 0 0 0 0 0 0 0 0 0 0 127 0"/>
<feOffset dy="4"/>
<feGaussianBlur stdDeviation="2"/>
<feColorMatrix type="matrix" values="0 0 0 0 0 0 0 0 0 0 0 0 0 0 0 0 0 0 0.25 0"/>
<feBlend mode="normal" in2="BackgroundImageFix" result="effect1_dropShadow"/>
<feBlend mode="normal" in="SourceGraphic" in2="effect1_dropShadow" result="shape"/>
</filter>
</defs>
</svg>
