<svg width="127" height="127" viewBox="0 0 127 127" fill="none" xmlns="http://www.w3.org/2000/svg">
<g filter="url(#filter0_d)">
<circle cx="63.6665" cy="58.501" r="52" fill="#F58021"/>
</g>
<path fill-rule="evenodd" clip-rule="evenodd" d="M76.8643 53.4523C77.4883 54.7865 78.1122 56.1207 78.7589 57.5139C78.5956 57.6478 78.4301 57.786 78.2621 57.9264L78.2613 57.927L78.2612 57.9271C77.8813 58.2446 77.4887 58.5726 77.0798 58.8835C76.6255 59.2271 76.175 59.5755 75.7247 59.9237L75.7241 59.9243L75.724 59.9243C74.6115 60.7847 73.5004 61.6441 72.3376 62.4256C68.1512 65.2475 63.5337 66.3927 58.5645 65.9441C57.3506 65.8378 56.0686 65.401 55.5581 65.0349C55.8529 62.9109 56.1363 60.8459 56.4198 58.7809L56.4203 58.7773C56.3863 58.7655 56.3494 58.7566 56.3125 58.7477C56.2756 58.7389 56.2388 58.73 56.2047 58.7182C56.0943 58.9515 55.9847 59.1848 55.8753 59.4178L55.875 59.4186C55.6025 59.9991 55.3308 60.5778 55.0475 61.1505C54.3118 62.6634 53.8185 64.27 53.324 65.8802C53.1857 66.3308 53.0472 66.7818 52.9033 67.231C51.9957 70.0293 50.3733 72.1781 47.6165 73.2289C47.4803 73.288 47.3669 73.5241 47.3101 73.7012C47.199 74.0683 47.1002 74.4397 47.0015 74.8108L47.0014 74.811C46.8684 75.3112 46.7355 75.8108 46.5727 76.2987C45.9487 78.1879 44.7802 79.6519 43.2032 80.7736C42.4998 81.2695 41.7964 81.7772 41.127 82.3203C40.5484 82.7808 40.5711 82.9815 41.1384 83.4419C41.2493 83.5321 41.3609 83.6208 41.4722 83.7094L41.4723 83.7094L41.4723 83.7095C41.8277 83.9921 42.1802 84.2726 42.4998 84.5872C43.0217 85.1067 43.2599 85.7679 43.067 86.5236C43.0217 86.7007 42.7607 86.9368 42.6019 86.9368C38.8807 86.9604 35.1481 86.9604 31.4269 86.9486C31.2908 86.9486 31.0979 86.9014 31.0185 86.8069C30.9046 86.6626 30.7879 86.5188 30.6709 86.3746L30.6707 86.3743L30.6707 86.3743C30.2519 85.858 29.8288 85.3364 29.5096 84.7643C29.3054 84.3983 29.2827 83.7843 29.4188 83.3711C30.7349 79.2033 32.4253 75.2479 35.6133 72.2136C35.7494 72.0837 35.8288 71.8003 35.8402 71.5996C35.9196 68.6006 36.2599 65.6253 36.9974 62.7326C37.6327 60.2295 38.3134 57.7264 39.516 55.4241C41.7283 51.2208 44.5873 47.7142 48.9779 45.8251C52.7558 44.2075 56.443 44.4555 60.0394 46.3682C60.5331 46.6331 60.9797 46.9963 61.4146 47.3502C61.6193 47.5167 61.8215 47.6811 62.0248 47.8322C61.6164 46.9113 60.9016 46.1557 60.1302 45.459C60.8566 45.1714 61.5858 44.8931 62.3137 44.6152L62.3139 44.6152C65.5304 43.3873 68.7217 42.1691 71.5434 40.205C71.6676 40.6549 71.7897 41.1093 71.9124 41.5663L71.9124 41.5664C72.0699 42.1527 72.2285 42.7433 72.3943 43.3338C72.4397 43.4755 72.5304 43.6054 72.6439 43.7234C72.417 42.2594 72.417 40.7953 72.9502 39.4493C73.4494 38.1742 74.0507 36.8872 74.8221 35.7774C76.7168 33.0854 78.9972 30.7476 81.5385 28.705L81.5385 28.705L81.5385 28.705C81.6406 28.6223 81.7427 28.5397 81.8561 28.4571C82.0383 28.336 82.2189 28.2071 82.3998 28.0778C83.2779 27.4507 84.1649 26.8171 85.2937 27.052C87.1543 27.4299 88.7086 28.4453 89.7751 30.11C90.0814 30.5823 90.4331 30.9129 90.9209 31.09C92.1916 31.5505 93.1446 32.3416 93.7572 33.6285C93.9793 34.0987 94.2996 34.5151 94.6204 34.9322C94.7749 35.133 94.9295 35.334 95.0733 35.5412C95.3682 35.9663 95.425 36.3205 95.0959 36.8164C94.8237 37.2296 94.6875 37.7845 94.6081 38.2922C94.506 38.8944 94.7329 39.284 95.3455 39.6146C96.9452 40.4647 97.8755 42.3656 96.9906 44.2902C96.8431 44.6089 96.707 44.9277 96.5822 45.2583C95.9922 46.8405 94.869 47.3954 93.3261 46.8405C93.3006 46.8316 93.2743 46.8227 93.2481 46.8139L93.248 46.8139C93.1693 46.7873 93.0907 46.7608 93.0311 46.7342C92.7475 47.1474 92.4639 47.5489 92.1575 47.9739C92.114 47.9186 92.0767 47.8782 92.0482 47.8474C92.0098 47.8059 91.9874 47.7817 91.9874 47.7614C92.0781 46.746 91.4882 46.1439 90.8302 45.5299C87.7556 42.649 83.989 43.1685 81.4137 44.8333C81.7032 44.7722 81.9901 44.7055 82.2761 44.639L82.2761 44.639C82.8194 44.5127 83.3596 44.3871 83.9096 44.302C87.177 43.8297 90.0133 45.3528 91.5222 48.399C92.566 50.5006 93.3034 52.6967 93.1219 55.1289L93.1199 55.1574V55.1575C93.0865 55.6338 93.05 56.1527 92.861 56.5694C92.2029 58.0334 92.4071 59.5093 92.7702 60.9615L92.8371 61.2321C93.1778 62.612 93.5275 64.0285 94.177 65.2475C96.6843 69.9348 96.8885 75 96.707 80.136C96.6275 82.3439 95.9468 84.3038 94.1997 85.7325C93.224 86.5354 92.1802 87.0903 90.8755 86.984C90.2743 86.9368 89.6616 86.925 89.0603 86.984C87.9258 87.1139 87.143 86.5236 86.4736 85.6971C85.7475 84.8115 85.4185 83.7843 85.6227 82.6273C85.6795 82.3203 85.895 81.9425 86.1446 81.8008C86.4581 81.6274 86.687 81.868 86.919 82.1117C86.9557 82.1502 86.9924 82.1888 87.0295 82.2258C87.3792 82.578 87.841 82.8368 88.2812 83.0834L88.2812 83.0835L88.2889 83.0877C88.6746 83.3003 88.8788 83.1231 88.9242 82.6745C88.9696 82.1432 88.8107 81.6945 88.425 81.3521C86.2581 79.4276 84.8966 76.9127 83.6714 74.3034C82.7297 72.2844 82.1284 70.171 81.9129 67.9276C81.754 66.2392 82.0377 64.5981 82.344 62.9569C82.4915 62.2131 82.639 61.4574 82.6843 60.69C82.7864 59.1669 82.2759 57.8799 81.0166 57.0653C79.4623 56.0617 78.0782 54.8574 76.9664 53.3461C76.9777 53.3815 76.921 53.4169 76.8643 53.4523ZM80.1878 58.8147C80.8458 59.3696 81.084 60.0072 80.9479 60.7983C80.864 61.3097 80.7716 61.8197 80.6793 62.3297L80.6791 62.3304L80.6791 62.3305C80.5093 63.2685 80.3394 64.2068 80.2218 65.155C79.8361 68.3547 80.5508 71.3773 81.742 74.2936C81.9576 74.8249 81.9803 75.2499 81.7534 75.7813C80.721 78.2135 79.5978 80.5867 78.1456 82.7946C76.2623 85.6518 73.6303 86.9742 70.3402 86.9742C70.1457 86.9742 69.9524 86.9774 69.7594 86.9806H69.7593C69.3104 86.9881 68.8637 86.9954 68.4115 86.9624C68.1846 86.9506 67.9009 86.7971 67.7762 86.6082C66.7211 85.1205 66.9026 82.0389 68.1165 80.6811C68.2526 80.5276 68.559 80.386 68.7291 80.445C68.8585 80.4931 68.9502 80.6978 69.035 80.8869C69.0543 80.93 69.0732 80.9723 69.0922 81.0117C69.139 81.1091 69.173 81.2165 69.2069 81.3233C69.2633 81.5012 69.3191 81.6773 69.4325 81.8028C69.6368 82.0507 69.9885 82.4049 70.2154 82.3577C70.4536 82.3105 70.6919 81.8736 70.794 81.5667C70.8961 81.2715 70.862 80.9055 70.8053 80.5985C70.7231 80.1662 70.6199 79.7371 70.517 79.3088L70.517 79.3087C70.336 78.5555 70.1557 77.8048 70.0906 77.0446C69.7842 73.6324 70.0792 70.2792 71.4974 67.1268C71.8264 66.4066 72.2008 65.6745 72.6886 65.0606C73.1991 64.3994 73.8345 63.8208 74.4811 63.3013C75.1447 62.7587 75.8285 62.2455 76.5132 61.7317L76.5133 61.7316L76.5136 61.7314C76.976 61.3844 77.4388 61.0371 77.896 60.6802C78.4061 60.2761 78.9111 59.8614 79.4246 59.4396C79.6764 59.2329 79.9302 59.0244 80.1878 58.8147ZM55.804 67.2069C55.5127 67.1172 55.22 67.0271 54.9218 66.9358C54.8208 67.1637 54.7228 67.3948 54.6245 67.6268C54.458 68.0198 54.2905 68.4152 54.105 68.8013C52.9818 71.1627 51.5069 73.2171 49.2266 74.5395C49.045 74.6457 48.9202 74.9173 48.8522 75.1416C48.3076 77.0425 47.6269 78.8608 46.3676 80.3957C46.2768 80.5138 46.1974 80.7263 46.2314 80.8562C46.6285 82.1667 47.0369 83.4773 47.4794 84.7643C47.5588 84.9886 47.7971 85.2011 48.0126 85.331C48.8181 85.8033 49.6236 86.2637 50.4518 86.7006C50.7241 86.8423 51.0418 86.9721 51.3368 86.9721C53.7358 86.9899 56.1284 86.9876 58.5242 86.9854C59.3235 86.9847 60.1231 86.984 60.9234 86.984H61.6268C61.5505 86.8212 61.4883 86.6624 61.4295 86.5121C61.3133 86.2155 61.2101 85.952 61.0369 85.756C60.6057 85.272 60.1179 84.8115 59.596 84.4455C59.1059 84.1023 58.5739 83.8175 58.0438 83.5337C57.8989 83.4562 57.7543 83.3787 57.6106 83.3002C57.0434 82.9814 56.7938 82.5091 56.8392 81.8479C56.8467 81.6905 56.8644 81.5331 56.882 81.3757C56.8908 81.297 56.8997 81.2182 56.9072 81.1395C56.9419 80.7821 56.9851 80.4235 57.0283 80.0645C57.1265 79.2496 57.2249 78.4325 57.2249 77.6211C57.2249 75.9327 56.4988 74.4804 55.4664 73.2053C57.2589 71.8121 57.6106 69.8403 57.7808 67.8095C57.0989 67.6056 56.455 67.4073 55.804 67.2069Z" fill="#20113D"/>
<defs>
<filter id="filter0_d" x="7.6665" y="6.50098" width="112" height="112" filterUnits="userSpaceOnUse" color-interpolation-filters="sRGB">
<feFlood flood-opacity="0" result="BackgroundImageFix"/>
<feColorMatrix in="SourceAlpha" type="matrix" values="0 0 0 0 0 0 0 0 0 0 0 0 0 0 0 0 0 0 127 0"/>
<feOffset dy="4"/>
<feGaussianBlur stdDeviation="2"/>
<feColorMatrix type="matrix" values="0 0 0 0 0 0 0 0 0 0 0 0 0 0 0 0 0 0 0.25 0"/>
<feBlend mode="normal" in2="BackgroundImageFix" result="effect1_dropShadow"/>
<feBlend mode="normal" in="SourceGraphic" in2="effect1_dropShadow" result="shape"/>
</filter>
</defs>
</svg>
