<svg width="162" height="206" viewBox="0 0 162 206" fill="none" xmlns="http://www.w3.org/2000/svg">
<g filter="url(#filter0_d)">
<path d="M80.6123 35.562C58.3304 35.562 40.3022 52.8072 40.3022 74.0582C40.3022 95.3092 80.6123 156.211 80.6123 156.211C80.6123 156.211 120.922 95.3092 120.922 74.0582C120.922 52.8072 102.894 35.562 80.6123 35.562Z" fill="white"/>
<path fill-rule="evenodd" clip-rule="evenodd" d="M89.0579 71.3932C90.3131 69.8611 91.0329 68.1684 91.0637 66.2038C91.0679 65.99 91.2193 65.7792 91.37 65.5692L91.3701 65.5691C91.4415 65.4696 91.5128 65.3702 91.5682 65.2709C91.8614 64.7387 92.1736 64.2134 92.4859 63.6878C93.196 62.4929 93.907 61.2964 94.3984 60.0135C95.469 57.2149 94.823 55.4975 92.4973 53.712C92.6449 51.8401 93.3833 50.5551 95.4382 50.1845C96.4108 50.0104 97.3543 49.6729 98.3847 49.3043C98.8534 49.1366 99.3402 48.9625 99.8558 48.7944C98.3115 53.4711 96.8472 57.9007 95.3152 62.5341L95.6729 62.4575L95.675 62.457C97.6684 62.0302 99.4922 61.6396 101.332 61.2491C101.8 62.0831 101.437 62.5217 100.729 62.9233L100.307 63.1613L100.307 63.1613C98.4963 64.1814 96.6805 65.2043 94.9337 66.3335C94.3492 66.7104 93.8447 67.3899 93.5801 68.0386C93.1455 69.1144 92.7922 70.2234 92.4296 71.3615L92.4294 71.3621C92.2736 71.8511 92.1161 72.3456 91.9497 72.845L89.0579 71.3932ZM94.4045 71.1469C96.2072 72.4937 96.964 75.3911 96.1396 77.6028C95.4197 79.5241 93.7523 80.4385 91.2667 80.1543C90.5518 80.0712 89.8484 79.9118 89.1453 79.7525L89.1453 79.7525L89.1452 79.7525L89.1452 79.7525C88.6986 79.6513 88.2521 79.5501 87.8027 79.4685C85.2433 78.9928 83.0529 79.3512 81.564 80.5003C81.9085 80.5435 82.2039 80.5806 82.653 80.6362C82.2684 81.3631 82.0728 82.1509 81.8832 82.9144C81.6087 84.0196 81.3468 85.074 80.5426 85.8194C81.001 86.1412 81.4904 86.4579 81.9911 86.7819C83.1435 87.5277 84.3553 88.3119 85.3848 89.2852C87.7781 91.5463 87.6305 94.9257 85.2802 97.4277C84.5751 97.178 83.8689 96.9283 83.162 96.6783L83.1602 96.6776C80.4749 95.728 77.7781 94.7743 75.0853 93.8013C74.6387 93.639 74.2127 93.4177 73.787 93.1965C73.5968 93.0977 73.4067 92.999 73.2149 92.9055C70.4277 91.5649 68.9819 89.3161 68.7358 86.2457C68.422 82.3598 69.1787 78.616 70.0709 74.9092C70.1317 74.8975 70.1818 74.8822 70.2236 74.8694C70.2919 74.8486 70.338 74.8345 70.3723 74.8536C76.4142 77.9797 81.9762 76.5649 87.2367 72.9447C88.1288 72.3331 88.8056 72.3022 89.6608 72.7532C90.1654 73.0188 90.676 73.2721 91.1929 73.5069C92.6756 74.1802 93.3463 73.9146 93.9431 72.4072C94.0422 72.1545 94.1342 71.8971 94.228 71.635L94.2282 71.6343C94.2857 71.4736 94.3438 71.3112 94.4045 71.1469ZM88.1993 84.3123C88.5946 83.1093 89.0061 81.8574 89.4457 80.5172C88.9879 80.5024 88.5442 80.4866 88.1111 80.4711L88.1101 80.4711L88.1093 80.471C86.733 80.4219 85.464 80.3766 84.1914 80.3813C83.9207 80.3813 83.5085 80.7149 83.41 80.9867C83.0102 82.1136 82.6506 83.2539 82.304 84.353C82.1813 84.7422 82.0602 85.1263 81.9395 85.5028L83.1533 86.3928L83.1537 86.3931C84.331 87.2566 85.477 88.0971 86.6709 88.9686C87.1702 87.4432 87.6696 85.924 88.1976 84.3174L88.1982 84.3154L88.1993 84.3123ZM75.9038 102.708C76.6791 100.398 77.3989 98.2542 78.1619 95.9869C80.063 96.5862 81.8596 97.1545 83.7792 97.7662C83.6753 98.0883 83.5737 98.4053 83.4735 98.7181C83.0934 99.9051 82.7326 101.032 82.3333 102.146C82.2472 102.381 81.8965 102.678 81.6627 102.684C80.2451 102.717 78.8203 102.714 77.3138 102.71C76.8522 102.709 76.3829 102.708 75.9038 102.708ZM67.4476 63.4518L67.4477 63.4519C68.011 64.3225 68.5581 65.1681 68.9512 66.0807C69.6772 67.7796 69.991 69.6947 68.5636 71.1527C67.0993 72.6416 65.2781 71.9806 63.6538 71.2639C62.7001 70.8438 61.7649 70.2693 60.9774 69.5835C57.9811 66.9579 58.2764 62.9485 61.605 60.7491C63.7953 59.3035 66.201 59.0811 68.6251 59.9522C69.6772 60.329 70.2679 60.051 71.0923 59.4271C72.4767 58.383 73.9656 57.3884 75.553 56.715C78.457 55.4794 81.2934 55.8562 83.8775 57.7467C84.4497 58.1668 85.028 58.5745 85.7663 58.7969C85.2618 58.1853 84.7573 57.5799 84.1851 56.8941C86.117 55.1272 88.2397 54.0894 90.8546 54.528C92.7065 54.8369 93.7032 56.0848 93.6602 57.9629C93.611 60.2302 92.4789 62.0465 91.2422 63.8628C88.8488 61.4905 88.1536 58.7042 89.3595 56.6099C88.1905 56.8571 87.5875 57.5799 87.8398 58.8711C88.0859 60.1375 88.492 61.4102 89.0457 62.5716C90.6085 65.8644 90.1224 69.1078 87.323 71.4246C83.5268 74.5753 79.1277 75.4587 74.3655 74.2479C73.4488 74.0131 72.5751 73.4756 71.7814 72.9258C70.8401 72.2771 70.4032 71.4307 70.5509 70.1148C70.6986 68.7372 70.5017 67.2545 70.151 65.8953C69.6834 64.1161 68.4282 62.9114 66.6809 62.238C66.9312 62.6536 67.1911 63.0553 67.4476 63.4518ZM84.7312 71.9807C84.7441 71.9248 84.7555 71.868 84.7657 71.8107C84.8164 71.5237 84.8359 71.221 84.8549 70.9263L84.8549 70.926C84.8628 70.8039 84.8706 70.6831 84.8805 70.5654C84.8128 68.7552 84.296 67.1428 82.9547 65.9196C81.7734 64.8446 80.6105 65.1968 80.2291 66.7474L80.2153 66.8048C80.194 66.8957 80.1747 66.9864 80.1576 67.0767C79.8476 68.7142 80.2355 70.2515 81.1642 71.6531L81.1952 71.6999C81.3027 71.8619 81.4131 72.0283 81.5292 72.1897C82.0274 72.8834 82.6306 73.4862 83.5613 73.2469C83.5905 73.2395 83.62 73.2314 83.6498 73.2223C84.3238 73.0173 84.6023 72.5399 84.7312 71.9807ZM78.0895 66.8507L78.0895 66.8507C77.8078 66.5898 77.5919 66.39 77.4295 66.4266C77.1803 66.4827 76.9761 66.7317 76.7708 66.982C76.6821 67.09 76.5933 67.1984 76.5005 67.2915C76.5909 67.3748 76.6796 67.476 76.7684 67.5772C76.9694 67.8066 77.1707 68.0362 77.3926 68.0576C77.5884 68.0781 77.8058 67.8977 78.0896 67.6621L78.0896 67.6621C78.234 67.5423 78.3955 67.4083 78.5801 67.2792C78.3979 67.1362 78.2349 66.9853 78.0895 66.8507ZM86.64 64.8698L86.6397 64.8696L86.6401 64.8693C86.419 64.7319 86.2354 64.5995 86.0766 64.4851L86.0766 64.485C85.7716 64.2651 85.5585 64.1115 85.3481 64.1156C85.3427 64.1157 85.3372 64.116 85.3316 64.1165C85.0588 64.1345 84.5732 64.6188 84.6097 64.8018C84.6773 65.1293 85.0465 65.5741 85.348 65.6297C85.3759 65.6344 85.4044 65.635 85.4337 65.6318C85.5677 65.6187 85.7206 65.5227 85.9119 65.3842C85.9619 65.3482 86.0145 65.3092 86.07 65.268C86.2321 65.1479 86.4192 65.0092 86.64 64.8698Z" fill="#20113D"/>
<g filter="url(#filter1_d)">
<path d="M81.0001 29.335C54.6474 29.335 33.3257 49.2504 33.3257 73.7919C33.3257 98.3334 81.0001 168.665 81.0001 168.665C81.0001 168.665 128.675 98.3334 128.675 73.7919C128.675 49.2504 107.353 29.335 81.0001 29.335Z" stroke="white" stroke-width="6" stroke-miterlimit="10" stroke-linejoin="round"/>
</g>
</g>
<defs>
<filter id="filter0_d" x="0.325684" y="0.334961" width="161.349" height="205.33" filterUnits="userSpaceOnUse" color-interpolation-filters="sRGB">
<feFlood flood-opacity="0" result="BackgroundImageFix"/>
<feColorMatrix in="SourceAlpha" type="matrix" values="0 0 0 0 0 0 0 0 0 0 0 0 0 0 0 0 0 0 127 0"/>
<feOffset dy="4"/>
<feGaussianBlur stdDeviation="15"/>
<feColorMatrix type="matrix" values="0 0 0 0 0.960784 0 0 0 0 0.501961 0 0 0 0 0.129412 0 0 0 0.7 0"/>
<feBlend mode="normal" in2="BackgroundImageFix" result="effect1_dropShadow"/>
<feBlend mode="normal" in="SourceGraphic" in2="effect1_dropShadow" result="shape"/>
</filter>
<filter id="filter1_d" x="0.325684" y="0.334961" width="161.349" height="205.33" filterUnits="userSpaceOnUse" color-interpolation-filters="sRGB">
<feFlood flood-opacity="0" result="BackgroundImageFix"/>
<feColorMatrix in="SourceAlpha" type="matrix" values="0 0 0 0 0 0 0 0 0 0 0 0 0 0 0 0 0 0 127 0"/>
<feOffset dy="4"/>
<feGaussianBlur stdDeviation="15"/>
<feColorMatrix type="matrix" values="0 0 0 0 0 0 0 0 0 0 0 0 0 0 0 0 0 0 0.5 0"/>
<feBlend mode="normal" in2="BackgroundImageFix" result="effect1_dropShadow"/>
<feBlend mode="normal" in="SourceGraphic" in2="effect1_dropShadow" result="shape"/>
</filter>
</defs>
</svg>
