<svg width="162" height="206" viewBox="0 0 162 206" fill="none" xmlns="http://www.w3.org/2000/svg">
<g filter="url(#filter0_d)">
<path d="M80.6123 35.562C58.3304 35.562 40.3022 52.8072 40.3022 74.0582C40.3022 95.3092 80.6123 156.211 80.6123 156.211C80.6123 156.211 120.922 95.3092 120.922 74.0582C120.922 52.8072 102.894 35.562 80.6123 35.562Z" fill="white"/>
<path fill-rule="evenodd" clip-rule="evenodd" d="M79.9437 51.008C80.8064 50.9589 81.6291 51.1392 82.4758 51.4424C82.4478 51.5237 82.4219 51.6035 82.3964 51.682L82.3964 51.6821C82.3346 51.8726 82.2754 52.0549 82.1962 52.229C81.9527 52.7657 81.7051 53.3023 81.4576 53.8389L81.4574 53.8393C81.2098 54.3761 80.9621 54.9128 80.7185 55.4496L80.7178 55.4511L80.7178 55.4511C80.586 55.7421 80.5221 55.883 80.4137 55.9419C80.3119 55.9972 80.1708 55.9802 79.8972 55.9472L79.8479 55.9412C79.5683 55.9085 79.4006 55.7855 79.3606 55.5069C79.3437 55.3896 79.3222 55.2716 79.3008 55.1536L79.3008 55.1536L79.3008 55.1535L79.3007 55.1535L79.3007 55.1535L79.3007 55.1534L79.3007 55.1534L79.3007 55.1534L79.3007 55.1533C79.2413 54.8263 79.1816 54.4984 79.2168 54.1794C79.305 53.391 79.4478 52.6078 79.5905 51.8256L79.5905 51.8251L79.5906 51.8247C79.6288 51.6153 79.667 51.4059 79.7041 51.1965C79.7201 51.1228 79.8559 51.0162 79.9437 51.008ZM74.5605 53.6623L74.5607 53.6626C75.0903 54.4707 75.6086 55.2614 76.1494 56.0382C76.3491 56.3332 76.6207 56.5955 77.06 56.4152C77.731 56.1529 77.8987 55.9727 77.699 55.2515C77.4601 54.375 77.6084 53.5321 77.7572 52.6863L77.7572 52.6862L77.7572 52.6861L77.7572 52.686L77.7573 52.6859L77.7573 52.6858L77.7573 52.6857L77.7573 52.6856L77.7573 52.6855L77.7573 52.6854L77.7574 52.6853L77.7574 52.6852L77.7574 52.6851L77.7574 52.685C77.7727 52.5982 77.788 52.5113 77.8028 52.4244C77.8588 52.113 77.8508 51.7688 77.7789 51.4574C77.7469 51.3099 77.4594 51.0886 77.3475 51.1132C76.1254 51.4246 75.0551 52.0392 74.0327 52.8587C74.2107 53.1285 74.3862 53.3964 74.5605 53.6623ZM71.4218 59.9134C71.9814 60.3326 72.5427 60.753 73.1138 61.1785C72.9221 62.1209 72.4269 62.6535 71.4604 62.7601C70.1265 62.8994 69.0002 62.3421 67.9858 61.5063C67.9298 61.4571 67.9059 61.2768 67.9458 61.1949C68.0052 61.0594 68.0643 60.9236 68.1234 60.7878C68.3825 60.1924 68.6421 59.5956 68.9283 59.0151C69.0051 58.8518 69.1309 58.7157 69.2514 58.5853L69.2514 58.5853L69.2514 58.5853L69.2514 58.5853C69.3063 58.5259 69.3601 58.4677 69.4076 58.4087C70.0861 58.9129 70.7528 59.4123 71.4218 59.9134ZM71.7803 64.9233C70.2706 64.5382 68.8089 64.1612 67.2353 63.7515C67.2016 63.9417 67.1639 64.138 67.1255 64.3385L67.1254 64.3386C67.0545 64.7084 66.9808 65.0927 66.9238 65.4805C66.8691 65.8478 66.833 66.2183 66.7962 66.5958C66.7738 66.8248 66.7512 67.0564 66.7241 67.2916C67.9862 67.939 69.2801 68.1192 70.5582 67.3653C71.4688 66.8409 71.8282 65.9722 71.7803 64.9233ZM66.78 69.2657C66.5404 70.5605 66.7321 71.7815 67.1794 72.9697C67.2194 73.0681 67.3232 73.1746 67.4191 73.2074C69.3041 73.8547 71.4289 72.56 71.7244 70.8145C71.7643 70.5769 71.7803 70.3228 71.7643 70.0852C71.6685 69.0445 71.4768 68.897 70.4863 69.0445L70.201 69.087C69.5212 69.1885 68.8406 69.2902 68.1539 69.3477C67.8523 69.3702 67.5431 69.3386 67.2238 69.306H67.2238H67.2237H67.2237C67.078 69.2911 66.9302 69.276 66.78 69.2657ZM72.1476 76.9525C72.7866 75.5594 72.587 74.5596 71.5086 73.691C70.3903 74.5596 69.0963 74.8792 67.7065 74.9284C67.6106 74.9284 67.4509 75.0677 67.4269 75.1742C67.2113 76.2149 67.5148 77.1409 68.0819 77.9932C68.1273 78.0605 68.2142 78.0951 68.3122 78.1341L68.3123 78.1342L68.3124 78.1342C68.3695 78.157 68.4305 78.1813 68.4893 78.2144C68.4616 78.2334 68.4346 78.2523 68.4079 78.271C68.342 78.3172 68.2779 78.3621 68.2097 78.4029C66.756 79.2961 65.5818 80.468 64.8869 82.066C63.9763 84.172 63.6488 86.3436 64.4715 88.5807C64.6196 88.9829 64.7558 89.3923 64.8918 89.8011L64.8918 89.8012L64.8918 89.8012L64.8918 89.8012L64.8918 89.8013L64.8918 89.8013L64.8918 89.8013L64.8919 89.8014L64.8919 89.8014L64.8919 89.8014L64.8919 89.8015L64.8919 89.8015L64.8919 89.8015L64.8919 89.8016L64.8919 89.8016L64.8919 89.8016L64.892 89.8017L64.892 89.8017C65.0053 90.1424 65.1185 90.4827 65.2383 90.8179C65.6377 91.9488 65.6696 93.1124 65.3501 94.2433C64.4076 97.5457 65.2942 100.578 66.5483 103.569C66.6583 103.819 66.838 104.045 67.0112 104.263L67.0196 104.274C67.2592 104.577 67.5707 104.675 67.9461 104.544C68.3215 104.405 68.5931 104.151 68.5772 103.749C68.5612 103.233 68.4973 102.717 68.3775 102.217C68.2856 101.819 68.1738 101.426 68.062 101.033L68.0619 101.033C67.9501 100.639 67.8383 100.246 67.7464 99.8485C67.4908 98.7258 67.8183 97.7998 68.7129 97.1032C68.7512 97.0744 68.7887 97.0448 68.8259 97.0154C68.9051 96.9527 68.9829 96.8912 69.0644 96.841C70.4143 96.0461 71.245 94.8005 71.932 93.4156C72.1238 93.022 72.372 92.6554 72.6199 92.2894L72.6199 92.2893C72.7333 92.1219 72.8466 91.9546 72.9544 91.7849L73.0502 91.834C73.0982 92.0635 73.1471 92.2929 73.196 92.5224C73.3428 93.2107 73.4896 93.8991 73.6094 94.5875C74.1445 97.5785 75.8699 99.8321 77.8668 101.93C78.0637 102.14 78.3229 102.294 78.5675 102.44L78.5777 102.446C78.9132 102.651 79.2566 102.651 79.5761 102.381C79.9036 102.102 80.0234 101.75 79.8797 101.356C79.7359 100.979 79.5522 100.611 79.3285 100.275C79.0966 99.9309 78.8462 99.6014 78.5959 99.2721L78.5959 99.2721C78.3807 98.989 78.1657 98.7061 77.9626 98.4144C77.0121 97.0541 76.9722 96.0953 77.9067 94.735C78.6496 93.6451 79.1608 92.4568 79.6161 91.1703C79.7432 91.2309 79.8681 91.2871 79.9905 91.3421L79.9906 91.3421L79.9907 91.3422L79.9908 91.3423C80.1989 91.4358 80.3995 91.526 80.5906 91.6292C82.5555 92.7273 83.7617 94.4563 84.4806 96.5788C84.7725 97.4253 85.0242 98.2874 85.2755 99.1485L85.2755 99.1485C85.3405 99.3711 85.4054 99.5935 85.471 99.8157C85.7027 100.602 86.0781 101.299 86.5893 101.922C86.7753 102.147 86.9612 102.372 87.1469 102.597L87.1543 102.606L87.1617 102.615L87.1689 102.624L87.1738 102.63C88.0876 103.737 88.9997 104.843 89.9281 105.937C90.1917 106.249 90.5112 106.544 90.8547 106.765C91.4777 107.166 92.0848 107.043 92.6599 106.478C93.0753 106.068 93.1472 105.56 92.7717 104.913C92.5564 104.54 92.2786 104.202 92.0054 103.87L92.0047 103.869L92.004 103.868L92.0037 103.867C91.9532 103.806 91.9029 103.745 91.8532 103.684C91.6934 103.487 91.5097 103.298 91.318 103.135C89.6965 101.717 89.2971 99.8403 89.369 97.7834C89.3806 97.438 89.4217 97.0927 89.4617 96.7567L89.4618 96.7566L89.4618 96.7565C89.4768 96.6302 89.4917 96.5052 89.5048 96.3821C89.7544 96.3332 90.001 96.2843 90.2422 96.2364L90.2445 96.236L90.2451 96.2359C90.69 96.1476 91.1166 96.063 91.5097 95.9888C91.6586 96.3254 91.7979 96.6694 91.9375 97.014L91.9376 97.014L91.9376 97.0142C92.2398 97.7601 92.5432 98.5091 92.9475 99.1929C93.5421 100.201 94.2467 101.139 94.951 102.077C95.117 102.298 95.283 102.519 95.4476 102.741C95.7272 103.118 96.1026 103.421 96.6138 103.298C96.8854 103.233 97.0931 102.479 96.9573 101.946C96.8295 101.446 96.6777 100.938 96.4301 100.496C95.3278 98.5045 94.9044 96.3165 94.6089 94.0958C94.4571 92.9649 93.8021 92.4568 92.6998 92.6781C90.639 93.096 88.5702 93.3009 86.4695 93.1124C86.3257 93.096 86.1819 93.0632 86.0381 93.0305C84.5524 92.6699 83.9614 91.2604 84.7282 89.8919C84.7521 89.8427 84.7761 89.7936 84.816 89.7526C85.5302 89.0139 85.9172 88.0963 86.3059 87.1749C86.4432 86.8493 86.5808 86.5231 86.7331 86.2043C87.0366 85.5815 87.6117 85.057 88.1629 84.5981C88.8418 84.0409 89.6725 83.7623 90.5272 83.5738C90.647 83.5492 90.8228 83.4345 90.8467 83.3361C90.8707 83.2214 90.7748 83.0083 90.679 82.9592C90.618 82.9297 90.5566 82.8993 90.495 82.8688C90.1287 82.6874 89.7507 82.5002 89.361 82.4511C88.722 82.3692 88.059 82.3856 87.412 82.4511C86.6931 82.5249 86.0541 82.2954 85.4551 82.0004C84.816 81.689 84.209 81.2629 83.6339 80.8368C82.0603 79.6649 80.4708 78.5258 78.6655 77.7473C76.7325 76.9033 74.7276 76.6247 72.6509 76.9361C72.4991 76.9197 72.3313 76.9279 72.1476 76.9525ZM80.9102 75.3705C80.2712 75.7803 79.5763 75.9606 78.8255 75.9606C78.1066 75.936 77.4196 75.7885 76.8365 75.3296C76.1895 74.8297 75.9419 74.0922 76.3173 73.3792C76.557 72.9306 76.8909 72.5373 77.2249 72.1439L77.2249 72.1439C77.3363 72.0128 77.4476 71.8817 77.5554 71.7485C77.6113 71.6829 77.7471 71.6584 77.843 71.6666C79.5763 71.8386 80.9182 73.0597 81.2297 74.6003C81.3096 74.9772 81.2058 75.1821 80.9102 75.3705ZM72.2356 54.2944C73.1462 54.9992 74.4243 56.6053 75.2949 58.1214L75.2051 58.2379C74.9991 58.5053 74.8045 58.7578 74.616 59.0228C74.4482 59.2604 74.2485 59.3178 73.961 59.2276C72.4833 58.7442 71.4688 57.6625 70.3985 56.4988C71.021 55.7537 71.6276 55.025 72.2342 54.2962L72.2356 54.2944ZM84.696 59.3261C85.3542 58.7445 86.1559 58.6428 86.9624 58.5406L86.9624 58.5406L86.9625 58.5406L86.9625 58.5406L86.9625 58.5406L86.9625 58.5406L86.9625 58.5406L86.9626 58.5406L86.9626 58.5406L86.9626 58.5406L86.9626 58.5405L86.9626 58.5405C87.1446 58.5175 87.3268 58.4944 87.5077 58.4657C87.923 58.4001 88.3384 58.2772 88.7378 58.1461C88.8257 58.1133 88.9535 57.9494 88.9375 57.8675C88.8177 57.0562 88.57 56.2941 87.9071 55.7696C87.7952 55.6795 87.6115 55.6221 87.4837 55.6385C86.5092 55.7942 85.6066 56.1384 84.7999 56.7202C84.704 56.794 84.6082 56.8677 84.5203 56.9497C83.6896 57.7364 83.7455 58.6296 84.696 59.3261ZM85.0079 72.7728C84.2011 71.2977 80.6865 69.8882 79.7759 70.6831C79.7759 70.7077 79.7759 70.7487 79.7919 70.7569C80.8782 71.7239 81.661 72.9449 82.4199 74.1823C82.6036 74.4855 82.7873 74.5019 83.0748 74.4035C83.7458 74.1741 84.5126 73.5349 85.0079 72.7728ZM90.3754 88.6793C90.2556 89.3103 90.008 89.4987 89.3689 89.5151C89.2568 89.4937 89.1446 89.4767 89.0329 89.4597H89.0329L89.0329 89.4597L89.0328 89.4597L89.0328 89.4597L89.0327 89.4597L89.0327 89.4597C88.8026 89.4247 88.575 89.3902 88.3545 89.3185C87.6356 89.0972 87.3241 88.5809 87.4599 87.8188C87.5078 87.5402 87.6117 87.2698 87.7315 87.0158C88.1628 86.1225 88.8737 85.4915 89.6884 84.9835C89.968 84.8114 90.3035 84.7048 90.623 84.6475C90.7707 84.6183 90.9345 84.6596 91.0973 84.7007C91.1634 84.7174 91.2293 84.734 91.294 84.7458C91.2804 84.806 91.2701 84.8694 91.2597 84.9331C91.2333 85.0951 91.2065 85.2592 91.1262 85.3768C90.6629 86.057 90.5272 86.8191 90.4872 87.6222C90.4712 87.9745 90.4393 88.3351 90.3754 88.6793ZM88.6782 87.5248C88.4265 87.6229 88.2364 87.8804 88.2427 88.163C88.2507 88.5318 88.5542 88.8268 88.9136 88.8186C88.9899 88.8168 89.0624 88.8019 89.1293 88.776C89.0622 88.8016 88.9897 88.8164 88.9138 88.8182C88.5544 88.8264 88.2509 88.5314 88.2429 88.1626C88.2429 87.8803 88.4289 87.6232 88.6782 87.5248ZM85.8631 61.6817L85.8636 61.6818L85.8637 61.6818L85.8639 61.6818C87.0804 61.7846 88.2725 61.8854 89.4647 61.9965C89.8161 62.0293 89.928 61.89 89.9599 61.554C90.0238 60.8329 89.7842 60.2675 89.1931 59.8741C88.1946 59.2185 86.4134 59.3333 85.5028 60.12C85.0395 60.5133 84.8398 61.0132 84.9357 61.6032C85.2466 61.6296 85.5557 61.6558 85.8631 61.6817ZM84.2168 52.1724C85.1753 52.705 86.0859 53.2459 86.7249 54.1719C85.2552 55.0569 83.8334 55.9173 82.4116 56.786C82.148 56.3599 82.116 56.073 82.3077 55.4748C82.6722 54.3226 83.3621 53.3623 84.0615 52.3887L84.0618 52.3883L84.0624 52.3874C84.1139 52.3158 84.1654 52.2442 84.2168 52.1724ZM82.0446 69.1926C83.0409 69.5401 83.8415 70.1682 84.6575 70.8083C85.15 71.1946 85.648 71.5853 86.1981 71.9215C86.2722 71.8018 86.346 71.683 86.4194 71.565L86.4222 71.5605L86.4223 71.5603L86.423 71.5593L86.423 71.5592L86.4232 71.5589C86.7201 71.0811 87.01 70.6148 87.2845 70.1432C87.3244 70.0777 87.3004 69.8892 87.2365 69.84C86.1981 69.0041 85.0799 68.3322 83.714 68.2666C83.035 68.2502 82.428 68.4305 82.0446 69.1926ZM89.6407 63.753C89.6247 64.4243 89.6084 65.1119 89.1854 65.6768C89.0194 65.6208 88.8552 65.5642 88.6921 65.5079L88.6921 65.5079L88.6921 65.5079L88.6921 65.5079L88.6919 65.5078C88.2587 65.3584 87.8336 65.2118 87.4042 65.0868C86.6454 64.8819 85.8865 64.6935 85.1197 64.5214C84.8322 64.4558 84.7683 64.3083 84.8082 64.0297C84.9121 63.2594 85.4313 62.7841 86.3099 62.7513C87.4361 62.7021 88.4745 63.0873 89.489 63.5462C89.5609 63.579 89.6407 63.6855 89.6407 63.7511L89.6407 63.753ZM86.821 88.6948C86.6505 88.9087 86.498 89.0967 86.3557 89.272C86.1981 89.4662 86.0532 89.6448 85.9104 89.8257C85.8615 89.8879 85.8104 89.9488 85.7595 90.0094C85.6362 90.1564 85.5137 90.3024 85.4232 90.4649C85.1277 90.9893 85.2714 91.563 85.8146 91.8006C86.2459 91.9891 86.7252 92.112 87.1885 92.1612C88.4266 92.3005 89.6487 92.1776 90.8468 91.8088C90.7669 91.2352 90.5113 90.9729 89.9522 90.9156C89.6731 90.89 89.3909 90.8804 89.1094 90.8708L89.1092 90.8708L89.1089 90.8708L89.1086 90.8708C88.9393 90.865 88.7702 90.8593 88.6023 90.85C87.516 90.7845 87.3402 90.6124 87.1246 89.5307C87.0871 89.3493 87.0137 89.1717 86.9356 88.9829C86.8973 88.8901 86.8579 88.7947 86.821 88.6948ZM87.8276 68.6593C86.5496 67.9791 85.2476 67.3891 83.8018 67.0941C84.0095 66.0452 84.6884 65.5781 85.7588 65.7174C86.8371 65.8485 87.7956 66.3074 88.6743 66.9384C88.7621 67.004 88.874 67.1515 88.85 67.217C88.6743 67.6759 88.4906 68.143 88.2589 68.5773C88.211 68.6593 87.9314 68.7167 87.8276 68.6593ZM91.3338 86.9576C91.3338 87.8098 91.4696 87.9492 92.1086 87.8262C92.3722 87.7771 92.6518 87.6623 92.8674 87.4985C93.6982 86.8675 93.9298 85.3433 93.3547 84.4992C93.2189 84.3025 93.0991 84.2206 92.8754 84.3845C91.9489 85.081 91.3737 85.9579 91.3338 86.9576Z" fill="#20113D"/>
<g filter="url(#filter1_d)">
<path d="M81.0001 29.335C54.6474 29.335 33.3257 49.2504 33.3257 73.7919C33.3257 98.3334 81.0001 168.665 81.0001 168.665C81.0001 168.665 128.675 98.3334 128.675 73.7919C128.675 49.2504 107.353 29.335 81.0001 29.335Z" stroke="white" stroke-width="6" stroke-miterlimit="10" stroke-linejoin="round"/>
</g>
</g>
<defs>
<filter id="filter0_d" x="0.325684" y="0.334961" width="161.349" height="205.33" filterUnits="userSpaceOnUse" color-interpolation-filters="sRGB">
<feFlood flood-opacity="0" result="BackgroundImageFix"/>
<feColorMatrix in="SourceAlpha" type="matrix" values="0 0 0 0 0 0 0 0 0 0 0 0 0 0 0 0 0 0 127 0"/>
<feOffset dy="4"/>
<feGaussianBlur stdDeviation="15"/>
<feColorMatrix type="matrix" values="0 0 0 0 0.960784 0 0 0 0 0.501961 0 0 0 0 0.129412 0 0 0 0.7 0"/>
<feBlend mode="normal" in2="BackgroundImageFix" result="effect1_dropShadow"/>
<feBlend mode="normal" in="SourceGraphic" in2="effect1_dropShadow" result="shape"/>
</filter>
<filter id="filter1_d" x="0.325684" y="0.334961" width="161.349" height="205.33" filterUnits="userSpaceOnUse" color-interpolation-filters="sRGB">
<feFlood flood-opacity="0" result="BackgroundImageFix"/>
<feColorMatrix in="SourceAlpha" type="matrix" values="0 0 0 0 0 0 0 0 0 0 0 0 0 0 0 0 0 0 127 0"/>
<feOffset dy="4"/>
<feGaussianBlur stdDeviation="15"/>
<feColorMatrix type="matrix" values="0 0 0 0 0 0 0 0 0 0 0 0 0 0 0 0 0 0 0.5 0"/>
<feBlend mode="normal" in2="BackgroundImageFix" result="effect1_dropShadow"/>
<feBlend mode="normal" in="SourceGraphic" in2="effect1_dropShadow" result="shape"/>
</filter>
</defs>
</svg>
