<svg width="28" height="25" viewBox="0 0 28 25" fill="none" xmlns="http://www.w3.org/2000/svg">
<path fill-rule="evenodd" clip-rule="evenodd" d="M15.3347 0.24596C15.1296 0.335165 14.9432 0.465905 14.7864 0.630691C14.6291 0.795061 14.5043 0.990325 14.4192 1.2053C14.3341 1.42027 14.2903 1.65074 14.2903 1.88349C14.2903 2.11623 14.3341 2.3467 14.4192 2.56167C14.5043 2.77665 14.6291 2.97191 14.7864 3.13628L21.5752 10.2474H2.25908C1.78115 10.2474 1.32279 10.4847 0.984839 10.9071C0.64689 11.3296 0.457031 11.9025 0.457031 12.4999C0.457031 13.0973 0.64689 13.6703 0.984839 14.0927C1.32279 14.5152 1.78115 14.7525 2.25908 14.7525H21.5761L14.7864 21.8645C14.4693 22.1967 14.2911 22.6474 14.2911 23.1173C14.2911 23.5872 14.4693 24.0378 14.7864 24.3701C15.1034 24.7023 15.5335 24.889 15.9819 24.889C16.4304 24.889 16.8604 24.7023 17.1775 24.3701L27.3095 13.7532C27.4668 13.5888 27.5915 13.3935 27.6767 13.1786C27.7618 12.9636 27.8056 12.7331 27.8056 12.5004C27.8056 12.2676 27.7618 12.0372 27.6767 11.8222C27.5915 11.6072 27.4668 11.412 27.3095 11.2476L17.1775 0.630691C17.0207 0.465905 16.8343 0.335165 16.6291 0.24596C16.424 0.156756 16.2041 0.11084 15.9819 0.11084C15.7598 0.11084 15.5399 0.156756 15.3347 0.24596Z" fill="#F58021"/>
</svg>
