<svg width="162" height="206" viewBox="0 0 162 206" fill="none" xmlns="http://www.w3.org/2000/svg">
<g filter="url(#filter0_d)">
<path d="M80.6123 35.562C58.3304 35.562 40.3022 52.8072 40.3022 74.0582C40.3022 95.3092 80.6123 156.211 80.6123 156.211C80.6123 156.211 120.922 95.3092 120.922 74.0582C120.922 52.8072 102.894 35.562 80.6123 35.562Z" fill="white"/>
<path fill-rule="evenodd" clip-rule="evenodd" d="M72.2527 77.8338C69.8342 78.5556 67.3968 78.4446 64.9408 76.8344C64.7523 77.0683 64.5592 77.3037 64.3641 77.5415L64.3636 77.5421L64.3636 77.5421L64.3636 77.5421L64.3636 77.5422L64.3635 77.5422C63.8796 78.1322 63.3835 78.737 62.9159 79.3699C62.5691 79.8604 62.2457 80.3693 61.9223 80.8783L61.9222 80.8783L61.9222 80.8784C61.5988 81.3873 61.2754 81.8963 60.9286 82.3867C60.1599 83.4786 59.8786 84.6631 59.9536 85.9772C60.0474 87.6614 59.3724 88.5127 57.7038 88.8088C54.2728 89.4196 51.198 86.9026 51.1793 83.4786C51.1793 83.1443 51.1732 82.81 51.1672 82.4768C51.1582 81.9801 51.1493 81.486 51.1605 80.9986C51.192 79.6916 51.7669 78.5547 52.3391 77.4228C52.4475 77.2084 52.5559 76.9941 52.6604 76.7789C52.9309 76.2253 53.2039 75.6725 53.4769 75.1197L53.4769 75.1196L53.477 75.1194C54.4909 73.0664 55.5052 71.0128 56.3914 68.9131C57.6941 65.836 59.6511 63.1894 61.615 60.5334L61.615 60.5334L61.615 60.5334L61.615 60.5334C62.0253 59.9785 62.4359 59.4232 62.8409 58.8635C62.8604 58.8395 62.8811 58.8155 62.902 58.7912L62.9021 58.7912L62.9021 58.7911C62.9621 58.7217 63.0243 58.6496 63.0659 58.5674C65.2595 54.6252 69.1592 53.6999 73.1714 52.9225C74.1609 52.7341 75.1423 52.498 76.1231 52.262C77.261 51.9883 78.398 51.7148 79.546 51.516C81.6458 51.1458 83.8019 50.8497 85.9392 50.7757C88.4703 50.6831 90.6076 51.8491 92.5013 53.4593C89.6327 52.0157 86.5579 51.516 83.3707 51.59C82.5645 51.6085 81.7583 51.6825 80.9521 51.7751C79.7897 51.9046 79.3022 52.756 78.9835 53.7369C78.1586 56.2354 78.3273 58.6969 79.2085 61.1769C79.4209 61.7728 79.5533 62.4015 79.6852 63.0278L79.6852 63.0279C79.7745 63.4521 79.8636 63.8752 79.9772 64.2862C80.122 64.7985 80.2634 65.3125 80.4048 65.8267L80.4048 65.8267L80.4048 65.8268L80.4048 65.8268L80.4048 65.8268C80.9226 67.7091 81.4412 69.5946 82.1333 71.4117C82.4145 72.1705 83.3519 72.9108 84.1581 73.2069C87.3266 74.3359 90.5701 74.9466 93.9262 73.8177C98.1446 72.3926 100.319 67.9507 98.7258 63.8235C98.2151 62.516 97.6094 61.2488 97.0011 59.9761C96.8947 59.7535 96.7882 59.5308 96.6822 59.3077C96.5851 59.1023 96.3853 58.9374 96.1893 58.7755C96.1203 58.7187 96.0519 58.6621 95.9885 58.6044C95.746 58.3773 95.4932 58.1563 95.2397 57.9347C94.7287 57.488 94.2148 57.0387 93.7762 56.5315C93.1575 55.8097 93.1762 54.9029 93.7199 54.1255C94.2449 53.3667 95.0886 53.1817 95.9697 53.3297C97.3384 53.5518 98.2196 54.3846 98.6696 55.6247C99.1008 56.8277 98.6883 57.8641 97.6196 58.771C99.0258 59.9184 99.4945 61.5656 99.907 63.1943C100.063 63.811 100.147 64.4474 100.231 65.0854L100.231 65.0855L100.231 65.0855L100.231 65.0856C100.329 65.8261 100.427 66.5686 100.638 67.2845C100.991 68.4699 101.415 69.6393 101.839 70.8098C102.203 71.8141 102.568 72.8192 102.888 73.8362C103.304 75.138 103.687 76.4508 104.07 77.7626L104.07 77.7627L104.07 77.7628L104.07 77.7629C104.394 78.8754 104.719 79.9872 105.063 81.0912C105.255 81.7064 105.5 82.3066 105.745 82.9061L105.745 82.9062L105.745 82.9067L105.745 82.9068L105.746 82.9069C105.884 83.2449 106.022 83.5826 106.15 83.9228C106.561 84.9993 107.492 85.4839 108.414 85.9643C108.586 86.0539 108.757 86.1432 108.925 86.2363C109.787 86.7175 110.237 87.3467 110.012 88.3461C109.806 89.29 109.188 89.8823 108.044 89.8453C105.7 89.7527 103.375 89.5306 101.051 89.29C100.657 89.253 100.244 88.8459 99.9632 88.5127C98.3883 86.6434 96.8322 84.7557 95.2948 82.8679C94.2261 81.5539 93.4387 80.1103 93.0262 78.4631C92.8509 77.7853 92.4935 77.1412 92.1402 76.5046C92.0401 76.3242 91.9403 76.1444 91.845 75.9645C91.7513 75.7795 91.4888 75.6129 91.2826 75.5759L91.1345 75.5469C89.9467 75.3138 88.7652 75.082 87.7391 76.1126C87.4779 76.3889 87.0496 76.5368 86.6759 76.6659L86.6704 76.6678C86.0142 76.8899 85.7143 77.2971 85.958 77.9264C86.8229 80.2155 86.7576 82.5542 86.6921 84.8983V84.8984C86.6596 86.0604 86.6272 87.2238 86.7079 88.3832C86.7413 88.8273 86.8042 89.2715 86.8672 89.7157C86.9459 90.2709 87.0246 90.8262 87.0454 91.3814C87.0642 91.8071 86.8767 92.4178 86.5767 92.6399C84.0831 94.4907 81.2896 94.8053 78.421 93.7874C76.9961 93.2692 76.04 92.2513 75.815 90.5115C75.3838 86.9026 74.8026 83.3121 74.0526 79.7586C73.7825 78.4256 73.1326 77.1527 72.4994 75.9127C72.4293 75.7754 72.3594 75.6384 72.2902 75.5019C70.4904 71.9669 69.9842 68.3024 70.6216 64.3788C71.1466 61.1214 71.859 58.0121 74.0526 55.4396C74.505 54.9141 75.0425 54.4633 75.5778 54.0142L75.5779 54.0142C75.7967 53.8306 76.0152 53.6472 76.2274 53.4593C76.2594 53.4322 76.2936 53.4063 76.3281 53.3801L76.3283 53.3799L76.3284 53.3798L76.3285 53.3798C76.4356 53.2986 76.5457 53.215 76.6024 53.0891C73.7151 53.1261 71.1091 53.922 68.5405 55.1064C66.1343 56.1957 64.7554 58.1384 63.3593 60.1053C63.0475 60.5446 62.7348 60.9851 62.4097 61.4175C62.2785 61.6026 62.2785 61.9173 62.2972 62.1764C62.5725 64.7672 63.5845 67.1275 64.5944 69.483L64.6595 69.6349C64.8604 70.0844 64.9656 70.5811 65.0709 71.0778L65.0709 71.0779L65.0709 71.0779L65.0709 71.078C65.113 71.2766 65.1551 71.4752 65.2033 71.6708C65.3157 72.1705 65.4282 72.6887 65.4657 73.2069C65.4734 73.3123 65.4817 73.4183 65.49 73.5248L65.49 73.5248C65.5433 74.204 65.5979 74.9014 65.4845 75.5574C65.2595 76.7234 65.3532 77.075 66.5719 77.2601C66.965 77.2989 67.3613 77.3377 67.7594 77.3767C69.2602 77.5236 70.7857 77.6729 72.2527 77.8338ZM81.2896 60.4555C80.2022 60.0113 79.7522 58.9564 79.6023 57.7164C79.4335 56.3653 80.6709 54.6811 82.1146 54.1814C83.2582 53.7928 84.8706 54.422 85.5081 55.5325C85.883 56.1988 86.033 56.7355 85.2081 57.3092C84.2747 57.9542 83.4077 58.6834 82.4722 59.4702L82.4722 59.4703L82.4721 59.4703C82.0923 59.7898 81.7011 60.1188 81.2896 60.4555ZM84.8518 66.1368C84.5144 67.5989 85.4705 68.7648 86.633 68.6723C86.7382 68.3411 86.8389 68.0168 86.9381 67.6969L86.9381 67.6968L86.9382 67.6965L86.9383 67.6963C87.1219 67.1047 87.3007 66.5282 87.4954 65.9517C87.547 65.8075 87.6182 65.6672 87.6893 65.5272C87.7733 65.3617 87.8571 65.1967 87.9079 65.0263C88.0579 64.4896 88.2266 63.7863 87.5329 63.6197C87.0267 63.5087 86.2205 63.6752 85.9018 64.0269C85.3956 64.5821 85.0206 65.3779 84.8518 66.1368ZM91.545 64.0639C91.6287 63.9537 91.7058 63.8336 91.7817 63.7155C91.9607 63.4367 92.133 63.1684 92.37 63.0645C92.6137 62.9534 93.1387 63.1755 93.4011 63.3976C93.459 63.4468 93.5171 63.4959 93.5753 63.5452L93.5754 63.5452C94.1966 64.0708 94.8303 64.6069 95.276 65.2669C95.5197 65.6555 95.426 66.3773 95.2573 66.8585C95.126 67.2102 94.6385 67.5803 94.2636 67.6543C94.0198 67.6913 93.6261 67.2472 93.3824 66.951C92.9699 66.4513 92.6137 65.9331 92.2575 65.3779C92.076 65.1347 91.9393 64.8561 91.7792 64.5299L91.7792 64.5299C91.7078 64.3844 91.6318 64.2294 91.545 64.0639ZM92.5269 70.7154L92.5387 70.7082C92.5334 70.6766 92.5266 70.6435 92.5195 70.6093C92.5017 70.5234 92.4825 70.4307 92.4825 70.338C92.3825 70.3134 92.2825 70.2805 92.1825 70.2476C91.9825 70.1818 91.7826 70.1159 91.5826 70.1159C90.8139 70.1159 90.0452 70.1345 89.2952 70.227C88.9953 70.264 88.639 70.4676 88.5078 70.6897C88.4328 70.8192 88.6765 71.2264 88.8828 71.4115C88.9923 71.5196 89.153 71.5582 89.3163 71.5975C89.4325 71.6255 89.5501 71.6537 89.6515 71.7076C89.8577 71.8187 90.2327 72.0407 90.2139 72.1333C90.1389 72.3924 89.9514 72.6515 89.7265 72.8366C89.6175 72.9321 89.4617 72.966 89.2691 73.0079C89.1634 73.0309 89.0465 73.0563 88.9203 73.0957C89.648 73.0486 90.3225 73.0015 90.9971 72.9544C91.3827 72.9274 91.7683 72.9005 92.1638 72.8736C91.9424 72.7765 91.6888 72.747 91.4446 72.7187C90.9441 72.6606 90.4832 72.6071 90.4202 71.9852C91.1843 71.5252 91.8559 71.1201 92.5269 70.7154Z" fill="#20113D"/>
<g filter="url(#filter1_d)">
<path d="M81.0001 29.335C54.6474 29.335 33.3257 49.2504 33.3257 73.7919C33.3257 98.3334 81.0001 168.665 81.0001 168.665C81.0001 168.665 128.675 98.3334 128.675 73.7919C128.675 49.2504 107.353 29.335 81.0001 29.335Z" stroke="white" stroke-width="6" stroke-miterlimit="10" stroke-linejoin="round"/>
</g>
</g>
<defs>
<filter id="filter0_d" x="0.325684" y="0.334961" width="161.349" height="205.33" filterUnits="userSpaceOnUse" color-interpolation-filters="sRGB">
<feFlood flood-opacity="0" result="BackgroundImageFix"/>
<feColorMatrix in="SourceAlpha" type="matrix" values="0 0 0 0 0 0 0 0 0 0 0 0 0 0 0 0 0 0 127 0"/>
<feOffset dy="4"/>
<feGaussianBlur stdDeviation="15"/>
<feColorMatrix type="matrix" values="0 0 0 0 0.960784 0 0 0 0 0.501961 0 0 0 0 0.129412 0 0 0 0.7 0"/>
<feBlend mode="normal" in2="BackgroundImageFix" result="effect1_dropShadow"/>
<feBlend mode="normal" in="SourceGraphic" in2="effect1_dropShadow" result="shape"/>
</filter>
<filter id="filter1_d" x="0.325684" y="0.334961" width="161.349" height="205.33" filterUnits="userSpaceOnUse" color-interpolation-filters="sRGB">
<feFlood flood-opacity="0" result="BackgroundImageFix"/>
<feColorMatrix in="SourceAlpha" type="matrix" values="0 0 0 0 0 0 0 0 0 0 0 0 0 0 0 0 0 0 127 0"/>
<feOffset dy="4"/>
<feGaussianBlur stdDeviation="15"/>
<feColorMatrix type="matrix" values="0 0 0 0 0 0 0 0 0 0 0 0 0 0 0 0 0 0 0.5 0"/>
<feBlend mode="normal" in2="BackgroundImageFix" result="effect1_dropShadow"/>
<feBlend mode="normal" in="SourceGraphic" in2="effect1_dropShadow" result="shape"/>
</filter>
</defs>
</svg>
