<svg width="65" height="60" viewBox="0 0 65 60" fill="none" xmlns="http://www.w3.org/2000/svg">
<path d="M0 5C0 2.23858 2.23858 0 5 0H60C62.7614 0 65 2.23858 65 5V55C65 57.7614 62.7614 60 60 60H5C2.23858 60 0 57.7614 0 55V5Z" fill="#20113D"/>
<path fill-rule="evenodd" clip-rule="evenodd" d="M33.5687 19.12C33.3866 19.1992 33.2211 19.3153 33.0818 19.4616C32.9422 19.6075 32.8314 19.7809 32.7558 19.9717C32.6803 20.1626 32.6414 20.3672 32.6414 20.5739C32.6414 20.7805 32.6803 20.9852 32.7558 21.176C32.8314 21.3669 32.9422 21.5403 33.0818 21.6862L39.1095 28H21.9589C21.5345 28 21.1276 28.2107 20.8275 28.5858C20.5275 28.9609 20.3589 29.4696 20.3589 30C20.3589 30.5304 20.5275 31.0391 20.8275 31.4142C21.1276 31.7893 21.5345 32 21.9589 32H39.1103L33.0818 38.3146C32.8003 38.6096 32.6421 39.0097 32.6421 39.4269C32.6421 39.8441 32.8003 40.2443 33.0818 40.5393C33.3634 40.8343 33.7452 41 34.1434 41C34.5415 41 34.9234 40.8343 35.2049 40.5393L44.2009 31.1127C44.3405 30.9668 44.4513 30.7934 44.5269 30.6026C44.6024 30.4117 44.6414 30.2071 44.6414 30.0004C44.6414 29.7938 44.6024 29.5891 44.5269 29.3983C44.4513 29.2074 44.3405 29.034 44.2009 28.8881L35.2049 19.4616C35.0656 19.3153 34.9002 19.1992 34.718 19.12C34.5359 19.0408 34.3406 19 34.1434 19C33.9461 19 33.7509 19.0408 33.5687 19.12Z" fill="white"/>
<path d="M5 1H60V-1H5V1ZM64 5V55H66V5H64ZM60 59H5V61H60V59ZM1 55V5H-1V55H1ZM5 59C2.79086 59 1 57.2091 1 55H-1C-1 58.3137 1.68629 61 5 61V59ZM64 55C64 57.2091 62.2091 59 60 59V61C63.3137 61 66 58.3137 66 55H64ZM60 1C62.2091 1 64 2.79086 64 5H66C66 1.68629 63.3137 -1 60 -1V1ZM5 -1C1.68629 -1 -1 1.68629 -1 5H1C1 2.79086 2.79086 1 5 1V-1Z" fill="#20113D"/>
</svg>
