<svg width="121" height="121" viewBox="0 0 121 121" fill="none" xmlns="http://www.w3.org/2000/svg">
<circle cx="60.6667" cy="60.501" r="58.5" stroke="white" stroke-width="3"/>
<g filter="url(#filter0_d)">
<circle cx="60.6667" cy="60.501" r="52" fill="white"/>
</g>
<path d="M47.5249 84.0732C51.8594 83.0822 54.5997 80.3004 57.3759 77.3447C56.9998 77.2404 56.7132 77.1535 56.4267 77.084C52.6116 76.1451 49.1011 74.5456 45.8771 72.3723C43.889 71.0335 42.2591 69.3471 41.0232 67.2955C40.862 67.0347 40.7367 66.7565 40.6113 66.4783C40.5755 66.4088 40.5755 66.3219 40.5396 66.0785C41.7576 66.4436 42.9039 66.7913 44.0323 67.139C44.0681 67.1042 44.086 67.0869 44.1218 67.0521C43.9964 66.9478 43.889 66.8434 43.7636 66.7565C42.2949 65.835 40.862 64.8788 39.3754 64.0095C37.6739 63.0011 35.8828 62.1318 34.235 61.0886C32.0319 59.6803 30.4737 57.6983 29.3453 55.4033C29.2915 55.299 29.2736 55.1946 29.2557 55.0903C29.2378 55.0382 29.2557 54.9686 29.2557 54.8122C31.0826 55.5771 32.7842 56.6551 34.8977 56.4638C30.7423 54.1515 28.1632 50.9176 28.3423 46.0495C30.1154 47.9446 31.8528 49.8223 33.5902 51.7C33.626 51.6652 33.6797 51.6131 33.7156 51.5783C32.9991 50.2222 32.1573 48.9008 31.62 47.4751C31.0826 46.0495 30.7244 44.5021 30.5453 42.9895C30.3662 41.4769 30.5095 39.9295 30.5095 38.3995C30.599 38.3821 30.6886 38.3821 30.7602 38.3647C31.6021 40.2077 32.4439 42.0506 33.2857 43.911C33.3752 43.911 33.4648 43.8936 33.5544 43.8936C33.5185 40.538 33.8947 37.252 35.4887 34.2442C35.5604 34.2442 35.632 34.2442 35.7037 34.2616C35.7037 35.0092 35.7395 35.7394 35.7037 36.487C35.5066 40.1555 36.9574 43.2851 39.1247 46.1364C40.5755 48.0315 42.3666 49.6137 44.3009 51.0393C46.8443 52.9171 49.6921 54.2906 52.54 55.6467C55.1908 56.8985 57.5192 58.6024 59.7044 60.5148C61.0298 61.6797 62.4089 62.7751 63.7702 63.9052C64.1463 64.2181 64.5224 64.5658 64.9523 64.9483C65.6508 63.3836 66.2956 61.9231 66.9404 60.4453C68.4987 56.9333 70.845 53.9776 73.7466 51.4218C76.0571 49.3876 78.4034 47.423 80.714 45.4062C83.8484 42.6592 85.8007 39.2514 86.4275 35.1831C86.6604 33.74 86.5529 32.2274 86.6067 30.7669C86.6067 30.5235 86.6067 30.2627 86.6962 30.002C87.8246 32.5056 88.147 35.1483 88.4157 37.8953C89.5261 35.7046 90.6187 33.514 91.7292 31.3059C91.8188 31.3233 91.9083 31.3407 91.9799 31.3581C91.8546 33.6009 91.8367 35.8437 91.568 38.0692C91.2993 40.2772 90.7799 42.4505 90.368 44.5543C90.9232 43.7197 91.568 42.7635 92.3203 41.6681C92.374 43.8066 92.3023 45.7365 91.371 47.5621C90.4575 49.3703 88.9888 50.7264 87.3947 52.0651C88.2724 52.239 88.9709 51.9434 89.6515 51.6131C90.3142 51.3001 90.9232 50.9176 91.6934 50.483C91.6217 50.8133 91.5859 51.0393 91.5143 51.248C90.5471 53.7864 89.0425 55.977 86.7858 57.594C85.4066 58.6024 83.9379 59.4891 82.5767 60.4975C81.717 61.1408 81.108 61.5406 81.0722 62.4273C81.6453 62.2361 82.2006 62.0622 82.8633 61.8536C81.7528 65.5395 78.8154 67.7997 76.2541 70.4424C76.5049 70.5467 76.7019 70.6163 76.8989 70.7032C78.1706 71.2074 79.2452 71.9724 79.9796 73.1199C80.5348 73.9718 80.6602 74.8759 80.4274 75.8669C80.3557 76.1625 80.5348 76.5624 80.7319 76.8232C81.3408 77.7272 81.4304 78.6487 80.8931 79.5876C80.3736 80.509 79.5139 80.9611 78.3855 81.0306C79.2811 79.4659 79.2453 79.1181 78.0273 78.2836C77.9019 78.9269 77.7766 79.5354 77.6512 80.1787C76.8452 79.5354 76.1466 78.7704 75.269 78.3184C74.3735 77.8663 73.3167 77.7446 72.2421 77.4491C72.2958 77.6751 72.2958 77.8142 72.3495 77.9359C73.1376 79.8658 73.872 81.8304 74.7675 83.7255C75.0899 84.421 75.7347 85.0121 76.3258 85.5337C76.881 86.0205 77.275 85.8466 77.49 85.1338C77.6333 84.6296 77.687 84.108 77.7765 83.6038C77.8661 83.1518 78.1169 82.9605 78.4393 83.0996C78.5109 83.5169 78.6005 83.8472 78.6184 84.1776C78.6363 84.5253 78.6363 84.8904 78.5646 85.2207C78.493 85.5163 78.296 85.7945 78.1527 86.0727C78.1885 86.1248 78.2422 86.1596 78.2781 86.2118C78.7617 85.8988 79.2632 85.5858 79.7288 85.2555C79.9617 85.0816 80.1408 84.8556 80.3557 84.6644C81.1975 83.9168 81.6095 83.9689 82.2006 84.9599C81.8782 84.9252 81.5916 84.873 81.2871 84.8382C81.2334 86.1248 79.8363 86.1074 79.2632 86.9767C79.9438 86.942 80.5527 86.8898 81.1617 86.8898C82.0931 86.8898 82.4692 87.3071 82.2901 88.2286C82.0215 87.6026 81.5737 87.6896 81.1438 87.8634C80.2304 88.2286 79.299 88.1068 78.3676 87.9851C77.3467 87.8461 76.4332 87.9851 75.5556 88.5763C74.9824 88.9762 74.3914 89.3587 73.5675 89.1848C73.3884 89.15 73.066 89.7238 72.8331 90.002C72.457 89.5151 72.4749 89.0457 73.1018 88.6632C73.4958 88.4198 73.9615 88.2981 74.3914 88.1242C74.66 88.0199 74.9466 87.933 75.1795 87.7591C75.6989 87.3766 75.6989 87.1332 75.1974 86.7507C73.9615 85.7771 72.7257 84.8208 71.4898 83.8472C71.3823 83.7603 71.257 83.6907 71.1495 83.6734C69.5196 83.5343 68.624 82.4911 67.9434 81.2219C67.8001 80.9437 67.6927 80.5612 67.2986 80.8046C67.0837 80.9437 66.8509 81.361 66.9225 81.5696C67.2986 82.9431 68.1225 84.0211 69.3942 84.7165C69.9495 84.6296 70.0569 83.3082 70.845 84.108C70.7734 84.4036 70.7196 84.5774 70.6838 84.7513C70.8987 84.7861 71.1316 84.873 71.3465 84.8556C71.7047 84.8556 72.0629 84.7861 72.4212 84.7513C72.4391 84.8208 72.457 84.9078 72.4749 84.9773C72.2241 85.099 71.9734 85.2207 71.6331 85.3946C73.3525 85.4815 73.3525 85.4815 73.4242 86.3682C72.8689 85.8466 72.3316 86.2639 71.7943 86.3334C70.5763 86.4725 69.7345 87.0289 69.2867 88.1938C69.1435 88.5589 68.7494 88.8197 68.3912 89.2196C68.4091 89.2717 68.4628 89.4456 68.4987 89.6368C67.7285 89.376 67.5494 89.0109 67.9255 88.3503C68.2121 87.8461 68.5882 87.3766 68.9285 86.8898C69.233 86.4552 69.233 86.09 68.6599 85.8466C67.7285 85.4468 66.9404 84.8035 65.8478 84.6991C65.4359 84.6644 65.0777 84.1254 64.6657 83.7777C64.4687 84.0906 64.2 84.4557 63.9851 84.873C63.3582 86.1074 62.3015 86.855 60.9761 87.2028C56.8028 88.3155 52.8624 87.6896 49.1906 85.4815C48.5817 85.1338 48.1339 84.5948 47.5249 84.0732Z" fill="#20113D"/>
<defs>
<filter id="filter0_d" x="4.66675" y="8.50098" width="112" height="112" filterUnits="userSpaceOnUse" color-interpolation-filters="sRGB">
<feFlood flood-opacity="0" result="BackgroundImageFix"/>
<feColorMatrix in="SourceAlpha" type="matrix" values="0 0 0 0 0 0 0 0 0 0 0 0 0 0 0 0 0 0 127 0"/>
<feOffset dy="4"/>
<feGaussianBlur stdDeviation="2"/>
<feColorMatrix type="matrix" values="0 0 0 0 0 0 0 0 0 0 0 0 0 0 0 0 0 0 0.25 0"/>
<feBlend mode="normal" in2="BackgroundImageFix" result="effect1_dropShadow"/>
<feBlend mode="normal" in="SourceGraphic" in2="effect1_dropShadow" result="shape"/>
</filter>
</defs>
</svg>
