<svg width="121" height="121" viewBox="0 0 121 121" fill="none" xmlns="http://www.w3.org/2000/svg">
<circle cx="60.6665" cy="60.501" r="58.5" stroke="white" stroke-width="3"/>
<g filter="url(#filter0_d)">
<circle cx="60.6665" cy="60.501" r="52" fill="white"/>
</g>
<path fill-rule="evenodd" clip-rule="evenodd" d="M48.9811 67.2543C45.697 68.2478 42.3873 68.095 39.0523 65.8786C38.7961 66.2008 38.5336 66.5252 38.2685 66.8528C37.6113 67.6649 36.9376 68.4974 36.3027 69.3687C35.8317 70.0438 35.3926 70.7444 34.9534 71.445L34.9534 71.445C34.5142 72.1456 34.0751 72.8462 33.6041 73.5213C32.5603 75.0243 32.1784 76.6547 32.2803 78.4635C32.4075 80.7818 31.491 81.9536 29.2252 82.3613C24.5663 83.2019 20.3911 79.7373 20.3656 75.0243C20.3656 74.5641 20.3574 74.1039 20.3492 73.6453C20.337 72.9616 20.3249 72.2815 20.3401 71.6106C20.3829 69.8115 21.1635 68.2465 21.9405 66.6886C22.0878 66.3934 22.2349 66.0984 22.3768 65.8022C22.7441 65.04 23.1149 64.279 23.4857 63.518C24.8624 60.6921 26.2397 57.8652 27.4431 54.9751C29.2121 50.7394 31.8694 47.0964 34.5362 43.4404C35.0934 42.6766 35.6509 41.9123 36.2009 41.1418C36.2273 41.1089 36.2553 41.0759 36.2838 41.0425L36.284 41.0423L36.284 41.0422L36.284 41.0422L36.284 41.0422L36.284 41.0422C36.3654 40.9466 36.4498 40.8474 36.5064 40.7342C39.4851 35.308 44.7805 34.0342 50.2286 32.9642C51.5722 32.7048 52.9048 32.3798 54.2366 32.055C55.7818 31.6782 57.3258 31.3017 58.8846 31.0281C61.7359 30.5185 64.6637 30.1109 67.566 30.009C71.0029 29.8817 73.9052 31.4866 76.4765 33.703C72.5813 31.7159 68.4061 31.0281 64.0781 31.13C62.9834 31.1554 61.8887 31.2573 60.794 31.3847C59.2155 31.563 58.5536 32.7349 58.1208 34.0851C57.0006 37.5243 57.2298 40.9126 58.4263 44.3263C58.7147 45.1464 58.8945 46.0119 59.0736 46.874L59.0736 46.874L59.0736 46.8741L59.0736 46.8741L59.0736 46.8742C59.1949 47.458 59.3159 48.0404 59.4701 48.6062C59.6667 49.3112 59.8586 50.0185 60.0507 50.7261L60.0508 50.7267C60.7538 53.3177 61.4581 55.9131 62.3979 58.4143C62.7797 59.4587 64.0527 60.4778 65.1474 60.8854C69.4499 62.4394 73.8543 63.2801 78.4114 61.7261C84.1396 59.7645 87.0928 53.6503 84.9288 47.9693C84.2354 46.1696 83.4129 44.4253 82.5869 42.6735L82.5868 42.6734L82.5868 42.6733C82.4423 42.367 82.2978 42.0604 82.1538 41.7533C82.0219 41.4705 81.7507 41.2435 81.4844 41.0208L81.4844 41.0208C81.3908 40.9425 81.2979 40.8647 81.2118 40.7852C80.8826 40.4726 80.5393 40.1684 80.195 39.8634C79.5012 39.2485 78.8033 38.6301 78.2077 37.9319C77.3676 36.9384 77.393 35.6901 78.1313 34.6201C78.8442 33.5756 79.9898 33.3209 81.1863 33.5247C83.0448 33.8304 84.2414 34.9768 84.8524 36.6836C85.438 38.3395 84.8779 39.7662 83.4267 41.0145C85.3361 42.594 85.9726 44.8613 86.5327 47.1031C86.7447 47.9519 86.8587 48.828 86.9729 49.7062V49.7062C87.1054 50.7257 87.2383 51.7478 87.5256 52.7332C88.0052 54.365 88.5807 55.9746 89.1567 57.5858C89.651 58.9682 90.1456 60.3517 90.5806 61.7516C91.1454 63.5437 91.6656 65.3508 92.1853 67.1567L92.1855 67.1574C92.6262 68.6884 93.0666 70.2186 93.5338 71.738C93.7942 72.5847 94.1274 73.4107 94.4603 74.2358L94.4603 74.236L94.4604 74.2361L94.4605 74.2363L94.4606 74.2367C94.6484 74.7021 94.836 75.1673 95.0104 75.6357C95.5684 77.1174 96.8318 77.7846 98.084 78.4458C98.3174 78.5691 98.5503 78.6921 98.7783 78.8202C99.9494 79.4825 100.56 80.3487 100.255 81.7244C99.9748 83.0236 99.1347 83.8388 97.5817 83.7879C94.3994 83.6605 91.2425 83.3548 88.0857 83.0236C87.551 82.9727 86.9909 82.4122 86.6091 81.9537C84.4705 79.3806 82.3575 76.7821 80.2698 74.1836C78.8187 72.3749 77.7494 70.3878 77.1894 68.1204C76.9513 67.1875 76.466 66.3009 75.9862 65.4246C75.8502 65.1763 75.7147 64.9288 75.5854 64.6812C75.4581 64.4265 75.1017 64.1972 74.8217 64.1462L74.6206 64.1064C73.0077 63.7855 71.4033 63.4664 70.01 64.885C69.6553 65.2653 69.0738 65.469 68.5664 65.6467L68.5589 65.6493C67.6678 65.955 67.2605 66.5155 67.5914 67.3816C68.7659 70.5326 68.6772 73.7518 68.5883 76.9785V76.9786C68.5442 78.5782 68.5001 80.1795 68.6098 81.7753C68.655 82.3867 68.7405 82.9981 68.826 83.6096C68.9329 84.3738 69.0397 85.1381 69.068 85.9024C69.0935 86.4883 68.8389 87.329 68.4316 87.6347C65.0456 90.1822 61.2522 90.6153 57.357 89.2142C55.4222 88.5009 54.1238 87.0997 53.8183 84.705C53.2327 79.7373 52.4435 74.795 51.4252 69.9037C51.0585 68.0689 50.1759 66.3167 49.3161 64.6099L49.3161 64.6097L49.316 64.6096L49.316 64.6095C49.2208 64.4206 49.1259 64.2322 49.0321 64.0444C46.588 59.1785 45.9007 54.1344 46.7662 48.7335C47.4791 44.2499 48.4465 39.97 51.4252 36.4289C52.0395 35.7056 52.7693 35.085 53.4962 34.4669L53.4963 34.4668L53.4964 34.4667L53.4964 34.4667C53.7936 34.214 54.0903 33.9617 54.3784 33.703C54.4219 33.6656 54.4685 33.6298 54.5156 33.5936C54.661 33.4818 54.8106 33.3667 54.8876 33.1935C50.9669 33.2444 47.4282 34.3399 43.9403 35.9703C40.673 37.4697 38.8006 40.1437 36.9048 42.8513L36.9047 42.8513C36.4814 43.4559 36.0568 44.0622 35.6153 44.6575C35.4371 44.9122 35.4371 45.3453 35.4626 45.702C35.8364 49.2683 37.2106 52.5172 38.5819 55.7595L38.6704 55.9686C38.9431 56.5873 39.086 57.271 39.2289 57.9547C39.2861 58.2281 39.3432 58.5016 39.4087 58.7709C39.5614 59.4588 39.7142 60.1721 39.7651 60.8854C39.7755 61.0304 39.7868 61.1764 39.7981 61.3229C39.8704 62.2578 39.9446 63.2178 39.7906 64.1208C39.4851 65.7257 39.6124 66.2098 41.2672 66.4645C41.7923 66.5171 42.3218 66.5696 42.8536 66.6224L42.8664 66.6237L42.8743 66.6245L42.8802 66.625C44.9179 66.8273 46.9893 67.0328 48.9811 67.2543ZM61.2527 43.3358C59.7761 42.7243 59.1651 41.2722 58.9614 39.5654C58.7323 37.7057 60.4126 35.3874 62.3729 34.6995C63.9259 34.1646 66.1153 35.0307 66.9809 36.5593C67.4901 37.4764 67.6937 38.2152 66.5736 39.0049C65.3061 39.8927 64.1288 40.8965 62.8585 41.9796C62.3426 42.4194 61.8115 42.8723 61.2527 43.3358ZM66.0891 51.1539C65.6308 53.1665 66.9292 54.7715 68.5077 54.6441C68.6506 54.1883 68.7872 53.7418 68.922 53.3015C69.1714 52.4868 69.4143 51.693 69.6788 50.8992C69.7488 50.7007 69.8455 50.5076 69.942 50.3149L69.9421 50.3148L69.9421 50.3148C70.0561 50.0871 70.1699 49.86 70.2388 49.6254C70.4425 48.8866 70.6716 47.9185 69.7297 47.6893C69.0423 47.5364 67.9476 47.7657 67.5148 48.2497C66.8274 49.014 66.3182 50.1094 66.0891 51.1539ZM75.1768 48.3014C75.2904 48.1497 75.3951 47.9845 75.4981 47.8218C75.7412 47.4381 75.9751 47.0688 76.2969 46.9257C76.6279 46.7728 77.3408 47.0785 77.6972 47.3842C77.7757 47.4519 77.8546 47.5196 77.9337 47.5874L77.9337 47.5874C78.7772 48.3108 79.6378 49.0489 80.243 49.9573C80.574 50.4922 80.4467 51.4858 80.2176 52.1482C80.0394 52.6322 79.3774 53.1417 78.8683 53.2436C78.5373 53.2945 78.0027 52.6831 77.6717 52.2755C77.1116 51.5877 76.6279 50.8744 76.1442 50.1101C75.8977 49.7754 75.7121 49.3919 75.4948 48.9429L75.4947 48.9428C75.3978 48.7426 75.2945 48.5292 75.1768 48.3014ZM76.512 57.4548L76.5266 57.4458C76.5194 57.4023 76.5101 57.3568 76.5005 57.3097C76.4763 57.1915 76.4503 57.0639 76.4503 56.9363C76.3145 56.9024 76.1787 56.8571 76.0429 56.8118C75.7714 56.7212 75.4998 56.6306 75.2283 56.6306C74.1845 56.6306 73.1406 56.6561 72.1223 56.7835C71.715 56.8344 71.2312 57.1147 71.053 57.4204C70.9512 57.5987 71.2822 58.1591 71.5622 58.4139C71.7109 58.5627 71.9291 58.6159 72.1509 58.67C72.3087 58.7084 72.4684 58.7474 72.606 58.8215C72.8861 58.9744 73.3952 59.2801 73.3698 59.4075C73.2679 59.7641 73.0133 60.1208 72.7078 60.3755C72.5599 60.5071 72.3484 60.5537 72.0868 60.6114C71.9432 60.643 71.7846 60.678 71.6131 60.7322C72.6013 60.6673 73.5173 60.6025 74.4333 60.5377C74.9569 60.5006 75.4804 60.4635 76.0175 60.4265C75.7169 60.2928 75.3725 60.2523 75.0409 60.2133C74.3613 60.1333 73.7354 60.0597 73.6498 59.2037C74.688 58.5702 75.6003 58.0123 76.512 57.4548Z" fill="#20113D"/>
<defs>
<filter id="filter0_d" x="4.6665" y="8.50098" width="112" height="112" filterUnits="userSpaceOnUse" color-interpolation-filters="sRGB">
<feFlood flood-opacity="0" result="BackgroundImageFix"/>
<feColorMatrix in="SourceAlpha" type="matrix" values="0 0 0 0 0 0 0 0 0 0 0 0 0 0 0 0 0 0 127 0"/>
<feOffset dy="4"/>
<feGaussianBlur stdDeviation="2"/>
<feColorMatrix type="matrix" values="0 0 0 0 0 0 0 0 0 0 0 0 0 0 0 0 0 0 0.25 0"/>
<feBlend mode="normal" in2="BackgroundImageFix" result="effect1_dropShadow"/>
<feBlend mode="normal" in="SourceGraphic" in2="effect1_dropShadow" result="shape"/>
</filter>
</defs>
</svg>
