<svg width="121" height="121" viewBox="0 0 121 121" fill="none" xmlns="http://www.w3.org/2000/svg">
<circle cx="60.6666" cy="60.5005" r="58.5" stroke="white" stroke-width="3"/>
<g filter="url(#filter0_d)">
<circle cx="60.6666" cy="60.5005" r="52" fill="white"/>
</g>
<path fill-rule="evenodd" clip-rule="evenodd" d="M59.726 30.0101C60.6671 29.9574 61.5646 30.1506 62.4883 30.4754C62.4578 30.5625 62.4295 30.6481 62.4017 30.7322L62.4017 30.7323C62.3342 30.9364 62.2697 31.1318 62.1833 31.3183C61.9175 31.8934 61.6474 32.4685 61.3773 33.0436C61.1071 33.6187 60.837 34.1939 60.5712 34.769L60.5705 34.7706C60.4274 35.0808 60.3577 35.2318 60.2405 35.2955C60.1293 35.356 59.9754 35.3377 59.6752 35.3021L59.6214 35.2958C59.3164 35.2606 59.1334 35.1289 59.0899 34.8304C59.0714 34.7047 59.048 34.5784 59.0246 34.4519L59.0246 34.4519L59.0246 34.4518L59.0245 34.4518L59.0245 34.4518L59.0245 34.4517L59.0245 34.4517L59.0245 34.4517L59.0245 34.4516L59.0245 34.4516L59.0245 34.4516C58.9596 34.1012 58.8946 33.7499 58.933 33.408C59.0292 32.5634 59.185 31.7242 59.3406 30.8861L59.3406 30.8861L59.3406 30.886L59.3406 30.8859L59.3406 30.8858L59.3407 30.8857L59.3407 30.8856L59.3407 30.8855L59.3407 30.8855L59.3407 30.8855L59.3407 30.8854L59.3407 30.8854C59.3824 30.6609 59.4241 30.4365 59.4646 30.212C59.482 30.133 59.6301 30.0189 59.726 30.0101ZM53.8538 32.8557L53.854 32.8559L53.854 32.856L53.8541 32.8561C54.4318 33.7219 54.9971 34.569 55.5871 35.4012C55.8049 35.7173 56.1012 35.9983 56.5805 35.8051C57.3125 35.5242 57.4954 35.331 57.2776 34.5583C57.0169 33.6192 57.1787 32.7161 57.3411 31.8098L57.3411 31.8098C57.3578 31.7163 57.3746 31.6228 57.3909 31.5292C57.4519 31.1955 57.4432 30.8268 57.3647 30.4931C57.3299 30.3351 57.0162 30.098 56.8942 30.1243C55.561 30.458 54.3933 31.1165 53.2779 31.9945C53.4721 32.2837 53.6636 32.5707 53.8538 32.8557ZM50.431 39.551C51.0415 40.0001 51.6537 40.4505 52.2769 40.9064C52.0677 41.9162 51.5275 42.4869 50.4731 42.601C49.0179 42.7503 47.7892 42.1532 46.6825 41.2576C46.6215 41.205 46.5954 41.0118 46.639 40.924C46.7029 40.7806 46.7666 40.6369 46.8303 40.4931L46.8309 40.4917L46.8317 40.4899L46.832 40.4894L46.8327 40.4878L46.8327 40.4877L46.8327 40.4877L46.8327 40.4877L46.8327 40.4876L46.8328 40.4876L46.8328 40.4876L46.8328 40.4875L46.8328 40.4875L46.8328 40.4875L46.8328 40.4874L46.8329 40.4874L46.8329 40.4873L46.8329 40.4873L46.8329 40.4873C47.1155 39.8495 47.3987 39.2103 47.7108 38.5885C47.7946 38.4135 47.9318 38.2676 48.0632 38.128L48.0633 38.1279C48.1231 38.0643 48.1818 38.0019 48.2336 37.9387C48.973 38.4784 49.6995 39.0129 50.4286 39.5492L50.4301 39.5504L50.4304 39.5506L50.431 39.551ZM50.8206 44.9174C49.1737 44.5048 47.579 44.1009 45.8624 43.6619C45.8256 43.8657 45.7845 44.076 45.7426 44.2909L45.7425 44.291C45.6651 44.6871 45.5847 45.099 45.5225 45.5145C45.4629 45.908 45.4235 46.3048 45.3833 46.7094V46.7094C45.359 46.9548 45.3343 47.203 45.3047 47.4549C46.6815 48.1486 48.0932 48.3417 49.4874 47.5339C50.4808 46.972 50.8729 46.0413 50.8206 44.9174ZM45.3657 49.5721C45.1042 50.9594 45.3134 52.2676 45.8013 53.5408C45.8449 53.6461 45.9582 53.7603 46.0628 53.7954C48.1192 54.489 50.4372 53.1017 50.7596 51.2316C50.8031 50.9769 50.8206 50.7047 50.8031 50.4501C50.6986 49.335 50.4894 49.177 49.4089 49.335L49.0976 49.3806C48.356 49.4894 47.6136 49.5983 46.8644 49.6599C46.5354 49.684 46.1981 49.6502 45.8498 49.6152C45.6908 49.5993 45.5295 49.5831 45.3657 49.5721ZM51.2215 57.8065C51.9186 56.3139 51.7007 55.2427 50.5244 54.312C49.3044 55.2427 47.8928 55.5851 46.3765 55.6378C46.272 55.6378 46.0977 55.7871 46.0715 55.9012C45.8363 57.0163 46.1674 58.0085 46.7861 58.9216C46.8356 58.9937 46.9303 59.0308 47.0373 59.0727C47.0997 59.0971 47.1663 59.1231 47.2305 59.1587C47.2003 59.179 47.1709 59.1992 47.1417 59.2193L47.1417 59.2193C47.0698 59.2688 46.9999 59.3169 46.9255 59.3606C45.3396 60.3177 44.0586 61.5733 43.3005 63.2854C42.3071 65.5419 41.9499 67.8687 42.8474 70.2657C43.0089 70.6965 43.1575 71.1352 43.3059 71.5732L43.3059 71.5734L43.306 71.5735L43.306 71.5736L43.3061 71.5738L43.3061 71.5739L43.3062 71.5741L43.3062 71.5742L43.3062 71.5743L43.3063 71.5745L43.3063 71.5746L43.3064 71.5747L43.3064 71.5749L43.3065 71.575L43.3065 71.5751L43.3066 71.5753L43.3066 71.5754L43.3067 71.5756C43.4301 71.9401 43.5534 72.3041 43.6839 72.6627C44.1196 73.8743 44.1545 75.1211 43.8059 76.3328C42.7777 79.8712 43.7449 83.1199 45.113 86.3247C45.2331 86.5926 45.4291 86.8349 45.618 87.0685L45.6271 87.0798C45.8885 87.4047 46.2284 87.51 46.6379 87.3695C47.0475 87.2203 47.3438 86.9481 47.3263 86.5179C47.3089 85.9647 47.2392 85.4116 47.1085 84.876C47.0083 84.4501 46.8863 84.0287 46.7643 83.6072C46.6423 83.1858 46.5203 82.7643 46.4201 82.3385C46.1413 81.1356 46.4985 80.1434 47.4745 79.3971C47.5161 79.3663 47.5568 79.3347 47.5973 79.3033L47.5974 79.3032L47.5975 79.3031L47.5976 79.3031L47.5977 79.303L47.5977 79.3029L47.5978 79.3029L47.5978 79.3029L47.5979 79.3028L47.5981 79.3026C47.6843 79.2357 47.7691 79.1698 47.8579 79.1161C49.3305 78.2645 50.2368 76.9299 50.9862 75.446C51.1954 75.0243 51.4663 74.6315 51.7367 74.2393L51.7367 74.2392C51.8604 74.0599 51.984 73.8806 52.1016 73.6987L52.2061 73.7514C52.2584 73.9972 52.3118 74.2431 52.3652 74.4889L52.3652 74.4891C52.5253 75.2266 52.6854 75.9641 52.8161 76.7016C53.3999 79.9064 55.2821 82.3209 57.4606 84.5687C57.6755 84.7938 57.9582 84.9592 58.2251 85.1153L58.2362 85.1218C58.6021 85.3413 58.9768 85.3413 59.3254 85.0516C59.6827 84.753 59.8134 84.3755 59.6565 83.954C59.4997 83.5501 59.2993 83.155 59.0553 82.795C58.8022 82.4268 58.529 82.0737 58.256 81.7209C58.0213 81.4176 57.7867 81.1145 57.5652 80.8019C56.5282 79.3444 56.4847 78.3171 57.5042 76.8596C58.3146 75.6918 58.8723 74.4187 59.369 73.0402C59.5076 73.1052 59.6439 73.1654 59.7773 73.2243L59.7775 73.2243L59.7776 73.2244L59.7777 73.2245L59.7778 73.2245L59.778 73.2246C60.0049 73.3248 60.2237 73.4214 60.4321 73.5319C62.5757 74.7085 63.8915 76.5611 64.6757 78.8352C64.9943 79.7422 65.2688 80.6658 65.5429 81.5884L65.543 81.5885L65.5432 81.5892C65.614 81.8274 65.6848 82.0656 65.7563 82.3034C66.009 83.1463 66.4185 83.8926 66.9762 84.5599C67.189 84.8128 67.4015 85.0658 67.6139 85.3187L67.614 85.3187L67.614 85.3187L67.614 85.3187C68.6108 86.5052 69.6058 87.6897 70.6186 88.8622C70.9062 89.1958 71.2547 89.5119 71.6294 89.749C72.3091 90.1792 72.9714 90.0475 73.5988 89.4417C74.0519 89.0027 74.1303 88.4583 73.7208 87.7647C73.4858 87.3652 73.1829 87.0031 72.8848 86.6469L72.8847 86.6468L72.8847 86.6468L72.8846 86.6467L72.8842 86.6462C72.8287 86.5799 72.7734 86.5137 72.7187 86.4476C72.5444 86.2369 72.344 86.0349 72.1349 85.8593C70.3659 84.3404 69.9302 82.3297 70.0087 80.1259C70.0213 79.7558 70.0662 79.3858 70.1098 79.0258L70.1098 79.0257C70.1263 78.8904 70.1425 78.7564 70.1568 78.6244C70.4294 78.572 70.6988 78.5195 70.9623 78.4682L70.9639 78.4679C71.4494 78.3733 71.915 78.2826 72.344 78.203C72.5065 78.5637 72.6585 78.9324 72.8108 79.3017C73.1405 80.1009 73.4715 80.9034 73.9125 81.6361C74.5612 82.7161 75.3298 83.7213 76.0982 84.7263L76.0986 84.7268L76.0987 84.7269L76.0987 84.727C76.2797 84.9636 76.4606 85.2003 76.6399 85.4379C76.9449 85.8418 77.3545 86.1666 77.9122 86.0349C78.2084 85.9647 78.435 85.1569 78.2869 84.5862C78.1475 84.0506 77.9819 83.5062 77.7118 83.0321C76.5092 80.8985 76.0474 78.5542 75.725 76.1748C75.5594 74.9631 74.8449 74.4187 73.6424 74.6558C71.3942 75.1036 69.1373 75.3231 66.8455 75.1211C66.6887 75.1036 66.5319 75.0685 66.3751 75.0334L66.375 75.0333C64.7542 74.647 64.1093 73.1368 64.9459 71.6705C64.972 71.6178 64.9982 71.5651 65.0417 71.5212C65.8208 70.7298 66.243 69.7466 66.667 68.7594C66.8169 68.4105 66.967 68.061 67.1331 67.7194C67.4642 67.0521 68.0916 66.4902 68.6929 65.9985C69.4335 65.4014 70.3398 65.1029 71.2722 64.901C71.4029 64.8746 71.5946 64.7517 71.6207 64.6463C71.6469 64.5234 71.5423 64.2951 71.4377 64.2424C71.3712 64.2108 71.3043 64.1783 71.237 64.1456C70.8374 63.9512 70.4251 63.7507 69.9999 63.6981C69.3028 63.6103 68.5796 63.6278 67.8738 63.6981C67.0895 63.7771 66.3924 63.5312 65.7388 63.2152C65.0417 62.8815 64.3795 62.4249 63.7521 61.9684C62.0354 60.7128 60.3014 59.4923 58.332 58.6582C56.2232 57.7539 54.0361 57.4553 51.7704 57.789C51.6049 57.7714 51.4219 57.7802 51.2215 57.8065ZM60.7799 56.1165C60.0827 56.5555 59.3246 56.7487 58.5055 56.7487C57.7213 56.7224 56.9719 56.5643 56.3358 56.0726C55.6299 55.537 55.3598 54.7468 55.7694 53.9829C56.0308 53.5022 56.3951 53.0808 56.7595 52.6593L56.7596 52.6592L56.7597 52.659L56.7598 52.6589L56.7599 52.6588L56.7601 52.6586L56.7602 52.6585L56.7603 52.6583L56.7604 52.6582L56.7605 52.658L56.7607 52.6579L56.7608 52.6578L56.7609 52.6576L56.7609 52.6576L56.7609 52.6576L56.761 52.6576L56.761 52.6576C56.8819 52.5177 57.0029 52.3778 57.12 52.2357C57.181 52.1654 57.3291 52.1391 57.4337 52.1479C59.3246 52.3323 60.7886 53.6405 61.1284 55.2912C61.2156 55.6951 61.1023 55.9146 60.7799 56.1165ZM51.3169 33.5325C52.3102 34.2876 53.7045 36.0085 54.6543 37.6328L54.5563 37.7578L54.5563 37.7578L54.5563 37.7578L54.5561 37.758L54.556 37.7581L54.5559 37.7583C54.3313 38.0445 54.1191 38.3149 53.9136 38.5987C53.7306 38.8533 53.5128 38.9147 53.1991 38.8182C51.587 38.3001 50.4803 37.1411 49.3127 35.8943C49.9917 35.0961 50.6534 34.3154 51.315 33.5347L51.3154 33.5342L51.3169 33.5325ZM64.9107 38.9243C65.6288 38.3011 66.5034 38.1922 67.3832 38.0826L67.3832 38.0826L67.3833 38.0826L67.3833 38.0826L67.3834 38.0826L67.3834 38.0826L67.3834 38.0826L67.3835 38.0826L67.3835 38.0826L67.3836 38.0826L67.3836 38.0825L67.3837 38.0825C67.5821 38.0578 67.7808 38.0331 67.978 38.0024C68.4311 37.9321 68.8843 37.8004 69.32 37.66C69.4158 37.6248 69.5552 37.4492 69.5378 37.3614C69.4071 36.4922 69.137 35.6756 68.4137 35.1137C68.2917 35.0171 68.0913 34.9556 67.9519 34.9732C66.8888 35.14 65.9041 35.5088 65.024 36.1322C64.9194 36.2112 64.8149 36.2902 64.719 36.378C63.8128 37.2209 63.8738 38.178 64.9107 38.9243ZM65.251 53.3303C64.3709 51.7499 60.5368 50.2397 59.5434 51.0914C59.5434 51.1177 59.5434 51.1616 59.5608 51.1704C60.7459 52.2065 61.5998 53.5147 62.4277 54.8405C62.6281 55.1654 62.8285 55.183 63.1422 55.0776C63.8742 54.8317 64.7107 54.1469 65.251 53.3303ZM71.1058 70.3714C70.9751 71.0474 70.705 71.2494 70.0079 71.267C69.8854 71.244 69.7629 71.2257 69.641 71.2075C69.39 71.1701 69.1417 71.1331 68.9012 71.0562C68.1169 70.8192 67.7771 70.266 67.9252 69.4494C67.9775 69.1509 68.0908 68.8612 68.2215 68.589C68.6921 67.6319 69.4676 66.9559 70.3564 66.4115C70.6614 66.2271 71.0274 66.113 71.3759 66.0515C71.537 66.0203 71.7158 66.0645 71.8933 66.1085C71.9655 66.1264 72.0374 66.1442 72.1079 66.1569C72.0932 66.2213 72.0819 66.2892 72.0705 66.3575C72.0417 66.5311 72.0125 66.7069 71.9249 66.8329C71.4195 67.5617 71.2714 68.3783 71.2278 69.2387C71.2104 69.6163 71.1755 70.0026 71.1058 70.3714ZM69.4937 69.0895C69.1103 69.0895 68.7705 69.4319 68.7792 69.8182C68.7814 69.9178 68.8041 70.0124 68.843 70.098C68.8046 70.0129 68.7823 69.9191 68.7801 69.8203C68.7801 69.434 69.1113 69.0916 69.4947 69.0916C69.7778 69.0916 70.0246 69.2609 70.1367 69.5071C70.0251 69.2598 69.7777 69.0895 69.4937 69.0895ZM65.1723 41.3614C65.5118 41.3898 65.8491 41.4178 66.1848 41.4457L66.1849 41.4457L66.1851 41.4457L66.1851 41.4457L66.1852 41.4457L66.1853 41.4457C67.5123 41.5558 68.8127 41.6638 70.1131 41.7829C70.4965 41.818 70.6185 41.6688 70.6534 41.3088C70.7231 40.5361 70.4617 39.9303 69.8168 39.5088C68.7276 38.8064 66.7844 38.9293 65.791 39.7722C65.2856 40.1937 65.0677 40.7293 65.1723 41.3614ZM64.3883 31.2554C65.434 31.8261 66.4274 32.4056 67.1245 33.3977C65.5212 34.346 63.9701 35.2679 62.419 36.1986C62.1314 35.7421 62.0966 35.4348 62.3057 34.7938C62.7033 33.5593 63.456 32.5303 64.219 31.4872L64.2194 31.4866L64.22 31.4858C64.2761 31.4091 64.3323 31.3323 64.3883 31.2554ZM62.0182 49.4949C63.1051 49.8673 63.9785 50.5402 64.8687 51.2261L64.8688 51.2261C65.406 51.64 65.9493 52.0586 66.5495 52.4188C66.6311 52.2893 66.7123 52.1609 66.7931 52.0333L66.7941 52.0316L66.7948 52.0306L66.7949 52.0304C67.1189 51.5184 67.4351 51.0187 67.7346 50.5134C67.7781 50.4432 67.752 50.2413 67.6823 50.1886C66.5495 49.293 65.3295 48.573 63.8394 48.5028C63.0988 48.4852 62.4365 48.6784 62.0182 49.4949ZM70.3054 43.6652C70.288 44.3845 70.2701 45.1212 69.8087 45.7265C69.6276 45.6665 69.4485 45.6058 69.2705 45.5455C68.7979 45.3854 68.334 45.2283 67.8655 45.0943C67.0377 44.8748 66.2099 44.6729 65.3733 44.4885C65.0596 44.4182 64.9899 44.2602 65.0335 43.9617C65.1468 43.1363 65.7132 42.6271 66.6717 42.5919C67.9004 42.5393 69.0332 42.9519 70.1399 43.4436C70.2183 43.4788 70.3054 43.5929 70.3054 43.6631L70.3054 43.6652ZM67.2276 70.3887C67.0415 70.6178 66.8751 70.8193 66.7199 71.0071L66.7194 71.0077C66.5477 71.2155 66.3897 71.4067 66.2342 71.6003C66.1808 71.667 66.1251 71.7321 66.0696 71.7971L66.0695 71.7972C65.935 71.9547 65.8013 72.1112 65.7026 72.2852C65.3802 72.8471 65.5371 73.4617 66.1296 73.7164C66.6002 73.9183 67.123 74.05 67.6284 74.1027C68.9791 74.252 70.3123 74.1203 71.6194 73.7252C71.5322 73.1105 71.2534 72.8296 70.6434 72.7681C70.3389 72.7407 70.0311 72.7304 69.724 72.7201L69.7239 72.7201L69.7237 72.7201L69.7235 72.7201C69.5387 72.7139 69.3541 72.7078 69.1708 72.6979C67.9857 72.6276 67.794 72.4432 67.5587 71.2842C67.5178 71.0899 67.4377 70.8996 67.3526 70.6973C67.3108 70.5979 67.2678 70.4957 67.2276 70.3887ZM68.3266 48.922C66.9324 48.1932 65.512 47.5611 63.9348 47.245C64.1613 46.1211 64.902 45.6206 66.0697 45.7699C67.2461 45.9104 68.2917 46.4021 69.2503 47.0781C69.3461 47.1484 69.4681 47.3064 69.442 47.3767C69.2503 47.8684 69.0498 48.3688 68.7971 48.8342C68.7449 48.922 68.4399 48.9835 68.3266 48.922ZM72.1525 68.5286C72.1525 69.4417 72.3006 69.591 72.9978 69.4593C73.2853 69.4066 73.5903 69.2837 73.8256 69.1081C74.7318 68.432 74.9845 66.7989 74.3571 65.8945C74.209 65.6838 74.0783 65.596 73.8343 65.7716C72.8235 66.5179 72.1961 67.4574 72.1525 68.5286Z" fill="#20113D"/>
<defs>
<filter id="filter0_d" x="4.66663" y="8.50049" width="112" height="112" filterUnits="userSpaceOnUse" color-interpolation-filters="sRGB">
<feFlood flood-opacity="0" result="BackgroundImageFix"/>
<feColorMatrix in="SourceAlpha" type="matrix" values="0 0 0 0 0 0 0 0 0 0 0 0 0 0 0 0 0 0 127 0"/>
<feOffset dy="4"/>
<feGaussianBlur stdDeviation="2"/>
<feColorMatrix type="matrix" values="0 0 0 0 0 0 0 0 0 0 0 0 0 0 0 0 0 0 0.25 0"/>
<feBlend mode="normal" in2="BackgroundImageFix" result="effect1_dropShadow"/>
<feBlend mode="normal" in="SourceGraphic" in2="effect1_dropShadow" result="shape"/>
</filter>
</defs>
</svg>
