<svg width="121" height="121" viewBox="0 0 121 121" fill="none" xmlns="http://www.w3.org/2000/svg">
<circle cx="60.6667" cy="60.501" r="58.5" stroke="white" stroke-width="3"/>
<g filter="url(#filter0_d)">
<circle cx="60.6667" cy="60.501" r="52" fill="white"/>
</g>
<path fill-rule="evenodd" clip-rule="evenodd" d="M73.8646 56.4523C74.4886 57.7865 75.1126 59.1207 75.7593 60.5139C75.5959 60.6478 75.4304 60.786 75.2624 60.9264L75.2617 60.927L75.2616 60.9271C74.8816 61.2446 74.4891 61.5726 74.0802 61.8835C73.6259 62.2271 73.1754 62.5755 72.7251 62.9237L72.7244 62.9243L72.7243 62.9243C71.6118 63.7847 70.5007 64.6441 69.3379 65.4256C65.1515 68.2475 60.534 69.3927 55.5649 68.9441C54.3509 68.8378 53.0689 68.401 52.5584 68.0349C52.8532 65.9109 53.1367 63.8459 53.4201 61.7809L53.4206 61.7773C53.3866 61.7655 53.3497 61.7566 53.3129 61.7477C53.276 61.7389 53.2391 61.73 53.2051 61.7182C53.0946 61.9515 52.9851 62.1848 52.8757 62.4178L52.8753 62.4186C52.6028 62.9991 52.3311 63.5778 52.0479 64.1505C51.3121 65.6634 50.8188 67.27 50.3244 68.8802C50.186 69.3308 50.0475 69.7818 49.9036 70.231C48.996 73.0293 47.3737 75.1781 44.6168 76.2289C44.4806 76.288 44.3672 76.5241 44.3105 76.7012C44.1993 77.0683 44.1005 77.4397 44.0018 77.8108L44.0018 77.811C43.8687 78.3112 43.7358 78.8108 43.573 79.2987C42.9491 81.1879 41.7805 82.6519 40.2035 83.7736C39.5001 84.2695 38.7967 84.7772 38.1274 85.3203C37.5488 85.7808 37.5714 85.9815 38.1387 86.4419C38.2497 86.5321 38.3613 86.6208 38.4726 86.7094L38.4726 86.7094L38.4727 86.7095C38.828 86.9921 39.1805 87.2726 39.5001 87.5872C40.022 88.1067 40.2602 88.7679 40.0674 89.5236C40.022 89.7007 39.7611 89.9368 39.6022 89.9368C35.881 89.9604 32.1485 89.9604 28.4272 89.9486C28.2911 89.9486 28.0982 89.9014 28.0188 89.8069C27.9049 89.6626 27.7883 89.5188 27.6713 89.3746L27.6711 89.3743L27.671 89.3743C27.2523 88.858 26.8291 88.3364 26.5099 87.7643C26.3057 87.3983 26.283 86.7843 26.4192 86.3711C27.7352 82.2033 29.4256 78.2479 32.6136 75.2136C32.7498 75.0837 32.8292 74.8003 32.8405 74.5996C32.9199 71.6006 33.2603 68.6253 33.9977 65.7326C34.633 63.2295 35.3138 60.7264 36.5163 58.4241C38.7287 54.2208 41.5876 50.7142 45.9782 48.8251C49.7561 47.2075 53.4433 47.4555 57.0397 49.3682C57.5335 49.6331 57.98 49.9963 58.415 50.3502C58.6197 50.5167 58.8218 50.6811 59.0251 50.8322C58.6167 49.9113 57.902 49.1557 57.1305 48.459C57.857 48.1714 58.5861 47.8931 59.314 47.6152L59.3142 47.6152C62.5307 46.3873 65.722 45.1691 68.5437 43.205C68.668 43.6549 68.79 44.1093 68.9127 44.5663L68.9128 44.5664C69.0702 45.1527 69.2288 45.7433 69.3946 46.3338C69.44 46.4755 69.5308 46.6054 69.6442 46.7234C69.4173 45.2594 69.4173 43.7953 69.9505 42.4493C70.4497 41.1742 71.051 39.8872 71.8225 38.7774C73.7171 36.0854 75.9975 33.7476 78.5388 31.705L78.5388 31.705L78.5389 31.705C78.641 31.6223 78.743 31.5397 78.8565 31.4571C79.0387 31.336 79.2192 31.2071 79.4002 31.0778C80.2782 30.4507 81.1652 29.8171 82.2941 30.052C84.1547 30.4299 85.709 31.4453 86.7754 33.11C87.0817 33.5823 87.4334 33.9129 87.9213 34.09C89.1919 34.5505 90.1449 35.3416 90.7576 36.6285C90.9796 37.0987 91.2999 37.5151 91.6208 37.9322C91.7752 38.133 91.9298 38.334 92.0736 38.5412C92.3686 38.9663 92.4253 39.3205 92.0963 39.8164C91.824 40.2296 91.6879 40.7845 91.6084 41.2922C91.5063 41.8944 91.7332 42.284 92.3459 42.6146C93.9455 43.4647 94.8758 45.3656 93.9909 47.2902C93.8434 47.6089 93.7073 47.9277 93.5825 48.2583C92.9925 49.8405 91.8694 50.3954 90.3264 49.8405C90.3009 49.8316 90.2747 49.8227 90.2484 49.8139L90.2483 49.8139C90.1697 49.7873 90.091 49.7608 90.0315 49.7342C89.7478 50.1474 89.4642 50.5489 89.1579 50.9739C89.1144 50.9186 89.077 50.8782 89.0485 50.8474C89.0101 50.8059 88.9877 50.7817 88.9877 50.7614C89.0785 49.746 88.4885 49.1439 87.8305 48.5299C84.756 45.649 80.9894 46.1685 78.414 47.8333C78.7036 47.7722 78.9904 47.7055 79.2764 47.639L79.2765 47.639C79.8197 47.5127 80.36 47.3871 80.91 47.302C84.1774 46.8297 87.0136 48.3528 88.5226 51.399C89.5663 53.5006 90.3037 55.6967 90.1222 58.1289L90.1202 58.1574V58.1575C90.0868 58.6338 90.0504 59.1527 89.8613 59.5694C89.2033 61.0334 89.4075 62.5093 89.7705 63.9615L89.8374 64.2321C90.1781 65.612 90.5278 67.0285 91.1773 68.2475C93.6846 72.9348 93.8888 78 93.7073 83.136C93.6279 85.3439 92.9472 87.3038 91.2 88.7325C90.2243 89.5354 89.1806 90.0903 87.8759 89.984C87.2746 89.9368 86.6619 89.925 86.0607 89.984C84.9261 90.1139 84.1433 89.5236 83.474 88.6971C82.7479 87.8115 82.4189 86.7843 82.6231 85.6273C82.6798 85.3203 82.8954 84.9425 83.1449 84.8008C83.4585 84.6274 83.6874 84.868 83.9194 85.1117C83.956 85.1502 83.9927 85.1888 84.0299 85.2258C84.3795 85.578 84.8414 85.8368 85.2815 86.0834L85.2816 86.0835L85.2892 86.0877C85.6749 86.3003 85.8791 86.1231 85.9245 85.6745C85.9699 85.1432 85.8111 84.6945 85.4253 84.3521C83.2584 82.4276 81.897 79.9127 80.6717 77.3034C79.7301 75.2844 79.1288 73.171 78.9132 70.9276C78.7544 69.2392 79.038 67.5981 79.3443 65.9569C79.4918 65.2131 79.6393 64.4574 79.6847 63.69C79.7868 62.1669 79.2762 60.8799 78.0169 60.0653C76.4627 59.0617 75.0785 57.8574 73.9667 56.3461C73.9781 56.3815 73.9213 56.4169 73.8646 56.4523ZM77.1881 61.8147C77.8461 62.3696 78.0844 63.0072 77.9482 63.7983C77.8643 64.3097 77.772 64.8197 77.6796 65.3297L77.6795 65.3304L77.6795 65.3305C77.5096 66.2685 77.3397 67.2068 77.2221 68.155C76.8364 71.3547 77.5511 74.3773 78.7424 77.2936C78.9579 77.8249 78.9806 78.2499 78.7537 78.7813C77.7213 81.2135 76.5981 83.5867 75.146 85.7946C73.2627 88.6518 70.6306 89.9742 67.3405 89.9742C67.1461 89.9742 66.9527 89.9774 66.7597 89.9806H66.7596C66.3107 89.9881 65.864 89.9954 65.4118 89.9624C65.1849 89.9506 64.9013 89.7971 64.7765 89.6082C63.7214 88.1205 63.9029 85.0389 65.1168 83.6811C65.253 83.5276 65.5593 83.386 65.7295 83.445C65.8588 83.4931 65.9506 83.6978 66.0353 83.8869C66.0546 83.93 66.0736 83.9723 66.0925 84.0117C66.1393 84.1091 66.1734 84.2165 66.2072 84.3233C66.2636 84.5012 66.3194 84.6773 66.4329 84.8028C66.6371 85.0507 66.9888 85.4049 67.2157 85.3577C67.4539 85.3105 67.6922 84.8736 67.7943 84.5667C67.8964 84.2715 67.8624 83.9055 67.8056 83.5985C67.7234 83.1662 67.6203 82.7371 67.5174 82.3088L67.5173 82.3087C67.3364 81.5555 67.156 80.8048 67.0909 80.0446C66.7846 76.6324 67.0796 73.2792 68.4977 70.1268C68.8267 69.4066 69.2011 68.6745 69.6889 68.0606C70.1995 67.3994 70.8348 66.8208 71.4815 66.3013C72.1451 65.7587 72.8289 65.2455 73.5136 64.7317L73.5136 64.7316L73.5139 64.7314C73.9763 64.3844 74.4391 64.0371 74.8964 63.6802C75.4064 63.2761 75.9114 62.8614 76.425 62.4396C76.6767 62.2329 76.9306 62.0244 77.1881 61.8147ZM52.8044 70.2069C52.513 70.1172 52.2203 70.0271 51.9222 69.9358C51.8211 70.1637 51.7231 70.3948 51.6249 70.6268C51.4583 71.0198 51.2908 71.4152 51.1053 71.8013C49.9821 74.1627 48.5073 76.2171 46.2269 77.5395C46.0454 77.6457 45.9206 77.9173 45.8525 78.1416C45.3079 80.0425 44.6272 81.8608 43.3679 83.3957C43.2771 83.5138 43.1977 83.7263 43.2318 83.8562C43.6288 85.1667 44.0373 86.4773 44.4797 87.7643C44.5592 87.9886 44.7974 88.2011 45.013 88.331C45.8185 88.8033 46.624 89.2637 47.4522 89.7006C47.7245 89.8423 48.0421 89.9721 48.3371 89.9721C50.7361 89.9899 53.1287 89.9876 55.5246 89.9854C56.3238 89.9847 57.1234 89.984 57.9237 89.984H58.6272C58.5508 89.8212 58.4887 89.6624 58.4298 89.5121C58.3136 89.2155 58.2104 88.952 58.0372 88.756C57.6061 88.272 57.1182 87.8115 56.5964 87.4455C56.1063 87.1023 55.5742 86.8175 55.0441 86.5337C54.8993 86.4562 54.7546 86.3787 54.611 86.3002C54.0437 85.9814 53.7941 85.5091 53.8395 84.8479C53.8471 84.6905 53.8647 84.5331 53.8823 84.3757C53.8912 84.297 53.9 84.2182 53.9076 84.1395C53.9423 83.7821 53.9854 83.4235 54.0287 83.0645C54.1268 82.2496 54.2252 81.4325 54.2252 80.6211C54.2252 78.9327 53.4991 77.4804 52.4667 76.2053C54.2593 74.8121 54.611 72.8403 54.7811 70.8095C54.0993 70.6056 53.4553 70.4073 52.8044 70.2069Z" fill="#20113D"/>
<defs>
<filter id="filter0_d" x="4.66669" y="8.50098" width="112" height="112" filterUnits="userSpaceOnUse" color-interpolation-filters="sRGB">
<feFlood flood-opacity="0" result="BackgroundImageFix"/>
<feColorMatrix in="SourceAlpha" type="matrix" values="0 0 0 0 0 0 0 0 0 0 0 0 0 0 0 0 0 0 127 0"/>
<feOffset dy="4"/>
<feGaussianBlur stdDeviation="2"/>
<feColorMatrix type="matrix" values="0 0 0 0 0 0 0 0 0 0 0 0 0 0 0 0 0 0 0.25 0"/>
<feBlend mode="normal" in2="BackgroundImageFix" result="effect1_dropShadow"/>
<feBlend mode="normal" in="SourceGraphic" in2="effect1_dropShadow" result="shape"/>
</filter>
</defs>
</svg>
