<svg width="127" height="127" viewBox="0 0 127 127" fill="none" xmlns="http://www.w3.org/2000/svg">
<g filter="url(#filter0_d)">
<circle cx="63.6665" cy="63.501" r="52" fill="#F58021"/>
</g>
<path fill-rule="evenodd" clip-rule="evenodd" d="M62.7255 34.0106C63.6666 33.9579 64.5641 34.151 65.4878 34.4759C65.4573 34.563 65.429 34.6486 65.4012 34.7327L65.4012 34.7327C65.3338 34.9369 65.2692 35.1323 65.1828 35.3188C64.917 35.8939 64.6469 36.469 64.3768 37.0441C64.1066 37.6192 63.8365 38.1943 63.5707 38.7694L63.57 38.7711C63.4269 39.0813 63.3572 39.2323 63.24 39.296C63.1288 39.3565 62.9749 39.3382 62.6748 39.3026L62.6209 39.2963C62.3159 39.2611 62.1329 39.1294 62.0894 38.8309C62.0709 38.7052 62.0475 38.5788 62.0241 38.4524L62.0241 38.4523L62.0241 38.4523L62.0241 38.4523L62.0241 38.4522L62.024 38.4522L62.024 38.4522L62.024 38.4521L62.024 38.4521L62.024 38.4521L62.024 38.452C61.9592 38.1017 61.8941 37.7504 61.9325 37.4085C62.0287 36.5638 62.1845 35.7246 62.3401 34.8866L62.3401 34.8865L62.3401 34.8865L62.3401 34.8864L62.3402 34.8863L62.3402 34.8862L62.3402 34.8861L62.3402 34.886L62.3402 34.886L62.3402 34.8859L62.3402 34.8859L62.3402 34.8859C62.3819 34.6614 62.4236 34.4369 62.4641 34.2125C62.4815 34.1335 62.6296 34.0193 62.7255 34.0106ZM56.8533 36.8562L56.8535 36.8564L56.8535 36.8565L56.8536 36.8566C57.4313 37.7224 57.9966 38.5695 58.5866 39.4017C58.8045 39.7178 59.1007 39.9988 59.58 39.8056C60.312 39.5247 60.495 39.3315 60.2771 38.5588C60.0164 37.6197 60.1782 36.7166 60.3406 35.8103L60.3406 35.8103C60.3573 35.7168 60.3741 35.6233 60.3904 35.5297C60.4514 35.196 60.4427 34.8272 60.3643 34.4936C60.3294 34.3355 60.0157 34.0985 59.8937 34.1248C58.5605 34.4585 57.3928 35.117 56.2774 35.995C56.4716 36.2842 56.6632 36.5712 56.8533 36.8562ZM53.4305 43.5515C54.041 44.0006 54.6532 44.451 55.2764 44.9069C55.0672 45.9166 54.527 46.4874 53.4726 46.6015C52.0174 46.7508 50.7887 46.1537 49.682 45.2581C49.621 45.2055 49.5949 45.0123 49.6385 44.9245C49.7024 44.7811 49.7661 44.6373 49.8298 44.4936L49.8304 44.4922L49.8312 44.4904L49.8315 44.4898L49.8322 44.4882L49.8322 44.4882L49.8322 44.4882L49.8322 44.4881L49.8322 44.4881L49.8323 44.4881L49.8323 44.488L49.8323 44.488L49.8323 44.488L49.8323 44.4879L49.8323 44.4879L49.8324 44.4879L49.8324 44.4878L49.8324 44.4878L49.8324 44.4878C50.115 43.85 50.3982 43.2107 50.7103 42.5889C50.7941 42.414 50.9313 42.2681 51.0627 42.1284L51.0628 42.1284C51.1226 42.0648 51.1813 42.0024 51.2331 41.9392C51.9725 42.4789 52.6991 43.0134 53.4281 43.5497L53.4296 43.5508L53.4299 43.5511L53.4305 43.5515ZM53.8201 48.9179C52.1732 48.5053 50.5785 48.1014 48.8619 47.6624C48.8252 47.8659 48.7841 48.076 48.7422 48.2906L48.7421 48.2913L48.7421 48.2914L48.742 48.2915L48.742 48.2916C48.6646 48.6877 48.5842 49.0995 48.5221 49.515C48.4624 49.9082 48.4231 50.3048 48.383 50.7091L48.3829 50.7092L48.3829 50.7092L48.3829 50.7093L48.3829 50.7093L48.3829 50.7094L48.3829 50.7095L48.3829 50.7095L48.3829 50.7096L48.3829 50.7097L48.3828 50.7097L48.3828 50.7098V50.7098V50.7099V50.7099V50.7099L48.3828 50.7106V50.7107C48.3584 50.9558 48.3338 51.2037 48.3042 51.4554C49.681 52.149 51.0927 52.3422 52.4869 51.5344C53.4803 50.9725 53.8724 50.0418 53.8201 48.9179ZM48.3652 53.5726C48.1037 54.9599 48.3129 56.2681 48.8009 57.5412C48.8444 57.6466 48.9577 57.7607 49.0623 57.7959C51.1188 58.4895 53.4367 57.1022 53.7591 55.232C53.8026 54.9774 53.8201 54.7052 53.8026 54.4506C53.6981 53.3355 53.4889 53.1775 52.4084 53.3355L52.0971 53.3811C51.3555 53.4899 50.6131 53.5988 49.864 53.6604C49.5349 53.6845 49.1976 53.6507 48.8493 53.6157C48.6903 53.5998 48.529 53.5836 48.3652 53.5726ZM54.221 61.807C54.9181 60.3144 54.7002 59.2432 53.5239 58.3125C52.3039 59.2432 50.8923 59.5856 49.376 59.6383C49.2715 59.6383 49.0972 59.7876 49.0711 59.9017C48.8358 61.0168 49.1669 62.009 49.7856 62.9221C49.8351 62.9942 49.9299 63.0313 50.0368 63.0731C50.0992 63.0976 50.1658 63.1236 50.23 63.1592C50.1998 63.1794 50.1704 63.1997 50.1413 63.2198L50.1412 63.2198C50.0694 63.2693 49.9994 63.3174 49.925 63.3611C48.3391 64.3182 47.0581 65.5737 46.3 67.2859C45.3066 69.5424 44.9494 71.8692 45.8469 74.2662C46.0084 74.697 46.157 75.1357 46.3054 75.5737L46.3054 75.5739L46.3055 75.574L46.3055 75.5741L46.3056 75.5743L46.3056 75.5744L46.3057 75.5745L46.3057 75.5747L46.3058 75.5748L46.3058 75.575L46.3058 75.5751L46.3059 75.5752L46.3059 75.5754L46.306 75.5755L46.306 75.5756L46.3061 75.5758L46.3061 75.5759L46.3062 75.5761C46.4296 75.9406 46.5529 76.3046 46.6834 76.6632C47.1191 77.8748 47.154 79.1216 46.8054 80.3333C45.7772 83.8717 46.7444 87.1204 48.1125 90.3252C48.2326 90.593 48.4286 90.8354 48.6175 91.069L48.6266 91.0803C48.8881 91.4052 49.2279 91.5105 49.6375 91.37C50.047 91.2208 50.3433 90.9486 50.3259 90.5183C50.3084 89.9652 50.2387 89.412 50.108 88.8764C50.0078 88.4506 49.8858 88.0292 49.7638 87.6077C49.6418 87.1862 49.5198 86.7648 49.4196 86.339C49.1408 85.1361 49.498 84.1439 50.474 83.3976C50.5157 83.3668 50.5565 83.3351 50.597 83.3036L50.5972 83.3034L50.5972 83.3034C50.6836 83.2363 50.7685 83.1704 50.8574 83.1166C52.3301 82.2649 53.2363 80.9303 53.9857 79.4465C54.195 79.0248 54.4658 78.632 54.7362 78.2397L54.7362 78.2397C54.8599 78.0603 54.9835 77.8811 55.1011 77.6992L55.2056 77.7519C55.2579 77.9977 55.3113 78.2436 55.3647 78.4894L55.3647 78.4895L55.3647 78.4895L55.3647 78.4896L55.3647 78.4896L55.3647 78.4897L55.3647 78.4898L55.3647 78.4898L55.3648 78.4899L55.3648 78.4899L55.3648 78.49L55.3648 78.49L55.3648 78.4901L55.3648 78.4902L55.3648 78.4902L55.3648 78.4903L55.3648 78.4903L55.3649 78.4904C55.5249 79.2276 55.685 79.9648 55.8156 80.7021C56.3995 83.9068 58.2817 86.3214 60.4601 88.5691C60.675 88.7943 60.9577 88.9597 61.2245 89.1158L61.2357 89.1223C61.6017 89.3418 61.9764 89.3418 62.3249 89.0521C62.6822 88.7535 62.8129 88.376 62.656 87.9545C62.4992 87.5506 62.2988 87.1555 62.0548 86.7955C61.8017 86.4273 61.5286 86.0742 61.2555 85.7214C61.0208 85.4181 60.7862 85.1149 60.5647 84.8024C59.5277 83.3449 59.4842 82.3176 60.5037 80.8601C61.3141 79.6923 61.8718 78.4192 62.3685 77.0407C62.5072 77.1057 62.6435 77.1659 62.777 77.2248L62.777 77.2249L62.777 77.2249L62.7772 77.2249L62.7772 77.225L62.7773 77.225L62.7773 77.225L62.7774 77.225L62.7774 77.2251L62.7775 77.2251L62.7775 77.2251L62.7776 77.2251L62.7776 77.2251L62.7778 77.2252C63.0046 77.3254 63.2233 77.4219 63.4316 77.5324C65.5752 78.709 66.891 80.5616 67.6753 82.8357C67.9938 83.7426 68.2683 84.6663 68.5425 85.5889L68.5425 85.589L68.5427 85.5897C68.6135 85.8279 68.6843 86.0661 68.7558 86.3038C69.0085 87.1467 69.418 87.8931 69.9757 88.5604C70.1884 88.8132 70.4009 89.0661 70.6132 89.3189L70.6132 89.3189L70.6133 89.3189L70.6133 89.3189L70.6133 89.319L70.6133 89.319C71.6102 90.5056 72.6053 91.6901 73.6181 92.8627C73.9057 93.1963 74.2543 93.5124 74.629 93.7495C75.3086 94.1797 75.9709 94.048 76.5983 93.4422C77.0514 93.0032 77.1299 92.4588 76.7203 91.7651C76.4854 91.3657 76.1824 91.0036 75.8843 90.6474L75.8843 90.6473L75.8842 90.6473L75.8841 90.6472L75.8837 90.6467C75.8282 90.5804 75.7729 90.5142 75.7182 90.4481C75.5439 90.2374 75.3435 90.0354 75.1344 89.8598C73.3654 88.3409 72.9297 86.3302 73.0082 84.1263C73.0208 83.7563 73.0657 83.3863 73.1094 83.0263C73.1258 82.8909 73.142 82.7569 73.1563 82.6249C73.4289 82.5725 73.6983 82.52 73.9618 82.4687L73.9634 82.4684C74.4489 82.3738 74.9145 82.2831 75.3435 82.2035C75.506 82.5642 75.658 82.9328 75.8103 83.3022C76.14 84.1014 76.471 84.9039 76.912 85.6365C77.5607 86.7165 78.3293 87.7218 79.0977 88.7267L79.0981 88.7273L79.0982 88.7274L79.0982 88.7275C79.2792 88.9641 79.4601 89.2008 79.6395 89.4384C79.9444 89.8423 80.354 90.1671 80.9117 90.0354C81.208 89.9652 81.4345 89.1574 81.2864 88.5867C81.147 88.0511 80.9814 87.5067 80.7113 87.0326C79.5087 84.899 79.0469 82.5547 78.7245 80.1752C78.5589 78.9636 77.8444 78.4192 76.6419 78.6563C74.3937 79.1041 72.1368 79.3236 69.845 79.1216C69.6882 79.1041 69.5314 79.069 69.3746 79.0338L69.3745 79.0338C67.7537 78.6475 67.1089 77.1373 67.9454 75.671C67.9715 75.6183 67.9977 75.5656 68.0412 75.5217C68.8203 74.7303 69.2425 73.7471 69.6665 72.7599C69.8164 72.411 69.9665 72.0615 70.1326 71.7199C70.4637 71.0526 71.0911 70.4907 71.6924 69.999C72.4331 69.4019 73.3393 69.1034 74.2717 68.9014C74.4024 68.8751 74.5941 68.7522 74.6202 68.6468C74.6464 68.5239 74.5418 68.2956 74.4373 68.2429C74.372 68.2119 74.3065 68.18 74.2405 68.148L74.2398 68.1477L74.2366 68.1461L74.2365 68.146C73.8369 67.9517 73.4246 67.7512 72.9995 67.6986C72.3023 67.6108 71.5791 67.6283 70.8733 67.6986C70.089 67.7776 69.3919 67.5317 68.7384 67.2156C68.0412 66.882 67.379 66.4254 66.7516 65.9689C65.0349 64.7133 63.3009 63.4928 61.3315 62.6587C59.2228 61.7543 57.0356 61.4558 54.77 61.7895C54.6044 61.7719 54.4214 61.7807 54.221 61.807ZM63.7794 60.117C63.0823 60.556 62.3241 60.7492 61.505 60.7492C60.7208 60.7229 59.9714 60.5648 59.3353 60.0731C58.6294 59.5375 58.3593 58.7473 58.7689 57.9834C59.0303 57.5027 59.3946 57.0813 59.759 56.6598C59.8804 56.5193 60.0019 56.3788 60.1195 56.2362C60.1805 56.1659 60.3287 56.1396 60.4332 56.1484C62.3241 56.3327 63.7881 57.641 64.1279 59.2917C64.2151 59.6956 64.1018 59.9151 63.7794 60.117ZM54.3164 37.533C55.3098 38.2881 56.704 40.009 57.6538 41.6333L57.5558 41.7583C57.331 42.0447 57.1188 42.3152 56.9131 42.5991C56.7301 42.8538 56.5123 42.9152 56.1986 42.8187C54.5865 42.3006 53.4798 41.1416 52.3122 39.8948C52.9919 39.0958 53.6541 38.3144 54.3164 37.533ZM67.9102 42.9248C68.6283 42.3016 69.5029 42.1927 70.3827 42.0831L70.3827 42.0831L70.3828 42.0831L70.3828 42.0831L70.3829 42.0831L70.3829 42.0831L70.383 42.0831L70.383 42.0831L70.383 42.083L70.3831 42.083L70.3831 42.083L70.3832 42.083C70.5816 42.0583 70.7803 42.0336 70.9775 42.0029C71.4307 41.9326 71.8838 41.8009 72.3195 41.6604C72.4153 41.6253 72.5548 41.4497 72.5373 41.3619C72.4066 40.4927 72.1365 39.6761 71.4132 39.1142C71.2912 39.0176 71.0908 38.9561 70.9514 38.9737C69.8883 39.1405 68.9036 39.5093 68.0235 40.1327C67.919 40.2117 67.8144 40.2907 67.7185 40.3785C66.8123 41.2214 66.8733 42.1785 67.9102 42.9248ZM68.2505 57.3308C67.3704 55.7504 63.5363 54.2402 62.5429 55.0919C62.5429 55.1182 62.5429 55.1621 62.5603 55.1709C63.7454 56.207 64.5994 57.5152 65.4272 58.841C65.6276 59.1659 65.828 59.1834 66.1417 59.0781C66.8737 58.8322 67.7102 58.1474 68.2505 57.3308ZM74.1053 74.3719C73.9746 75.0479 73.7045 75.2499 73.0074 75.2674C72.8849 75.2445 72.7624 75.2262 72.6405 75.208C72.3896 75.1706 72.1412 75.1335 71.9007 75.0567C71.1164 74.8196 70.7766 74.2665 70.9247 73.4499C70.977 73.1514 71.0903 72.8617 71.221 72.5895C71.6916 71.6324 72.4671 70.9564 73.3559 70.412C73.6609 70.2276 74.0269 70.1135 74.3755 70.052C74.5366 70.0208 74.7153 70.065 74.8928 70.109C74.965 70.1269 75.0369 70.1447 75.1074 70.1574C75.0927 70.2218 75.0814 70.2897 75.07 70.358C75.0412 70.5316 75.012 70.7074 74.9244 70.8334C74.419 71.5622 74.2709 72.3787 74.2273 73.2392C74.2099 73.6168 74.175 74.0031 74.1053 74.3719ZM72.4932 73.0899C72.1098 73.0899 71.77 73.4324 71.7787 73.8187C71.7809 73.9183 71.8036 74.0128 71.8425 74.0984C71.8042 74.0134 71.7818 73.9196 71.7797 73.8208C71.7797 73.4345 72.1108 73.092 72.4942 73.092C72.7773 73.092 73.0241 73.2614 73.1362 73.5076C73.0246 73.2603 72.7772 73.0899 72.4932 73.0899ZM68.1718 45.3619C68.5112 45.3903 68.8484 45.4183 69.184 45.4461L69.1842 45.4461L69.1847 45.4462C70.5117 45.5563 71.8122 45.6643 73.1126 45.7834C73.496 45.8185 73.618 45.6692 73.6529 45.3093C73.7226 44.5366 73.4612 43.9308 72.8163 43.5093C71.7271 42.8069 69.7839 42.9298 68.7905 43.7727C68.2851 44.1942 68.0673 44.7298 68.1718 45.3619ZM67.3879 35.2559C68.4335 35.8266 69.4269 36.4061 70.124 37.3982C68.5207 38.3465 66.9696 39.2684 65.4185 40.1991C65.131 39.7426 65.0961 39.4352 65.3052 38.7943C65.7028 37.5598 66.4555 36.5308 67.2185 35.4876L67.2188 35.4872L67.2191 35.4868L67.2195 35.4863L67.2201 35.4855L67.2203 35.4853L67.2203 35.4852C67.2761 35.4089 67.332 35.3325 67.3879 35.2559ZM65.0177 53.4954C66.1046 53.8678 66.978 54.5407 67.8683 55.2265C68.4055 55.6404 68.9488 56.0591 69.549 56.4192C69.6311 56.2889 69.713 56.1596 69.7943 56.0311L69.7944 56.0309C70.1184 55.5189 70.4346 55.0192 70.7341 54.5139C70.7776 54.4437 70.7515 54.2417 70.6818 54.1891C69.549 53.2935 68.329 52.5735 66.839 52.5033C66.0983 52.4857 65.436 52.6789 65.0177 53.4954ZM73.3049 47.6657C73.2875 48.385 73.2696 49.1217 72.8082 49.727C72.6271 49.6669 72.448 49.6063 72.2701 49.546C71.7974 49.3859 71.3335 49.2288 70.865 49.0948C70.0372 48.8753 69.2094 48.6733 68.3729 48.489C68.0592 48.4187 67.9894 48.2607 68.033 47.9621C68.1463 47.1368 68.7127 46.6276 69.6712 46.5924C70.8999 46.5398 72.0327 46.9524 73.1394 47.4441C73.2178 47.4792 73.3049 47.5934 73.3049 47.6636L73.3049 47.6657ZM69.7197 75.0072L69.7194 75.0076L69.7189 75.0082C69.5472 75.216 69.3893 75.4072 69.2337 75.6008C69.1803 75.6675 69.1246 75.7326 69.0691 75.7976L69.069 75.7977C68.9345 75.9552 68.8008 76.1117 68.7021 76.2857C68.3797 76.8476 68.5366 77.4622 69.1291 77.7169C69.5997 77.9188 70.1225 78.0505 70.6279 78.1032C71.9786 78.2525 73.3118 78.1208 74.6189 77.7256C74.5318 77.111 74.2529 76.8301 73.6429 76.7686C73.3385 76.7412 73.0306 76.7309 72.7235 76.7206L72.7234 76.7206L72.7232 76.7206L72.723 76.7206C72.5382 76.7144 72.3536 76.7083 72.1703 76.6984C70.9852 76.6281 70.7935 76.4437 70.5582 75.2847C70.5173 75.0904 70.4372 74.9001 70.3521 74.6978L70.3521 74.6978C70.3103 74.5984 70.2673 74.4962 70.2271 74.3892C70.0412 74.6181 69.8748 74.8195 69.7197 75.0072ZM71.3261 52.9225C69.9319 52.1937 68.5115 51.5616 66.9343 51.2455C67.1608 50.1216 67.9015 49.6211 69.0692 49.7704C70.2456 49.9109 71.2912 50.4026 72.2498 51.0786C72.3456 51.1489 72.4676 51.3069 72.4415 51.3772C72.2498 51.8689 72.0494 52.3693 71.7966 52.8347C71.7444 52.9225 71.4394 52.9839 71.3261 52.9225ZM75.152 72.5291C75.152 73.4422 75.3002 73.5915 75.9973 73.4598C76.2848 73.4071 76.5898 73.2842 76.8251 73.1086C77.7313 72.4325 77.984 70.7994 77.3566 69.895C77.2085 69.6843 77.0778 69.5965 76.8338 69.7721C75.823 70.5184 75.1956 71.4579 75.152 72.5291Z" fill="#20113D"/>
<defs>
<filter id="filter0_d" x="7.6665" y="11.501" width="112" height="112" filterUnits="userSpaceOnUse" color-interpolation-filters="sRGB">
<feFlood flood-opacity="0" result="BackgroundImageFix"/>
<feColorMatrix in="SourceAlpha" type="matrix" values="0 0 0 0 0 0 0 0 0 0 0 0 0 0 0 0 0 0 127 0"/>
<feOffset dy="4"/>
<feGaussianBlur stdDeviation="2"/>
<feColorMatrix type="matrix" values="0 0 0 0 0 0 0 0 0 0 0 0 0 0 0 0 0 0 0.25 0"/>
<feBlend mode="normal" in2="BackgroundImageFix" result="effect1_dropShadow"/>
<feBlend mode="normal" in="SourceGraphic" in2="effect1_dropShadow" result="shape"/>
</filter>
</defs>
</svg>
