<svg width="127" height="127" viewBox="0 0 127 127" fill="none" xmlns="http://www.w3.org/2000/svg">
<g filter="url(#filter0_d)">
<circle cx="63.6667" cy="63.501" r="52" fill="#F58021"/>
</g>
<path fill-rule="evenodd" clip-rule="evenodd" d="M51.9816 71.2543C48.6975 72.2478 45.3878 72.095 42.0527 69.8786C41.7966 70.2008 41.5341 70.5252 41.269 70.8528C40.6118 71.6649 39.9381 72.4974 39.3032 73.3687C38.8322 74.0438 38.3931 74.7444 37.9539 75.445L37.9539 75.445C37.5147 76.1456 37.0756 76.8462 36.6046 77.5213C35.5608 79.0243 35.1789 80.6547 35.2807 82.4635C35.408 84.7818 34.4915 85.9536 32.2257 86.3613C27.5668 87.2019 23.3916 83.7373 23.3661 79.0243C23.3661 78.5641 23.3579 78.1039 23.3497 77.6453C23.3375 76.9616 23.3254 76.2815 23.3406 75.6106C23.3834 73.8115 24.164 72.2465 24.941 70.6886C25.0883 70.3934 25.2354 70.0984 25.3773 69.8022C25.7446 69.04 26.1154 68.279 26.4862 67.518C27.8629 64.6921 29.2402 61.8652 30.4436 58.9751C32.2126 54.7394 34.8699 51.0964 37.5367 47.4404C38.0939 46.6766 38.6514 45.9123 39.2014 45.1418C39.2278 45.1089 39.2558 45.0759 39.2843 45.0425L39.2844 45.0423L39.2845 45.0422L39.2845 45.0422L39.2845 45.0422L39.2845 45.0422C39.3659 44.9466 39.4503 44.8474 39.5069 44.7342C42.4855 39.308 47.781 38.0342 53.2291 36.9642C54.5727 36.7048 55.9053 36.3798 57.2371 36.055C58.7823 35.6782 60.3263 35.3017 61.8851 35.0281C64.7364 34.5185 67.6642 34.1109 70.5665 34.009C74.0034 33.8817 76.9057 35.4866 79.477 37.703C75.5818 35.7159 71.4066 35.0281 67.0786 35.13C65.9839 35.1554 64.8892 35.2573 63.7945 35.3847C62.216 35.563 61.5541 36.7349 61.1213 38.0851C60.0011 41.5243 60.2302 44.9126 61.4268 48.3263C61.7152 49.1464 61.895 50.0119 62.0741 50.874L62.0741 50.874L62.0741 50.8741L62.0741 50.8741L62.0741 50.8742C62.1954 51.458 62.3164 52.0404 62.4706 52.6062C62.6672 53.3112 62.8591 54.0185 63.0511 54.7261L63.0513 54.7267C63.7543 57.3177 64.4585 59.9131 65.3983 62.4143C65.7802 63.4587 67.0532 64.4778 68.1479 64.8854C72.4504 66.4394 76.8548 67.2801 81.4119 65.7261C87.1401 63.7645 90.0933 57.6503 87.9293 51.9693C87.2359 50.1696 86.4134 48.4253 85.5874 46.6735L85.5873 46.6734L85.5873 46.6733C85.4428 46.367 85.2983 46.0604 85.1543 45.7533C85.0224 45.4705 84.7512 45.2435 84.4849 45.0208L84.4849 45.0208C84.3913 44.9425 84.2984 44.8647 84.2123 44.7852C83.883 44.4726 83.5398 44.1684 83.1955 43.8634C82.5017 43.2485 81.8037 42.6301 81.2082 41.9319C80.368 40.9384 80.3935 39.6901 81.1318 38.6201C81.8446 37.5756 82.9903 37.3209 84.1868 37.5247C86.0453 37.8304 87.2419 38.9768 87.8529 40.6836C88.4384 42.3395 87.8784 43.7662 86.4272 45.0145C88.3366 46.594 88.9731 48.8613 89.5332 51.1031C89.7452 51.9519 89.8592 52.828 89.9734 53.7062V53.7062C90.1059 54.7257 90.2388 55.7478 90.526 56.7332C91.0057 58.365 91.5811 59.9746 92.1572 61.5858C92.6515 62.9682 93.1461 64.3517 93.5811 65.7516C94.1459 67.5437 94.6661 69.3508 95.1858 71.1567L95.186 71.1574C95.6267 72.6884 96.0671 74.2186 96.5343 75.738C96.7946 76.5847 97.1279 77.4107 97.4607 78.2358L97.4608 78.236L97.4609 78.2361L97.4609 78.2363L97.4611 78.2367C97.6489 78.7021 97.8365 79.1673 98.0109 79.6357C98.5688 81.1174 99.8323 81.7846 101.084 82.4458C101.318 82.5691 101.551 82.6921 101.779 82.8202C102.95 83.4825 103.561 84.3487 103.255 85.7244C102.975 87.0236 102.135 87.8388 100.582 87.7879C97.3999 87.6605 94.243 87.3548 91.0861 87.0236C90.5515 86.9727 89.9914 86.4122 89.6095 85.9537C87.471 83.3806 85.3579 80.7821 83.2703 78.1836C81.8192 76.3749 80.7499 74.3878 80.1898 72.1204C79.9518 71.1875 79.4664 70.3009 78.9867 69.4246C78.8507 69.1763 78.7152 68.9288 78.5859 68.6812C78.4586 68.4265 78.1022 68.1972 77.8222 68.1462L77.6211 68.1064C76.0082 67.7855 74.4038 67.4664 73.0105 68.885C72.6558 69.2653 72.0743 69.469 71.5668 69.6467L71.5593 69.6493C70.6683 69.955 70.261 70.5155 70.5919 71.3816C71.7664 74.5326 71.6777 77.7518 71.5888 80.9785V80.9786C71.5447 82.5782 71.5006 84.1795 71.6103 85.7753C71.6555 86.3867 71.741 86.9981 71.8265 87.6096C71.9334 88.3738 72.0402 89.1381 72.0685 89.9024C72.094 90.4883 71.8394 91.329 71.4321 91.6347C68.0461 94.1822 64.2527 94.6153 60.3575 93.2142C58.4227 92.5009 57.1243 91.0997 56.8188 88.705C56.2332 83.7373 55.444 78.795 54.4257 73.9037C54.0589 72.0689 53.1763 70.3167 52.3166 68.6099L52.3166 68.6097L52.3165 68.6096L52.3165 68.6095C52.2213 68.4206 52.1264 68.2322 52.0325 68.0444C49.5885 63.1785 48.9011 58.1344 49.7667 52.7335C50.4796 48.2499 51.447 43.97 54.4257 40.4289C55.04 39.7056 55.7698 39.085 56.4967 38.4669L56.4968 38.4668L56.4969 38.4667L56.4969 38.4667C56.7941 38.214 57.0908 37.9617 57.3789 37.703C57.4224 37.6656 57.469 37.6298 57.5161 37.5936C57.6615 37.4818 57.8111 37.3667 57.888 37.1935C53.9674 37.2444 50.4286 38.3399 46.9408 39.9703C43.6735 41.4697 41.8011 44.1437 39.9052 46.8513L39.9052 46.8513C39.4819 47.4559 39.0573 48.0622 38.6158 48.6575C38.4376 48.9122 38.4376 49.3453 38.4631 49.702C38.8369 53.2683 40.2111 56.5172 41.5824 59.7595L41.6709 59.9686C41.9436 60.5873 42.0865 61.271 42.2294 61.9547C42.2866 62.2281 42.3437 62.5016 42.4092 62.7709C42.5619 63.4588 42.7147 64.1721 42.7656 64.8854C42.776 65.0304 42.7872 65.1764 42.7986 65.3229C42.8709 66.2578 42.9451 67.2178 42.7911 68.1208C42.4855 69.7257 42.6128 70.2098 44.2677 70.4645C44.7928 70.5171 45.3223 70.5696 45.8541 70.6224L45.8668 70.6237L45.8748 70.6245L45.8807 70.625C47.9184 70.8273 49.9898 71.0328 51.9816 71.2543ZM64.2532 47.3358C62.7766 46.7243 62.1656 45.2722 61.9619 43.5654C61.7328 41.7057 63.4131 39.3874 65.3734 38.6995C66.9264 38.1646 69.1158 39.0307 69.9814 40.5593C70.4906 41.4764 70.6942 42.2152 69.5741 43.0049C68.3066 43.8927 67.1293 44.8965 65.859 45.9796C65.3431 46.4194 64.812 46.8723 64.2532 47.3358ZM69.0896 55.1539C68.6313 57.1665 69.9297 58.7715 71.5082 58.6441C71.6511 58.1883 71.7877 57.7418 71.9225 57.3015C72.1718 56.4868 72.4148 55.693 72.6793 54.8992C72.7493 54.7007 72.846 54.5076 72.9425 54.3149L72.9425 54.3148L72.9426 54.3148C73.0566 54.0871 73.1704 53.86 73.2393 53.6254C73.443 52.8866 73.6721 51.9185 72.7302 51.6893C72.0428 51.5364 70.9481 51.7657 70.5153 52.2497C69.8279 53.014 69.3187 54.1094 69.0896 55.1539ZM78.1772 52.3014C78.2909 52.1497 78.3956 51.9845 78.4986 51.8218C78.7417 51.4381 78.9756 51.0688 79.2974 50.9257C79.6284 50.7728 80.3412 51.0785 80.6977 51.3842C80.7762 51.4519 80.8551 51.5196 80.9342 51.5874L80.9342 51.5874C81.7777 52.3108 82.6383 53.0489 83.2435 53.9573C83.5745 54.4922 83.4472 55.4858 83.2181 56.1482C83.0398 56.6322 82.3779 57.1417 81.8688 57.2436C81.5378 57.2945 81.0032 56.6831 80.6722 56.2755C80.1121 55.5877 79.6284 54.8744 79.1447 54.1101C78.8982 53.7754 78.7126 53.3919 78.4953 52.9429L78.4952 52.9428C78.3983 52.7426 78.295 52.5292 78.1772 52.3014ZM79.5124 61.4548L79.5271 61.4458C79.5199 61.4023 79.5106 61.3568 79.501 61.3097C79.4768 61.1915 79.4508 61.0639 79.4508 60.9363C79.315 60.9024 79.1792 60.8571 79.0434 60.8118C78.7719 60.7212 78.5003 60.6306 78.2287 60.6306C77.1849 60.6306 76.1411 60.6561 75.1228 60.7835C74.7154 60.8344 74.2317 61.1147 74.0535 61.4204C73.9517 61.5987 74.2826 62.1591 74.5627 62.4139C74.7114 62.5627 74.9296 62.6159 75.1514 62.67C75.3092 62.7084 75.4689 62.7474 75.6065 62.8215C75.8866 62.9744 76.3957 63.2801 76.3703 63.4075C76.2684 63.7641 76.0138 64.1208 75.7083 64.3755C75.5604 64.5071 75.3489 64.5537 75.0873 64.6114C74.9437 64.643 74.7851 64.678 74.6136 64.7322C75.6018 64.6673 76.5178 64.6025 77.4338 64.5377C77.9574 64.5006 78.4809 64.4635 79.018 64.4265C78.7174 64.2928 78.373 64.2523 78.0414 64.2133C77.3618 64.1333 76.7358 64.0597 76.6503 63.2037C77.6885 62.5702 78.6008 62.0123 79.5124 61.4548Z" fill="#20113D"/>
<defs>
<filter id="filter0_d" x="7.66675" y="11.501" width="112" height="112" filterUnits="userSpaceOnUse" color-interpolation-filters="sRGB">
<feFlood flood-opacity="0" result="BackgroundImageFix"/>
<feColorMatrix in="SourceAlpha" type="matrix" values="0 0 0 0 0 0 0 0 0 0 0 0 0 0 0 0 0 0 127 0"/>
<feOffset dy="4"/>
<feGaussianBlur stdDeviation="2"/>
<feColorMatrix type="matrix" values="0 0 0 0 0 0 0 0 0 0 0 0 0 0 0 0 0 0 0.25 0"/>
<feBlend mode="normal" in2="BackgroundImageFix" result="effect1_dropShadow"/>
<feBlend mode="normal" in="SourceGraphic" in2="effect1_dropShadow" result="shape"/>
</filter>
</defs>
</svg>
