<svg width="162" height="206" viewBox="0 0 162 206" fill="none" xmlns="http://www.w3.org/2000/svg">
<g filter="url(#filter0_d)">
<path d="M80.6123 35.562C58.3304 35.562 40.3022 52.8072 40.3022 74.0582C40.3022 95.3092 80.6123 156.211 80.6123 156.211C80.6123 156.211 120.922 95.3092 120.922 74.0582C120.922 52.8072 102.894 35.562 80.6123 35.562Z" fill="white"/>
<path fill-rule="evenodd" clip-rule="evenodd" d="M91.8261 70.1612L91.8276 70.1642C92.3305 71.2017 92.8334 72.2392 93.3546 73.3226C93.2226 73.427 93.0889 73.5348 92.9532 73.6442L92.9531 73.6442C92.6466 73.8914 92.3299 74.1466 92 74.3887C91.6334 74.6562 91.2698 74.9275 90.9064 75.1987L90.9062 75.1988C90.0087 75.8685 89.1123 76.5374 88.1742 77.1458C84.7969 79.3422 81.0717 80.2337 77.0629 79.8845C76.0835 79.8018 75.0493 79.4617 74.6374 79.1768C74.8751 77.525 75.1035 75.9189 75.332 74.313L75.333 74.306C75.3056 74.2968 75.2759 74.2899 75.2462 74.283L75.2461 74.283C75.2163 74.2761 75.1866 74.2692 75.1591 74.26C75.0699 74.4418 74.9815 74.6236 74.8931 74.8051C74.6733 75.2569 74.4541 75.7074 74.2256 76.1532C73.632 77.3308 73.234 78.5814 72.8351 79.8347L72.8351 79.8347C72.7235 80.1855 72.6118 80.5365 72.4957 80.8862C71.7635 83.0643 70.4547 84.7369 68.2306 85.5548C68.1207 85.6008 68.0292 85.7846 67.9834 85.9225C67.8938 86.2083 67.8141 86.4974 67.7344 86.7863C67.6271 87.1756 67.5199 87.5645 67.3885 87.9443C66.8851 89.4148 65.9424 90.5544 64.6702 91.4274C64.1027 91.8134 63.5352 92.2086 62.9952 92.6313C62.5285 92.9898 62.5468 93.146 63.0044 93.5044C63.0939 93.5746 63.184 93.6437 63.2738 93.7127C63.5605 93.9327 63.8449 94.151 64.1027 94.3959C64.5237 94.8003 64.7159 95.3149 64.5603 95.9031C64.5237 96.0409 64.3132 96.2247 64.1851 96.2247C61.183 96.2431 58.1718 96.2431 55.1697 96.2339C55.0599 96.2339 54.9043 96.1972 54.8402 96.1236C54.7483 96.0112 54.6541 95.8993 54.5597 95.787L54.5597 95.7869C54.2218 95.3851 53.8804 94.9791 53.6229 94.5337C53.4582 94.2488 53.4399 93.7709 53.5497 93.4493C54.6114 90.2051 55.9752 87.1264 58.547 84.7645C58.6569 84.6634 58.7209 84.4428 58.7301 84.2866C58.7942 81.9523 59.0688 79.6363 59.6637 77.3847C60.1762 75.4364 60.7254 73.488 61.6956 71.6959C63.4803 68.4242 65.7868 65.6947 69.3289 64.2243C72.3767 62.9652 75.3513 63.1582 78.2527 64.647C78.651 64.8532 79.0113 65.136 79.3622 65.4114C79.5273 65.541 79.6904 65.669 79.8544 65.7866C79.5249 65.0698 78.9483 64.4816 78.3259 63.9394C78.9121 63.7155 79.5004 63.4988 80.0876 63.2825C82.6825 62.3268 85.2571 61.3785 87.5335 59.8497C87.6337 60.1998 87.7322 60.5534 87.8311 60.909L87.8313 60.9095C87.9583 61.3659 88.0863 61.8255 88.22 62.2851C88.2566 62.3954 88.3298 62.4965 88.4213 62.5884C88.2383 61.4488 88.2383 60.3092 88.6685 59.2615C89.0712 58.269 89.5563 57.2672 90.1786 56.4033C91.7071 54.308 93.5468 52.4883 95.597 50.8984L95.5971 50.8983C95.6795 50.834 95.7618 50.7697 95.8533 50.7054C96.0003 50.6112 96.1459 50.5108 96.2918 50.4103L96.2919 50.4102C97.0003 49.922 97.7159 49.4289 98.6265 49.6117C100.128 49.9058 101.382 50.6962 102.242 51.992C102.489 52.3596 102.773 52.617 103.166 52.7548C104.191 53.1132 104.96 53.729 105.454 54.7307C105.634 55.0967 105.892 55.4209 106.151 55.7455C106.275 55.9018 106.4 56.0583 106.516 56.2195C106.754 56.5504 106.8 56.8261 106.534 57.2121C106.315 57.5337 106.205 57.9657 106.141 58.3609C106.059 58.8296 106.242 59.1329 106.736 59.3902C108.026 60.0519 108.777 61.5315 108.063 63.0295C107.944 63.2777 107.834 63.5258 107.733 63.7831C107.258 65.0146 106.351 65.4466 105.107 65.0146C105.094 65.0103 105.081 65.0061 105.068 65.0018C105.06 64.9992 105.052 64.9966 105.044 64.9939C104.98 64.9733 104.917 64.9526 104.869 64.9319C104.64 65.2536 104.411 65.566 104.164 65.8969C104.129 65.8538 104.099 65.8224 104.076 65.7984C104.045 65.7661 104.027 65.7473 104.027 65.7315C104.1 64.9411 103.624 64.4724 103.093 63.9945C100.613 61.7521 97.574 62.1564 95.4963 63.4523C95.7299 63.4047 95.9613 63.3528 96.1921 63.3011C96.6304 63.2027 97.0662 63.1049 97.5099 63.0387C100.146 62.6711 102.434 63.8566 103.651 66.2277C104.493 67.8636 105.088 69.573 104.942 71.4662L104.94 71.4883V71.4884C104.913 71.8592 104.884 72.263 104.731 72.5874C104.201 73.727 104.365 74.8758 104.658 76.0062L104.712 76.2168L104.712 76.2169C104.987 77.2909 105.269 78.3935 105.793 79.3422C107.816 82.9908 107.981 86.9334 107.834 90.9311C107.77 92.6497 107.221 94.1753 105.811 95.2873C105.024 95.9123 104.182 96.3442 103.13 96.2615C102.645 96.2247 102.15 96.2155 101.665 96.2615C100.75 96.3626 100.118 95.9031 99.5784 95.2598C98.9927 94.5705 98.7272 93.7709 98.892 92.8703C98.9377 92.6314 99.1116 92.3373 99.313 92.227C99.5659 92.0921 99.7506 92.2793 99.9378 92.469C99.9673 92.499 99.9969 92.529 100.027 92.5578C100.309 92.8319 100.682 93.0334 101.037 93.2253L101.037 93.2254L101.043 93.2287C101.354 93.3941 101.519 93.2563 101.555 92.9071C101.592 92.4935 101.464 92.1443 101.153 91.8778C99.4045 90.3797 98.3062 88.4222 97.3177 86.3912C96.558 84.8196 96.073 83.1746 95.8991 81.4284C95.7709 80.1142 95.9997 78.8368 96.2469 77.5593C96.3658 76.9803 96.4848 76.3922 96.5214 75.7948C96.6038 74.6093 96.1919 73.6075 95.176 72.9734C93.9221 72.1922 92.8055 71.2548 91.9085 70.0785C91.9177 70.106 91.8719 70.1336 91.8261 70.1612ZM94.5078 74.3334C95.0387 74.7654 95.2309 75.2616 95.121 75.8774C95.0533 76.2756 94.9788 76.6726 94.9043 77.0697L94.9042 77.0699C94.7672 77.8001 94.6301 78.5305 94.5353 79.2686C94.2241 81.7591 94.8007 84.1118 95.7617 86.3818C95.9356 86.7954 95.9539 87.1263 95.7709 87.5398C94.938 89.433 94.0319 91.2803 92.8603 92.9988C91.341 95.2229 89.2176 96.2522 86.5633 96.2522C86.4064 96.2522 86.2504 96.2547 86.0947 96.2572H86.0947C85.7325 96.2629 85.3722 96.2687 85.0073 96.243C84.8243 96.2338 84.5955 96.1143 84.4948 95.9673C83.6436 94.8093 83.79 92.4107 84.7694 91.3538C84.8792 91.2343 85.1263 91.124 85.2636 91.17C85.368 91.2074 85.442 91.3667 85.5104 91.514C85.5259 91.5475 85.5412 91.5804 85.5565 91.6111C85.5943 91.6869 85.6217 91.7705 85.649 91.8536C85.6945 91.9921 85.7396 92.1292 85.8311 92.2268C85.9958 92.4198 86.2796 92.6956 86.4626 92.6588C86.6548 92.622 86.847 92.282 86.9294 92.043C87.0118 91.8133 86.9843 91.5284 86.9386 91.2894C86.8722 90.953 86.789 90.6189 86.706 90.2855C86.56 89.6992 86.4145 89.1149 86.3619 88.5232C86.1148 85.8672 86.3528 83.2572 87.4969 80.8034C87.7623 80.2428 88.0643 79.673 88.4579 79.1951C88.8698 78.6804 89.3823 78.2301 89.904 77.8257C90.4394 77.4033 90.991 77.0039 91.5434 76.6039C91.9165 76.3338 92.29 76.0633 92.659 75.7855C93.0704 75.471 93.4778 75.1482 93.8921 74.8199L93.8922 74.8199L93.8926 74.8195C94.0956 74.6587 94.3002 74.4966 94.5078 74.3334ZM74.8366 80.8675C74.6016 80.7977 74.3654 80.7275 74.1249 80.6565C74.0433 80.8339 73.9643 81.0138 73.885 81.1944C73.7507 81.5003 73.6155 81.808 73.4659 82.1086C72.5598 83.9466 71.3699 85.5457 69.5302 86.575C69.3838 86.6577 69.2831 86.8691 69.2282 87.0437C68.7889 88.5234 68.2397 89.9387 67.2238 91.1334C67.1505 91.2253 67.0865 91.3907 67.1139 91.4918C67.4343 92.5119 67.7638 93.5321 68.1207 94.5338C68.1848 94.7084 68.377 94.8738 68.5509 94.9749C69.2007 95.3425 69.8506 95.701 70.5187 96.041C70.7384 96.1513 70.9947 96.2524 71.2326 96.2524C73.168 96.2662 75.0982 96.2644 77.031 96.2627C77.6758 96.2621 78.3209 96.2616 78.9666 96.2616H79.5341C79.4725 96.1349 79.4224 96.0113 79.3749 95.8943C79.2812 95.6634 79.1979 95.4583 79.0582 95.3058C78.7104 94.929 78.3168 94.5705 77.8958 94.2857C77.5004 94.0186 77.0712 93.7969 76.6435 93.576C76.5267 93.5156 76.4099 93.4553 76.294 93.3942C75.8364 93.1461 75.6351 92.7785 75.6717 92.2638C75.6778 92.1413 75.692 92.0187 75.7062 91.8962C75.7134 91.8349 75.7205 91.7737 75.7266 91.7124C75.7546 91.4341 75.7894 91.155 75.8243 90.8756C75.9035 90.2413 75.9829 89.6053 75.9829 88.9737C75.9829 87.6595 75.3971 86.5291 74.5642 85.5365C76.0103 84.4521 76.294 82.9173 76.4313 81.3366C75.8813 81.1779 75.3618 81.0235 74.8366 80.8675Z" fill="#20113D"/>
<g filter="url(#filter1_d)">
<path d="M81.0001 29.335C54.6474 29.335 33.3257 49.2504 33.3257 73.7919C33.3257 98.3334 81.0001 168.665 81.0001 168.665C81.0001 168.665 128.675 98.3334 128.675 73.7919C128.675 49.2504 107.353 29.335 81.0001 29.335Z" stroke="white" stroke-width="6" stroke-miterlimit="10" stroke-linejoin="round"/>
</g>
</g>
<defs>
<filter id="filter0_d" x="0.325684" y="0.334961" width="161.349" height="205.33" filterUnits="userSpaceOnUse" color-interpolation-filters="sRGB">
<feFlood flood-opacity="0" result="BackgroundImageFix"/>
<feColorMatrix in="SourceAlpha" type="matrix" values="0 0 0 0 0 0 0 0 0 0 0 0 0 0 0 0 0 0 127 0"/>
<feOffset dy="4"/>
<feGaussianBlur stdDeviation="15"/>
<feColorMatrix type="matrix" values="0 0 0 0 0.960784 0 0 0 0 0.501961 0 0 0 0 0.129412 0 0 0 0.7 0"/>
<feBlend mode="normal" in2="BackgroundImageFix" result="effect1_dropShadow"/>
<feBlend mode="normal" in="SourceGraphic" in2="effect1_dropShadow" result="shape"/>
</filter>
<filter id="filter1_d" x="0.325684" y="0.334961" width="161.349" height="205.33" filterUnits="userSpaceOnUse" color-interpolation-filters="sRGB">
<feFlood flood-opacity="0" result="BackgroundImageFix"/>
<feColorMatrix in="SourceAlpha" type="matrix" values="0 0 0 0 0 0 0 0 0 0 0 0 0 0 0 0 0 0 127 0"/>
<feOffset dy="4"/>
<feGaussianBlur stdDeviation="15"/>
<feColorMatrix type="matrix" values="0 0 0 0 0 0 0 0 0 0 0 0 0 0 0 0 0 0 0.5 0"/>
<feBlend mode="normal" in2="BackgroundImageFix" result="effect1_dropShadow"/>
<feBlend mode="normal" in="SourceGraphic" in2="effect1_dropShadow" result="shape"/>
</filter>
</defs>
</svg>
