<svg width="162" height="206" viewBox="0 0 162 206" fill="none" xmlns="http://www.w3.org/2000/svg">
<g filter="url(#filter0_d)">
<g filter="url(#filter1_d)">
<path d="M80.6123 35.562C58.3304 35.562 40.3022 52.8072 40.3022 74.0582C40.3022 95.3092 80.6123 156.211 80.6123 156.211C80.6123 156.211 120.922 95.3092 120.922 74.0582C120.922 52.8072 102.894 35.562 80.6123 35.562Z" fill="white"/>
</g>
<path d="M66.6769 94.4852C66.408 93.1008 66.3213 91.7251 66.5641 90.3494C66.9457 88.164 68.0297 86.379 69.7728 85.0469C70.64 84.3851 71.6373 83.8975 72.5739 83.3229C73.1896 82.9485 73.8487 82.6176 74.3777 82.1474C75.7739 80.8849 77.1094 79.5615 78.4709 78.2641C79.2774 77.4979 80.0753 76.723 80.9338 75.8958C80.3528 75.8523 79.8324 75.8436 79.3208 75.7652C78.8091 75.6869 78.2975 75.5563 77.9246 75.0338C78.1067 75.0251 78.2368 75.0164 78.3669 75.0164C79.737 74.9729 80.4308 74.2763 80.4568 72.9442C80.4742 72.2999 80.3181 71.6468 80.2314 71.0025C79.8411 68.2772 80.5175 65.8219 82.1132 63.6103C82.2173 63.4623 82.33 63.3055 82.4601 63.1227C82.0178 63.0705 81.6189 63.053 81.2373 62.966C80.8644 62.8789 80.5175 62.7222 80.1533 62.6003C80.162 62.5567 80.1707 62.5132 80.1793 62.4784C80.4655 62.4174 80.7517 62.3652 81.0292 62.2955C83.0758 61.7557 84.5761 60.5628 85.4866 58.6125C85.8682 57.8027 86.3018 57.0104 86.7875 56.2616C87.646 54.9468 88.8688 54.111 90.3864 53.7105C90.5251 53.6756 90.6552 53.6321 90.8373 53.5798C90.5598 53.4144 90.291 53.3012 90.0915 53.1097C89.9181 52.9442 89.8314 52.6917 89.7533 52.4044C90.4731 52.6482 90.9847 52.3086 91.5051 52.0039C92.3896 51.4815 93.3089 51.0897 94.3669 51.1332C95.6677 51.1941 96.6563 51.8472 97.4801 52.8136C97.5929 52.9442 97.6969 53.0836 97.8097 53.2316C98.5121 52.7179 99.2146 52.8572 99.865 53.2925C100.229 53.5363 100.515 53.902 100.862 54.1893C101.417 54.6595 101.955 55.1732 102.571 55.565C102.874 55.7566 103.316 55.7218 103.767 55.8088C104.062 56.6534 103.611 57.2629 102.111 57.8463C102.484 58.4993 102.857 59.1523 103.23 59.8053C103.507 60.2842 103.724 60.7544 103.559 61.3639C103.49 61.6425 103.672 62.0517 103.854 62.3217C104.322 63.0008 104.851 63.6364 105.354 64.2894C105.615 64.6377 105.866 64.9947 106.118 65.343C106.36 65.6825 106.36 66.0134 106.109 66.3443C105.788 66.7535 105.511 67.215 105.12 67.5458C104.539 68.0334 104.062 68.5907 103.577 69.174C102.9 69.9925 101.929 70.0273 101.131 69.3134C100.932 69.1305 100.715 68.9303 100.593 68.6952C100.316 68.1379 99.839 67.9289 99.2926 67.7809C98.7723 67.6416 98.252 67.5197 97.749 67.3456C97.3327 67.1976 96.9425 66.9973 96.5436 66.8145C96.4742 67.0844 96.5002 67.3108 96.8471 67.5458C97.3501 67.8767 97.8877 68.1466 98.4427 68.3991C98.6856 68.5123 98.8243 68.6168 98.911 68.8867C99.2926 70.1492 99.7002 71.403 100.116 72.6481C100.524 73.8758 100.559 75.1383 100.515 76.4183C100.463 77.8549 100.229 79.2393 99.7956 80.5976C99.4834 81.5641 99.1365 82.191 98.6942 82.6263C98.3994 81.8514 98.1132 81.0852 97.8184 80.3277C97.775 80.3364 97.7316 80.3451 97.6883 80.3538C97.7577 81.12 97.801 81.8862 97.9051 82.6525C98.382 86.0133 99.1105 89.3307 100.082 92.5871C100.212 93.0051 100.446 93.4143 100.697 93.7713C101.166 94.433 101.842 94.6594 102.631 94.5897C103.542 94.5114 104.019 94.79 104.227 95.6781C104.383 96.3572 104.392 97.0712 104.47 97.8026C101.808 97.8026 99.2753 97.8026 96.6476 97.8026C96.5696 96.7926 96.5175 95.7826 96.3961 94.7813C96.3354 94.2414 96.2574 93.6755 96.0146 93.2053C95.4769 92.1779 94.8438 91.2114 94.2281 90.2275C93.3522 88.8344 92.459 87.45 91.5831 86.0743C89.8053 86.8144 87.9582 87.5893 86.059 88.3729C85.9983 88.8692 85.9289 89.4787 85.8595 90.0795C85.7642 90.9328 85.3479 91.5945 84.6628 92.0647C83.9083 92.5784 83.1105 93.0138 82.33 93.4839C82.1219 93.6145 81.9137 93.7539 81.7056 93.8845C81.723 93.9367 81.7316 93.9889 81.749 94.0412C82.0091 94.076 82.278 94.1457 82.5295 94.1283C83.5354 94.0586 84.5414 93.9628 85.556 93.8757C85.7988 93.8583 86.0417 93.8322 86.2932 93.8322C88.5739 93.8235 90.0222 95.4691 89.7533 97.8113C89.6146 97.82 89.4758 97.8287 89.3371 97.8287C81.9831 97.8287 74.6205 97.8374 67.2666 97.8287C66.5208 97.8287 65.749 97.7939 65.0292 97.611C64.4395 97.463 63.7891 97.1757 63.3641 96.749C61.6731 95.0599 60.7885 93.0399 61.5603 90.628C62.0373 89.1479 62.6964 87.7199 63.3295 86.292C63.7457 85.3516 64.214 84.4374 64.3788 83.4013C64.6736 81.5815 63.8845 79.9359 62.3408 79.1697C61.3435 78.6734 59.6872 79.4396 59.4617 80.5105C59.4357 80.6411 59.5051 80.8675 59.6005 80.9285C60.3549 81.4074 60.7105 82.1213 60.8752 82.9659C61.1007 84.1413 60.8752 85.9959 60.3983 86.9189C60.1555 86.5445 59.9126 86.1701 59.6698 85.7957C59.7999 87.3629 59.1755 88.5819 58.2216 89.6703C58.1696 89.6529 58.1262 89.6529 58.1175 89.6442C57.7533 88.6603 57.0769 87.9289 56.2964 87.2584C55.9148 86.9276 55.62 86.5009 55.2817 86.1091C55.1777 86.3094 55.0303 86.5967 54.8828 86.884C54.4406 86.5009 54.163 85.6999 54.2845 84.9163C54.4666 83.7669 54.9522 82.7918 56.1056 82.2955C56.2183 82.2432 56.3051 82.0691 56.3571 81.9298C56.9121 80.467 57.7446 79.2132 59.1148 78.4034C60.2248 77.7417 61.4563 77.4892 62.7397 77.6895C63.9365 77.8723 64.6823 78.656 65.1072 79.7617C65.7143 81.3377 65.6796 82.9659 65.3067 84.5593C65.0379 85.726 64.6129 86.8579 64.162 87.9724C63.7717 88.9563 63.3468 89.9228 63.2254 90.9937C63.0173 93.0486 64.5435 94.642 66.6769 94.4852Z" fill="#20113D"/>
<g filter="url(#filter2_d)">
<path d="M81.0001 29.335C54.6474 29.335 33.3257 49.2504 33.3257 73.7919C33.3257 98.3334 81.0001 168.665 81.0001 168.665C81.0001 168.665 128.675 98.3334 128.675 73.7919C128.675 49.2504 107.353 29.335 81.0001 29.335Z" stroke="white" stroke-width="6" stroke-miterlimit="10" stroke-linejoin="round"/>
</g>
</g>
<defs>
<filter id="filter0_d" x="0.325684" y="0.334961" width="161.349" height="205.33" filterUnits="userSpaceOnUse" color-interpolation-filters="sRGB">
<feFlood flood-opacity="0" result="BackgroundImageFix"/>
<feColorMatrix in="SourceAlpha" type="matrix" values="0 0 0 0 0 0 0 0 0 0 0 0 0 0 0 0 0 0 127 0"/>
<feOffset dy="4"/>
<feGaussianBlur stdDeviation="15"/>
<feColorMatrix type="matrix" values="0 0 0 0 0.960784 0 0 0 0 0.501961 0 0 0 0 0.129412 0 0 0 0.7 0"/>
<feBlend mode="normal" in2="BackgroundImageFix" result="effect1_dropShadow"/>
<feBlend mode="normal" in="SourceGraphic" in2="effect1_dropShadow" result="shape"/>
</filter>
<filter id="filter1_d" x="20.3022" y="19.562" width="120.62" height="160.649" filterUnits="userSpaceOnUse" color-interpolation-filters="sRGB">
<feFlood flood-opacity="0" result="BackgroundImageFix"/>
<feColorMatrix in="SourceAlpha" type="matrix" values="0 0 0 0 0 0 0 0 0 0 0 0 0 0 0 0 0 0 127 0"/>
<feOffset dy="4"/>
<feGaussianBlur stdDeviation="10"/>
<feColorMatrix type="matrix" values="0 0 0 0 0.12549 0 0 0 0 0.0666667 0 0 0 0 0.239216 0 0 0 1 0"/>
<feBlend mode="normal" in2="BackgroundImageFix" result="effect1_dropShadow"/>
<feBlend mode="normal" in="SourceGraphic" in2="effect1_dropShadow" result="shape"/>
</filter>
<filter id="filter2_d" x="0.325684" y="0.334961" width="161.349" height="205.33" filterUnits="userSpaceOnUse" color-interpolation-filters="sRGB">
<feFlood flood-opacity="0" result="BackgroundImageFix"/>
<feColorMatrix in="SourceAlpha" type="matrix" values="0 0 0 0 0 0 0 0 0 0 0 0 0 0 0 0 0 0 127 0"/>
<feOffset dy="4"/>
<feGaussianBlur stdDeviation="15"/>
<feColorMatrix type="matrix" values="0 0 0 0 0 0 0 0 0 0 0 0 0 0 0 0 0 0 0.5 0"/>
<feBlend mode="normal" in2="BackgroundImageFix" result="effect1_dropShadow"/>
<feBlend mode="normal" in="SourceGraphic" in2="effect1_dropShadow" result="shape"/>
</filter>
</defs>
</svg>
