<svg width="59" height="45" viewBox="0 0 59 45" fill="none" xmlns="http://www.w3.org/2000/svg">
<rect width="59" height="45" rx="5" fill="#F58021"/>
<path fill-rule="evenodd" clip-rule="evenodd" d="M30.4671 11.62C30.2762 11.6992 30.1029 11.8153 29.9569 11.9616C29.8106 12.1075 29.6945 12.2809 29.6153 12.4717C29.5361 12.6626 29.4954 12.8672 29.4954 13.0739C29.4954 13.2805 29.5361 13.4852 29.6153 13.676C29.6945 13.8669 29.8106 14.0403 29.9569 14.1862L36.7026 20.9293H18.5008C18.0841 20.9293 17.6845 21.0948 17.3898 21.3895C17.0952 21.6841 16.9297 22.0837 16.9297 22.5004C16.9297 22.9171 17.0952 23.3167 17.3898 23.6113C17.6845 23.906 18.0841 24.0715 18.5008 24.0715H36.7026L29.9569 30.8146C29.6619 31.1096 29.4962 31.5097 29.4962 31.9269C29.4962 32.3441 29.6619 32.7443 29.9569 33.0393C30.2519 33.3343 30.652 33.5 31.0693 33.5C31.4865 33.5 31.8866 33.3343 32.1816 33.0393L41.6081 23.6127C41.7544 23.4668 41.8705 23.2934 41.9497 23.1026C42.0289 22.9117 42.0697 22.7071 42.0697 22.5004C42.0697 22.2938 42.0289 22.0891 41.9497 21.8983C41.8705 21.7074 41.7544 21.534 41.6081 21.3881L32.1816 11.9616C32.0356 11.8153 31.8623 11.6992 31.6714 11.62C31.4805 11.5408 31.2759 11.5 31.0693 11.5C30.8626 11.5 30.658 11.5408 30.4671 11.62Z" fill="white"/>
</svg>
