<svg width="80" height="74" viewBox="0 0 80 74" fill="none" xmlns="http://www.w3.org/2000/svg">
<rect width="80" height="74" rx="5" fill="#F58021"/>
<path fill-rule="evenodd" clip-rule="evenodd" d="M40.9676 26.12C40.7767 26.1992 40.6033 26.3153 40.4574 26.4616C40.3111 26.6075 40.195 26.7809 40.1158 26.9717C40.0366 27.1626 39.9958 27.3672 39.9958 27.5739C39.9958 27.7805 40.0366 27.9852 40.1158 28.176C40.195 28.3669 40.3111 28.5403 40.4574 28.6862L47.203 35.4293H29.0013C28.5846 35.4293 28.185 35.5948 27.8903 35.8895C27.5957 36.1841 27.4302 36.5837 27.4302 37.0004C27.4302 37.4171 27.5957 37.8167 27.8903 38.1113C28.185 38.406 28.5846 38.5715 29.0013 38.5715H47.2031L40.4574 45.3146C40.1624 45.6096 39.9967 46.0097 39.9967 46.4269C39.9967 46.8441 40.1624 47.2443 40.4574 47.5393C40.7524 47.8343 41.1525 48 41.5697 48C41.9869 48 42.3871 47.8343 42.6821 47.5393L52.1086 38.1127C52.2549 37.9668 52.371 37.7934 52.4502 37.6026C52.5294 37.4117 52.5702 37.2071 52.5702 37.0004C52.5702 36.7938 52.5294 36.5891 52.4502 36.3983C52.371 36.2074 52.2549 36.034 52.1086 35.8881L42.6821 26.4616C42.5361 26.3153 42.3628 26.1992 42.1719 26.12C41.981 26.0408 41.7764 26 41.5697 26C41.3631 26 41.1585 26.0408 40.9676 26.12Z" fill="white"/>
</svg>
