<svg width="26" height="22" viewBox="0 0 26 22" fill="none" xmlns="http://www.w3.org/2000/svg">
<path fill-rule="evenodd" clip-rule="evenodd" d="M11.9313 0.119971C12.1134 0.199174 12.2789 0.315255 12.4182 0.461565C12.5578 0.607505 12.6686 0.780876 12.7442 0.971748C12.8197 1.16262 12.8586 1.36724 12.8586 1.57389C12.8586 1.78055 12.8197 1.98517 12.7442 2.17604C12.6686 2.36691 12.5578 2.54028 12.4182 2.68622L6.39048 9H23.5411C23.9655 9 24.3724 9.21071 24.6725 9.58579C24.9725 9.96086 25.1411 10.4696 25.1411 11C25.1411 11.5304 24.9725 12.0391 24.6725 12.4142C24.3724 12.7893 23.9655 13 23.5411 13H6.38969L12.4182 19.3146C12.6997 19.6096 12.8579 20.0097 12.8579 20.4269C12.8579 20.8441 12.6997 21.2443 12.4182 21.5393C12.1366 21.8343 11.7548 22 11.3566 22C10.9585 22 10.5766 21.8343 10.2951 21.5393L1.29913 12.1127C1.1595 11.9668 1.04873 11.7934 0.973139 11.6026C0.897554 11.4117 0.858646 11.2071 0.858646 11.0004C0.858646 10.7938 0.897554 10.5891 0.973139 10.3983C1.04873 10.2074 1.1595 10.034 1.29913 9.88808L10.2951 0.461565C10.4344 0.315255 10.5998 0.199174 10.782 0.119971C10.9641 0.0407677 11.1594 0 11.3566 0C11.5539 0 11.7491 0.0407677 11.9313 0.119971Z" fill="#20113D"/>
</svg>
