<svg width="162" height="206" viewBox="0 0 162 206" fill="none" xmlns="http://www.w3.org/2000/svg">
<g filter="url(#filter0_d)">
<path d="M80.6123 35.562C58.3304 35.562 40.3022 52.8072 40.3022 74.0582C40.3022 95.3092 80.6123 156.211 80.6123 156.211C80.6123 156.211 120.922 95.3092 120.922 74.0582C120.922 52.8072 102.894 35.562 80.6123 35.562Z" fill="white"/>
<path d="M66.1229 84.4213C66.0882 84.4827 66.0592 84.5529 65.9897 84.6756C65.2153 83.3737 64.9906 81.9338 64.7165 80.5141C64.6669 80.4963 64.6087 80.4843 64.565 80.4753C64.3973 80.9052 64.1742 81.3085 64.0735 81.7447C63.7249 83.173 63.8303 84.6036 64.1714 86.0294C64.5888 87.7223 65.0062 89.4151 65.3625 91.1106C65.6275 92.3837 65.7821 93.6797 65.503 94.9853C65.1981 96.4227 64.5608 97.5859 63.1129 98.1326C62.4675 98.3727 61.8329 98.2876 61.2472 97.9536C60.676 97.6226 60.6018 97.0362 61.0954 96.6049C61.3887 96.3455 61.7227 96.0717 62.0832 95.9328C62.7955 95.6608 63.1609 95.1497 63.2173 94.4379C63.271 93.7788 63.2925 93.0903 63.1774 92.4421C62.8589 90.7087 62.4763 88.9926 62.0705 87.2792C61.6147 85.3576 61.348 83.4369 61.6808 81.4722C61.9704 79.7652 62.7089 78.3183 64.0623 77.2113C64.161 77.1327 64.251 77.0598 64.3498 76.9812C64.4108 76.9405 64.4689 76.9144 64.5794 76.8534C64.6646 77.1908 64.7323 77.5017 64.8087 77.8069C65.2631 75.6464 65.3972 73.3819 67.1974 71.735C69.8375 73.216 71.3011 75.5205 71.8904 78.4597C72.4205 75.104 70.4214 72.7881 68.4686 70.3903C68.9568 70.1025 69.4188 69.8323 69.8809 69.562C70.2732 69.3383 70.6655 69.1145 71.0606 68.8762C71.9498 68.3589 71.976 68.3414 72.5776 69.2118C73.1413 70.0438 73.6352 70.9224 74.1495 71.7747C74.246 71.9393 74.3337 72.1097 74.4795 72.254C74.3826 70.7033 73.7506 69.3317 72.9789 67.939C73.8624 67.451 74.7225 66.9658 75.6061 66.5159C75.7252 66.4491 75.967 66.5675 76.1157 66.659C77.7973 67.6987 78.7819 69.2801 79.4644 71.0885C79.6695 71.6258 79.8484 72.1805 80.0854 72.7091C80.0816 69.9897 78.7142 67.7735 77.3146 65.4898C78.3169 64.8207 79.2931 64.169 80.3303 63.4766C81.3135 64.5246 81.896 65.8784 82.5337 67.2207C82.5951 66.1748 82.3134 65.2181 81.8077 64.3219C81.6294 63.9958 81.4424 63.6754 81.2292 63.3726C80.9693 62.9992 80.9743 62.6651 81.2965 62.3355C81.9467 61.6852 82.5853 61.0173 83.2355 60.367C85.8209 62.0499 87.3689 64.349 87.9495 67.332C88.0911 65.762 87.6772 64.2831 87.1091 62.8562C86.5439 61.4146 85.6242 60.1969 84.469 59.0602C85.7872 57.8622 87.059 56.7079 88.3656 55.5304C89.5708 56.9136 90.5636 58.2605 91.0391 59.9273C90.9124 58.104 90.3205 56.4513 89.1614 54.9101C89.7805 54.6113 90.3239 54.3121 90.8908 54.0863C91.0129 54.043 91.2373 54.173 91.3918 54.2734C92.0709 54.7104 92.7961 54.9513 93.6225 54.9084C92.6704 54.7045 92.1362 54.0308 91.7152 53.2434C91.4141 52.694 91.6141 52.3697 92.2076 52.3169C93.1968 52.2162 94.1771 52.0833 95.1545 51.9269C95.8264 51.8217 96.4748 51.6051 97.1468 51.4999C98.162 51.3437 99.0938 51.5739 100.035 52.0268C100.74 52.3702 101.567 52.4797 102.356 52.6271C102.836 52.7262 103.279 53.1298 103.298 53.6134C103.308 53.9504 103.326 54.2817 103.367 54.6101C103.489 55.5337 103.209 56.306 102.579 57.0062C102.52 56.918 102.471 56.8621 102.439 56.7946C102.152 56.0957 102.158 56.1046 101.436 56.2681C100.753 56.4318 100.096 56.6542 99.6258 57.2351C99.0833 57.9152 99.0242 58.7179 99.5058 59.3121C99.894 59.8034 100.965 59.9405 101.602 59.5919C101.721 59.5251 101.84 59.4583 101.959 59.3915C102.278 60.1198 102.169 60.676 101.597 61.1597C101.144 61.5384 100.647 61.8701 100.13 62.2661C99.5355 61.8998 98.903 61.4953 98.2532 61.1405C97.5888 60.7827 96.8985 60.5185 96.0232 60.7721C96.3612 60.9408 96.6147 61.0768 96.9643 61.2631C95.5224 61.8568 94.5528 62.784 94.015 64.2114C93.8304 63.686 93.6516 63.1693 93.4318 62.5529C93.1925 65.7781 95.6796 70.1213 100.569 71.6016C100.342 71.6766 100.165 71.7315 99.9848 71.8009C99.9907 71.8478 99.988 71.9006 99.9939 71.9475C100.2 71.9368 100.401 71.9553 100.599 71.9123C101.28 71.7633 101.951 71.5819 102.638 71.4417C103.301 71.3042 103.901 71.4888 104.525 71.9373C103.645 72.525 102.834 73.0661 102.032 73.6014C101.346 74.0464 100.667 74.5002 99.9693 74.9276C99.8327 75.006 99.6 75.0342 99.4688 74.9691C96.7185 73.6253 93.8012 73.0543 90.7776 73.0249C89.794 73.0201 88.9175 72.7785 88.1158 72.1944C87.903 72.0439 87.6554 71.9548 87.3585 71.924C87.6882 72.289 88.0093 72.6598 88.4003 73.0983C84.7379 73.6226 81.4119 74.8636 78.3555 76.8912C77.9668 76.2094 77.6014 75.563 77.2419 74.9253C77.21 74.9339 77.1867 74.9368 77.1547 74.9454C77.2075 75.1391 77.243 75.3444 77.3191 75.5352C77.694 76.5187 77.6178 77.4854 77.3089 78.4802C76.6015 80.7332 75.1245 82.4315 73.5427 84.0853C72.6661 85.0012 71.8829 86.0201 71.1113 87.0185C70.5225 87.7805 70.2162 88.6845 70.1983 89.6631C70.1987 89.8155 70.1525 89.9735 70.121 90.1727C69.9636 90.0869 69.8325 90.0218 69.6693 89.9272C69.6841 90.0064 69.6813 90.0592 69.6988 90.0856C70.4581 91.156 71.3939 91.8668 72.7989 91.6157C73.3166 91.5245 73.8086 91.6031 74.2261 92.1384C74.0343 92.2664 73.8513 92.3886 73.677 92.505C72.326 93.4068 70.9693 94.2999 69.6387 95.2135C69.3337 95.4172 69.1503 95.387 68.8646 95.1834C67.8559 94.4576 67.2307 93.4377 66.6577 92.3829C66.4472 91.9892 66.3906 91.4673 66.3982 91.0043C66.4061 89.4981 66.4984 87.9865 66.5005 86.4715C66.5075 85.78 66.3632 85.0877 66.2946 84.3958C66.2364 84.4219 66.184 84.4187 66.1229 84.4213ZM97.3832 52.9575C97.3747 53.0395 97.3749 53.1157 97.3663 53.1977C97.8177 53.3288 98.2663 53.5127 98.7292 53.5853C98.898 53.6125 99.1069 53.3586 99.2987 53.2306C99.1295 53.0891 98.963 52.8187 98.7971 52.8149C98.3228 52.8009 97.8487 52.9012 97.3832 52.9575Z" fill="#20113D"/>
<path d="M79.5746 83.4963C79.4989 83.496 79.3271 83.4834 79.0623 83.4821C79.8264 84.1426 80.6385 84.1729 81.4504 84.0888C82.4164 83.9908 83.3765 83.8078 84.3425 83.7098C84.9129 83.6597 85.4633 83.7884 85.8227 84.3883C85.6978 84.4845 85.5874 84.5837 85.4654 84.6652C84.0182 85.6317 82.5769 86.6071 81.1094 87.5618C80.9089 87.6958 80.5917 87.7294 80.3501 87.6872C79.625 87.5606 78.9173 87.3842 78.2009 87.2136C77.3622 87.0102 76.8488 86.5386 76.7797 85.6176C76.7586 85.3008 76.5861 84.9833 76.4224 84.6981C76.098 84.1511 75.7301 83.6333 75.362 83.0774C76.7124 81.8318 77.2818 80.1661 77.9066 78.5271C78.1814 77.8217 78.6227 77.3488 79.3263 77.0443C79.9012 77.7039 80.3802 78.3894 80.17 79.3443C80.0807 79.7221 79.9855 80.0911 79.9312 80.4837C79.8083 81.4566 79.6972 82.4472 79.5746 83.4963Z" fill="#20113D"/>
<path d="M84.0467 74.6946C85.8126 74.3424 87.436 74.0218 89.1147 73.6897C89.3691 75.4034 88.8843 77.1399 89.6507 78.7534C89.389 78.8519 89.1534 78.9329 88.915 79.0285C88.918 79.0901 88.9298 79.1459 88.9329 79.2075C89.3054 79.2004 89.6926 79.2346 90.0563 79.1571C90.6498 79.028 91.211 78.7932 91.8015 78.6406C92.4705 78.4737 92.9893 78.7636 93.4651 79.3113C92.8984 79.6898 92.3492 80.0566 91.8086 80.4176C90.8235 81.0756 89.85 81.7513 88.8473 82.3828C88.6671 82.4904 88.3528 82.5094 88.146 82.4439C87.3159 82.1966 86.7555 81.5781 86.4423 80.82C85.6138 78.8279 84.8609 76.7981 84.0467 74.6946Z" fill="#20113D"/>
<g filter="url(#filter1_d)">
<path d="M81.0001 29.335C54.6474 29.335 33.3257 49.2504 33.3257 73.7919C33.3257 98.3334 81.0001 168.665 81.0001 168.665C81.0001 168.665 128.675 98.3334 128.675 73.7919C128.675 49.2504 107.353 29.335 81.0001 29.335Z" stroke="white" stroke-width="6" stroke-miterlimit="10" stroke-linejoin="round"/>
</g>
</g>
<defs>
<filter id="filter0_d" x="0.325684" y="0.334961" width="161.349" height="205.33" filterUnits="userSpaceOnUse" color-interpolation-filters="sRGB">
<feFlood flood-opacity="0" result="BackgroundImageFix"/>
<feColorMatrix in="SourceAlpha" type="matrix" values="0 0 0 0 0 0 0 0 0 0 0 0 0 0 0 0 0 0 127 0"/>
<feOffset dy="4"/>
<feGaussianBlur stdDeviation="15"/>
<feColorMatrix type="matrix" values="0 0 0 0 0.960784 0 0 0 0 0.501961 0 0 0 0 0.129412 0 0 0 0.7 0"/>
<feBlend mode="normal" in2="BackgroundImageFix" result="effect1_dropShadow"/>
<feBlend mode="normal" in="SourceGraphic" in2="effect1_dropShadow" result="shape"/>
</filter>
<filter id="filter1_d" x="0.325684" y="0.334961" width="161.349" height="205.33" filterUnits="userSpaceOnUse" color-interpolation-filters="sRGB">
<feFlood flood-opacity="0" result="BackgroundImageFix"/>
<feColorMatrix in="SourceAlpha" type="matrix" values="0 0 0 0 0 0 0 0 0 0 0 0 0 0 0 0 0 0 127 0"/>
<feOffset dy="4"/>
<feGaussianBlur stdDeviation="15"/>
<feColorMatrix type="matrix" values="0 0 0 0 0 0 0 0 0 0 0 0 0 0 0 0 0 0 0.5 0"/>
<feBlend mode="normal" in2="BackgroundImageFix" result="effect1_dropShadow"/>
<feBlend mode="normal" in="SourceGraphic" in2="effect1_dropShadow" result="shape"/>
</filter>
</defs>
</svg>
